<svg width="84" height="84" viewBox="0 0 84 84" fill="none" xmlns="http://www.w3.org/2000/svg">
<path d="M67.697 74.1824C68.9013 75.3774 69.2803 76.91 69.4679 78.5215C69.481 78.6359 69.4923 78.7522 69.5035 78.8667H10.0002C9.97018 74.6326 13.3225 71.3835 17.6766 71.4304C18.3157 71.4366 18.6552 71.1165 18.6952 70.4699C18.9185 66.8943 21.6161 63.36 25.0078 62.1951C26.6118 65.3035 28.8985 67.8379 31.6018 70.0122C32.446 70.6913 33.2751 71.4041 34.2844 71.8487L34.2769 71.845C34.3275 71.8937 34.3782 71.9425 34.4288 71.9913C34.5921 72.0588 34.6408 72.2295 34.7478 72.3458C35.6032 73.2763 36.4361 74.2687 37.9312 73.8222C39.0043 74.4375 40.1317 74.9347 41.3342 75.2179C43.8199 75.8051 46.3336 76.1972 48.8906 76.3698C51.8508 76.5705 54.8054 76.5761 57.7526 76.3154C60.5496 76.0677 63.3147 75.5575 66.0199 74.7865C66.5864 74.6251 67.2186 74.6101 67.6951 74.1862L67.697 74.1824Z" fill="#CF4630"/>
<path d="M61.8984 44.0866C63.508 45.7111 65.1176 47.3357 66.7271 48.9584C67.667 49.9058 67.6689 50.431 66.7234 51.3765C64.4797 53.6183 62.2324 55.8582 59.9868 58.0999C59.6998 58.0437 59.5197 58.2219 59.3059 58.3757C55.7172 60.9495 51.7045 62.3734 47.3129 62.7129C45.3563 62.863 43.3978 62.6285 41.4412 62.5628C40.3963 62.5272 39.9385 61.9625 39.8935 60.8782C39.8729 60.3642 39.9348 59.8427 39.871 59.3362C39.5896 57.0982 39.674 54.862 40.0642 52.6578C40.6814 49.1685 42.0471 45.9682 44.1482 43.1017C44.2945 42.901 44.4089 42.7209 44.3695 42.4695C44.4521 42.387 44.5346 42.3063 44.6172 42.2238C44.6753 42.1656 44.7354 42.1074 44.7935 42.0512C45.3206 41.4978 45.8459 40.9462 46.3731 40.3928C47.947 38.8358 49.5228 37.2806 51.0967 35.7236C52.0384 34.7912 52.5562 34.7931 53.5111 35.7423C55.1319 37.3538 56.7527 38.9633 58.3735 40.5729C58.5893 41.0006 59.0301 41.2295 59.2909 41.6159C58.7468 41.9011 58.351 42.3626 57.927 42.7865C54.1564 46.5572 50.3857 50.3279 46.6151 54.1004C46.4669 54.2486 46.3055 54.3893 46.178 54.5544C45.7671 55.0853 45.829 55.725 46.3224 56.1771C46.9321 56.738 47.5324 56.6892 48.2152 56.0064C51.6576 52.5678 55.0981 49.1291 58.533 45.683C59.3378 44.8763 60.2063 44.1278 60.8535 43.173C61.24 43.4337 61.4632 43.8802 61.8966 44.0847L61.8984 44.0866Z" fill="#4D4D4D"/>
<path d="M17.6069 20.1963C18.7456 15.8928 22.747 13.5573 26.996 14.7654C27.5231 14.9155 27.5719 14.7072 27.6713 14.3339C28.8476 9.9517 32.8302 6.94267 37.3644 7.00083C41.7541 7.05711 45.6242 10.0361 46.7592 14.2626C46.8942 14.7691 47.0312 14.8911 47.5865 14.7354C51.7342 13.5723 55.7 15.9322 56.8387 20.1982C56.7767 20.2957 56.6923 20.3857 56.6567 20.4927C55.6362 23.5805 52.6009 25.7679 49.1585 25.5352C46.5247 25.357 44.5793 24.0757 43.223 21.8884C42.8816 21.3387 42.6958 21.3913 42.2569 21.682C40.6492 22.7494 38.8239 23.1622 36.9423 23.1096C35.162 23.059 33.4455 22.5787 31.9448 21.5432C31.6803 21.3612 31.5133 21.2975 31.367 21.6483C31.0443 22.4249 30.4403 22.9821 29.8606 23.558C27.1986 26.2031 22.4599 26.2068 19.7661 23.588C18.7718 22.6219 18.1659 21.4269 17.605 20.1963H17.6069ZM35.3834 11.6194C34.6424 11.5331 33.9108 11.8746 33.2354 12.3661C31.4701 13.6473 31.2882 16.5119 32.8752 17.8889C33.2617 18.2247 33.6875 18.3391 34.1696 18.129C34.6518 17.917 34.8319 17.5287 34.8619 17.0128C34.8844 16.6001 34.6686 16.3074 34.4942 15.981C34.1659 15.3713 34.3328 14.8311 34.8243 14.4221C35.3196 14.0094 35.858 14.0675 36.357 14.4727C36.5015 14.5891 36.6497 14.7072 36.811 14.7973C37.3775 15.1106 38.0172 15.0093 38.4018 14.559C38.747 14.1557 38.7226 13.4016 38.3249 12.942C37.5858 12.0847 36.6665 11.6007 35.3834 11.6232V11.6194Z" fill="#7390FF"/>
<path d="M67.697 74.1824C67.2186 74.6045 66.5883 74.6214 66.0217 74.7827C63.3166 75.5538 60.5515 76.064 57.7544 76.3116C54.8073 76.5724 51.8527 76.5668 48.8924 76.366C46.3355 76.1935 43.8217 75.8014 41.3361 75.2142C40.1336 74.9309 39.0062 74.4338 37.9331 73.8185C39.4714 73.0362 40.2668 71.6274 41.0059 70.1716C41.8051 68.5958 42.4467 66.9563 42.9794 65.2735C45.3881 65.2792 47.7462 64.9377 50.0574 64.2568C51.6895 63.7746 53.2034 63.0149 54.7323 62.2908C57.9045 63.7709 59.9061 66.1928 60.6021 69.6464C60.7203 70.2373 60.5608 71.0627 60.9004 71.376C61.2212 71.6743 62.0391 71.3854 62.6281 71.4548C64.6673 71.6968 66.4363 72.4772 67.6988 74.1806L67.697 74.1824Z" fill="#E05827"/>
<path d="M42.9772 65.2734C42.4425 66.9562 41.8028 68.5958 41.0037 70.1716C40.5366 70.2185 40.137 70.044 39.7543 69.802C38.6888 69.1266 38.0528 68.0874 37.4863 67.0181C35.0306 62.3788 33.8338 57.3288 32.7439 52.2506C32.0291 48.9189 31.4513 45.5628 31.1493 42.158C30.9655 40.0925 31.0593 38.1228 32.0029 36.245C32.076 36.0986 32.2599 35.9279 32.0141 35.761C33.0403 35.0368 34.2371 34.7273 35.4152 34.3728C36.6215 34.2377 37.8277 34.2358 39.032 34.3728C40.8029 34.8324 42.4557 35.5227 43.8289 36.7834C44.9413 37.8058 45.823 38.982 46.3745 40.3946C45.8474 40.948 45.3221 41.4995 44.795 42.0529C44.7368 42.1111 44.6768 42.1692 44.6186 42.2255C44.5361 42.308 44.4536 42.3887 44.371 42.4712C43.6675 43.0903 43.0447 43.7863 42.4557 44.5123C39.5742 48.0616 37.8746 52.1005 37.3474 56.6516C37.0811 58.9459 37.3062 61.2251 37.4056 63.51C37.4525 64.6019 37.869 64.9883 38.987 65.0671C40.3152 65.1609 41.6453 65.2078 42.9734 65.2753L42.9772 65.2734Z" fill="#FECF64"/>
<path d="M32.0143 35.7592C32.2601 35.9262 32.0762 36.095 32.0031 36.2432C31.0595 38.121 30.9675 40.0908 31.1495 42.1562C31.4515 45.5611 32.0293 48.9171 32.7441 52.2488C33.834 57.3251 35.0308 62.3771 37.4865 67.0163C38.053 68.0856 38.689 69.1249 39.7545 69.8002C40.1353 70.0422 40.5368 70.2167 41.0039 70.1698C40.2648 71.6255 39.4712 73.0362 37.9311 73.8166C36.4359 74.2631 35.6011 73.2726 34.7476 72.3403C34.6407 72.224 34.5919 72.0532 34.4287 71.9857C34.378 71.9369 34.3274 71.8882 34.2767 71.8394L34.2842 71.8431C34.2336 71.3779 33.8903 71.059 33.6858 70.6725C32.1738 67.7892 31.202 64.7108 30.341 61.5911C29.3411 57.8823 28.5513 54.1285 27.9566 50.3316C27.6865 48.6038 27.5008 46.8667 27.3207 45.1277C26.9417 41.4696 28.9246 37.4682 32.0143 35.7573V35.7592Z" fill="#F7AF6A"/>
<path d="M17.6072 20.1963C18.17 21.4269 18.774 22.62 19.7683 23.588C22.4621 26.2068 27.2027 26.2031 29.8628 23.558C30.4424 22.9802 31.0484 22.4249 31.3692 21.6483C31.5155 21.2956 31.6824 21.3594 31.947 21.5432C33.4496 22.5787 35.1642 23.0609 36.9445 23.1096C38.8261 23.1622 40.6514 22.7495 42.2591 21.682C42.698 21.3913 42.8838 21.3369 43.2252 21.8884C44.5796 24.0758 46.5269 25.357 49.1607 25.5352C52.6012 25.7679 55.6384 23.5805 56.6589 20.4927C56.6945 20.3858 56.7789 20.2957 56.8408 20.1982C57.9176 24.0964 55.0887 28.4617 51.0498 29.1802C49.4102 29.471 47.8588 29.2665 46.3599 28.5705C46.1929 28.4936 46.0429 28.3661 45.8384 28.4148C45.2118 27.8727 44.5871 27.3287 43.9606 26.7865C43.6585 26.3231 43.3452 25.8654 43.0601 25.3908C42.9325 25.1788 42.8519 25.0719 42.5949 25.2482C41.3492 26.0999 39.9348 26.5182 38.4734 26.8053C37.6423 26.8053 36.8113 26.8053 35.9803 26.8053C34.517 26.522 33.1082 26.0905 31.8569 25.2501C31.6693 25.1244 31.5661 25.1019 31.4311 25.3383C31.1347 25.8579 30.7951 26.3532 30.4724 26.8578C29.8121 27.3662 29.2287 27.974 28.5083 28.4073C26.396 29.4297 24.2405 29.668 22.0232 28.76C18.6352 27.3718 16.6917 23.603 17.6109 20.1982L17.6072 20.1963Z" fill="#526CD3"/>
<path d="M79.3486 23.4004C79.8682 23.9031 80.4048 24.3909 80.9038 24.9124C81.4703 25.5071 81.4722 26.1787 80.9056 26.7846C80.3635 27.3643 79.7876 27.9139 79.2248 28.4767C75.8537 31.8516 72.4826 35.2264 69.1097 38.5994C68.3518 39.3572 68.0179 39.4173 67.1362 38.9877C65.9599 37.7289 64.7405 36.5133 63.4837 35.3333C63.0522 34.4929 63.0972 34.1308 63.7482 33.4743C64.204 33.0128 64.6787 32.57 65.1458 32.1179C65.7067 32.51 66.1325 33.0447 66.6146 33.5174C67.6352 34.5173 68.1529 34.5304 69.1472 33.5362C72.34 30.3433 75.531 27.1504 78.7239 23.9594C78.9209 23.7624 79.1404 23.5861 79.3486 23.4004Z" fill="#EA508E"/>
<path d="M42.9771 65.2736C41.6471 65.206 40.317 65.1591 38.9907 65.0653C37.8708 64.9865 37.4562 64.6001 37.4093 63.5083C37.3099 61.2253 37.0848 58.946 37.3511 56.6498C37.8783 52.0987 39.5779 48.0598 42.4594 44.5105C43.0484 43.7845 43.6712 43.0885 44.3747 42.4695C44.4141 42.7209 44.2997 42.9028 44.1533 43.1017C42.0523 45.97 40.6866 49.1685 40.0694 52.6578C39.6792 54.862 39.5948 57.0982 39.8762 59.3362C39.9399 59.8427 39.8762 60.3642 39.8987 60.8782C39.9437 61.9625 40.4014 62.5272 41.4463 62.5628C43.403 62.6285 45.3615 62.863 47.3181 62.7129C51.7097 62.3752 55.7223 60.9495 59.311 58.3757C59.5249 58.2219 59.705 58.0436 59.992 58.0999C58.6376 59.5894 57.0543 60.7994 55.3584 61.8668C55.1464 62 54.9419 62.1482 54.7337 62.2908C53.2048 63.0168 51.6928 63.7765 50.0588 64.2568C47.7477 64.9378 45.3896 65.2792 42.9809 65.2736H42.9771Z" fill="#353434"/>
<path d="M79.3483 23.4004C79.1401 23.5861 78.9206 23.7625 78.7237 23.9595C75.5289 27.1505 72.3379 30.3433 69.1469 33.5362C68.1527 34.5305 67.6368 34.5173 66.6144 33.5174C66.1323 33.0447 65.7064 32.5101 65.1455 32.118C68.6517 28.6006 72.1522 25.0813 75.6658 21.5714C76.2511 20.9861 76.9321 20.9936 77.5287 21.5639C78.1515 22.1585 78.7424 22.787 79.3483 23.4004Z" fill="#FE6EA8"/>
<path d="M28.5063 28.4054C29.2266 27.9739 29.8101 27.3643 30.4704 26.8559C32.2694 28.3829 34.0666 29.9081 35.9801 31.5308V26.8015C36.8111 26.8015 37.6422 26.8015 38.4732 26.8015C38.4732 28.3266 38.4732 29.8536 38.4732 31.5326C40.3829 29.8799 42.1726 28.3323 43.9604 26.7827C44.5851 27.3249 45.2116 27.8689 45.8382 28.411C43.5702 30.3958 41.3003 32.3806 39.0304 34.3672C37.8241 34.2321 36.6179 34.2321 35.4135 34.3672C33.1117 32.3787 30.8081 30.3902 28.5044 28.4017L28.5063 28.4054Z" fill="#623B17"/>
<path d="M30.3411 61.5929C31.2022 64.7126 32.1739 67.7929 33.686 70.6744C33.8886 71.0608 34.2337 71.3797 34.2844 71.8449C33.277 71.4003 32.446 70.6875 31.6018 70.0084C28.8967 67.8342 26.6099 65.2998 25.0078 62.1913C26.4354 61.636 27.9043 61.3865 29.4388 61.5722C29.7371 61.6079 30.041 61.5872 30.343 61.591L30.3411 61.5929Z" fill="#E05827"/>
<path d="M63.4814 35.3333C64.7383 36.5113 65.9558 37.7288 67.1339 38.9876C67.027 39.0289 66.89 39.0401 66.8169 39.1133C65.1735 40.7679 63.4645 42.3568 61.8981 44.0883C61.4648 43.8838 61.2415 43.4355 60.8551 43.1766C60.7463 42.2443 60.2454 41.7059 59.2943 41.6158C59.0317 41.2294 58.5908 41.0005 58.377 40.5728C60.1085 39.0045 61.6993 37.2955 63.3539 35.6503C63.4289 35.5771 63.442 35.4402 63.4833 35.3333H63.4814Z" fill="#F0E5C6"/>
<path d="M59.2946 41.616C60.2457 41.7041 60.7466 42.2444 60.8554 43.1768C60.2101 44.1316 59.3396 44.8801 58.5348 45.6868C55.1 49.1329 51.6576 52.5715 48.2171 56.0101C47.5343 56.693 46.934 56.7399 46.3243 56.1809C45.8328 55.7288 45.769 55.0872 46.1798 54.5582C46.3074 54.3931 46.4687 54.2524 46.6169 54.1042C50.3876 50.3335 54.1564 46.561 57.9289 42.7903C58.3529 42.3663 58.7487 41.9049 59.2927 41.6197L59.2946 41.616Z" fill="#666666"/>
<path d="M44.6206 42.2236C44.6788 42.1655 44.7388 42.1073 44.7969 42.051C44.7388 42.1092 44.6788 42.1673 44.6206 42.2236Z" fill="#353434"/>
<path d="M35.3839 11.6194C36.6671 11.5969 37.5863 12.0828 38.3254 12.9382C38.7231 13.3978 38.7475 14.1519 38.4023 14.5553C38.0159 15.0055 37.378 15.1068 36.8115 14.7935C36.6502 14.7035 36.502 14.5872 36.3575 14.469C35.8567 14.0638 35.3201 14.0056 34.8249 14.4183C34.3315 14.8292 34.1645 15.3676 34.4947 15.9772C34.6692 16.3018 34.8849 16.5944 34.8624 17.009C34.8343 17.5268 34.6542 17.9151 34.1702 18.1252C33.6899 18.3353 33.2641 18.2209 32.8758 17.8851C31.2887 16.51 31.4707 13.6454 33.2359 12.3623C33.9113 11.8708 34.6429 11.5294 35.3839 11.6157V11.6194Z" fill="#A0B3FF"/>
</svg>
