<svg width="84" height="84" viewBox="0 0 84 84" fill="none" xmlns="http://www.w3.org/2000/svg">
<path d="M37.2934 3.38721C38.1025 3.7193 38.8673 4.10573 39.292 4.93697C39.6442 5.62731 39.8576 6.36596 39.5577 7.09657C39.129 8.14517 39.2518 9.13339 39.6261 10.1478C39.7892 10.5906 39.8898 11.0555 40.0186 11.5104C38.8895 11.8767 37.7906 12.3637 36.5809 12.4221C36.3656 11.6774 36.1563 10.9307 35.9329 10.19C35.7779 9.67078 35.4901 9.23201 35.0372 8.9281C32.6965 7.35419 33.6022 4.00107 35.8644 3.50394C35.8966 3.4979 35.9127 3.42947 35.9369 3.38922C36.3877 3.38922 36.8406 3.38922 37.2914 3.38922L37.2934 3.38721Z" fill="#706672"/>
<path d="M68.9649 44.5163C68.9588 48.5135 67.4976 51.8968 64.5772 54.6079C62.2445 56.7735 59.457 57.969 56.2629 58.1743C55.8664 56.2522 54.856 54.6199 53.8879 52.9514C52.8453 51.1541 50.2973 50.021 48.0129 50.6992C47.3306 50.9005 46.9865 50.7093 46.5638 50.2504C45.2676 48.8415 43.6233 48.1572 41.7273 48.2901C40.0206 48.4088 38.5534 49.1434 37.4283 50.4698C37.1425 50.8079 36.8687 50.9428 36.4018 50.7717C34.1637 49.9505 31.4466 51.0736 30.4081 52.8448C29.8143 53.8571 29.1984 54.8554 28.7134 55.9282C28.0633 57.3692 27.228 57.6591 25.8393 56.9184C24.0983 55.9906 22.5888 54.795 21.3732 53.2171C19.8315 51.2165 18.9036 48.9563 18.799 46.4626C18.6722 43.4073 18.7627 40.342 18.7708 37.2807C18.7728 36.4475 19.0948 35.7753 19.8616 35.3707C20.0045 35.2962 20.1132 35.2077 20.1193 35.0366C20.6446 35.0306 21.1719 35.0205 21.6972 35.0205C36.4622 35.0205 51.2272 35.0205 65.9901 35.0205C68.0934 35.0205 68.9427 35.8739 68.9467 37.9852C68.9467 38.3354 68.9568 38.6876 68.9608 39.0378C68.9608 40.8653 68.9608 42.6928 68.9608 44.5203L68.9649 44.5163Z" fill="#EA508E"/>
<path d="M60.3429 72.1503C62.098 72.1624 63.853 72.1745 65.6101 72.1866C67.7395 72.2006 68.9511 73.4143 68.9672 75.5538C68.9712 76.2059 68.9853 76.86 68.9571 77.5101C68.8827 79.2108 67.6006 80.4506 65.8898 80.4908C65.4631 80.5009 65.0365 80.4929 64.6098 80.4929C50.2815 80.4929 35.9553 80.4929 21.6271 80.4929C21.4761 80.4929 21.3272 80.4788 21.1763 80.4707C21.1642 80.3379 21.1078 80.2393 20.983 80.1728C19.7674 79.5248 19.2521 78.5184 19.3608 77.1418C19.4192 76.393 19.3447 75.6363 19.3789 74.8855C19.4152 74.0543 19.6909 73.3177 20.4114 72.8185C20.7174 72.6072 21.0273 72.4019 21.3353 72.1946C22.1806 72.1785 23.0279 72.1644 23.8732 72.1483C24.634 72.2167 25.3948 72.2147 26.1556 72.1483C26.3549 72.1604 26.5541 72.1805 26.7534 72.1805C37.7506 72.1805 48.7459 72.1805 59.7431 72.1805C59.9424 72.1805 60.1416 72.1564 60.3409 72.1443L60.3429 72.1503Z" fill="#6F6571"/>
<path d="M36.5813 12.4221C37.7929 12.3617 38.8898 11.8746 40.019 11.5104C42.1745 10.8844 44.3382 10.2826 46.4857 9.6285C47.9469 9.1837 49.4141 8.71877 50.9397 8.69462C53.5602 8.65235 55.9855 9.3749 58.0706 11.0092C59.1474 11.8545 60.2705 12.6495 61.2366 13.6297C61.0393 13.8974 60.7213 13.9316 60.4416 14.0141C56.704 15.1171 52.9605 16.1999 49.2249 17.3069C42.1343 19.4101 35.0497 21.5294 27.961 23.6327C27.1016 23.8883 26.2382 24.1721 25.3546 24.2989C24.4167 24.4337 23.8592 23.675 24.1369 22.7713C24.3483 22.0769 24.5355 21.3684 24.8213 20.7042C25.568 18.9693 26.5381 17.3994 28.0194 16.1476C28.7279 15.5478 29.5873 15.1734 30.2333 14.5072C31.8093 13.8793 33.4798 13.5593 35.0799 13.0098C35.585 12.8367 36.1788 12.8649 36.5793 12.4201L36.5813 12.4221Z" fill="#7390FF"/>
<path d="M60.343 72.1502C60.1437 72.1623 59.9445 72.1865 59.7452 72.1865C48.7479 72.1865 37.7527 72.1865 26.7555 72.1865C26.5562 72.1865 26.3569 72.1643 26.1577 72.1543C26.1537 70.1235 26.1537 68.0947 26.1476 66.0639C26.1436 64.7516 25.9826 63.4092 26.8963 62.2781C27.5464 62.6887 27.8101 63.2864 27.8121 64.0472C27.8181 65.279 28.4421 65.8868 29.6577 65.8868C30.7084 65.8868 31.761 65.8787 32.8116 65.8747C33.6529 65.8767 34.4922 65.8787 35.3335 65.8828C36.4626 65.8888 37.5897 65.9049 38.7188 65.8989C39.5359 65.8948 40.019 65.4561 40.1196 64.6409C40.1538 64.3692 40.1257 64.0895 40.1458 63.8137C40.2363 62.5276 41.5385 61.6823 42.7542 62.115C43.6639 62.4391 44.0624 63.0731 44.0886 64.2284C44.1128 65.3313 44.5213 65.8868 45.3928 65.8928C47.3995 65.9049 49.4061 65.8828 51.4107 65.8727C52.4633 65.8767 53.514 65.8848 54.5666 65.8848C55.7843 65.8848 56.4042 65.279 56.4122 64.0412C56.4183 63.2502 56.694 62.6242 57.4004 62.2398C58.1874 61.8111 58.9421 61.9158 59.6385 62.4552C60.1518 62.8517 60.3389 63.3911 60.3369 64.0331C60.3289 66.7382 60.3369 69.4432 60.3389 72.1502H60.343Z" fill="#ECECF3"/>
<path d="M30.237 14.5093C29.591 15.1755 28.7316 15.5498 28.0231 16.1496C26.5418 17.4015 25.5717 18.9693 24.825 20.7063C24.5392 21.3705 24.352 22.0789 24.1407 22.7733C23.8649 23.677 24.4224 24.4358 25.3583 24.3009C26.2399 24.1741 27.1053 23.8903 27.9647 23.6347C35.0534 21.5315 42.14 19.4121 49.2286 17.3089C52.9642 16.1999 56.7077 15.1191 60.4453 14.0162C60.725 13.9336 61.043 13.8994 61.2403 13.6317C62.4358 13.5814 63.5086 13.0521 64.6417 12.7522C65.8594 12.4282 66.5598 12.7683 66.9442 13.9799C67.0871 14.4308 67.2964 14.8816 67.2501 15.3646C67.1757 16.1456 66.7349 16.6185 65.9701 16.844C61.8179 18.0657 57.6718 19.3095 53.5217 20.5372C48.3873 22.0568 43.249 23.5643 38.1167 25.0838C32.5516 26.7322 26.9866 28.3866 21.4215 30.0391C21.0874 30.1377 20.7533 30.2323 20.4192 30.3289C20.1435 29.9465 19.5276 29.9545 19.3746 29.4353C19.0647 28.3846 18.4629 27.3441 19.2197 26.2411C19.7611 26.1143 19.9905 25.75 20.1576 25.2267C20.7392 23.4194 21.1579 21.5476 22.1823 19.9052C24.0602 16.8963 26.7974 15.1795 30.2391 14.5133L30.237 14.5093Z" fill="#526DD3"/>
<path d="M20.1216 35.0344C20.1156 35.2075 20.0049 35.294 19.864 35.3685C19.0992 35.7751 18.7772 36.4473 18.7732 37.2785C18.7651 40.3398 18.6725 43.4051 18.8013 46.4603C18.906 48.9561 19.8338 51.2143 21.3755 53.2149C22.5912 54.7928 24.1027 55.9883 25.8417 56.9162C27.2304 57.6569 28.0657 57.367 28.7158 55.926C29.2008 54.8532 29.8167 53.8549 30.4104 52.8425C31.449 51.0734 34.1661 49.9503 36.4042 50.7695C36.8731 50.9406 37.1448 50.8057 37.4306 50.4676C38.5557 49.1392 40.025 48.4066 41.7297 48.2879C43.6257 48.155 45.27 48.8393 46.5662 50.2482C46.9868 50.7051 47.333 50.8983 48.0153 50.697C50.2997 50.0188 52.8477 51.1539 53.8903 52.9492C54.8584 54.6177 55.8667 56.252 56.2653 58.1721C54.957 58.1862 53.6488 58.2023 52.3405 58.2164C51.8615 57.2302 51.3825 56.248 50.7928 55.3161C50.3721 54.6519 49.867 54.2735 49.0679 54.4406C48.3756 54.5855 48.128 55.1309 48.0052 55.7448C47.9227 56.1574 47.7114 56.4452 47.3089 56.5298C46.9063 56.6163 46.5883 56.4392 46.3367 56.1091C45.7772 55.3745 45.2358 54.6217 44.626 53.9314C44.1751 53.4222 43.9215 52.6976 43.1688 52.4883C42.2027 51.9791 41.2044 52.0596 40.504 52.8385C39.5017 53.9515 38.596 55.1491 37.7406 56.3828C36.7182 56.7169 36.527 56.6103 36.1003 55.4872C36.064 54.9116 35.7118 54.5694 35.1946 54.4527C34.5425 54.3058 33.9809 54.4809 33.5824 55.0867C32.9283 56.0829 32.401 57.1456 31.8837 58.2144C29.9093 58.1681 27.9349 58.317 25.9685 57.9165C20.6832 56.8397 16.2271 52.1663 15.4341 46.8367C15.3194 46.0639 15.3134 45.291 15.251 44.5181C15.3134 42.6866 15.3174 40.8551 15.251 39.0255C15.261 38.4741 15.259 37.9226 15.2812 37.3711C15.3315 36.0588 16.3237 35.0606 17.642 35.0223C18.4692 34.9982 19.2965 35.0263 20.1237 35.0324L20.1216 35.0344Z" fill="#C9336F"/>
<path d="M43.1668 52.4905C43.9195 52.6978 44.1731 53.4223 44.6239 53.9336C45.2338 54.6239 45.7752 55.3767 46.3347 56.1113C46.5863 56.4414 46.9043 56.6185 47.3068 56.5319C47.7094 56.4454 47.9207 56.1596 48.0032 55.747C48.124 55.1331 48.3735 54.5877 49.0659 54.4428C49.8649 54.2757 50.3701 54.6561 50.7908 55.3183C51.3805 56.2481 51.8595 57.2323 52.3385 58.2185C52.415 59.0337 52.6545 59.8206 52.6948 60.6499C52.7853 62.5297 52.2962 64.2445 51.4127 65.8727C49.406 65.8808 47.3994 65.905 45.3948 65.8929C44.5233 65.8868 44.1147 65.3313 44.0906 64.2284C44.0644 63.0711 43.6639 62.4391 42.7562 62.1151C41.5405 61.6824 40.2403 62.5277 40.1477 63.8138C40.1276 64.0895 40.1558 64.3673 40.1216 64.641C40.0189 65.4561 39.5379 65.8949 38.7208 65.8989C37.5916 65.905 36.4645 65.8889 35.3354 65.8828C33.7092 63.0429 33.5341 60.1205 34.9228 57.1498C35.2046 56.544 35.42 55.8376 36.1003 55.4914C36.5249 56.6144 36.7181 56.7191 37.7406 56.387C38.9522 56.8781 40.0612 56.5883 40.7878 55.596C40.8763 55.4753 40.987 55.3746 41.0756 55.2559C41.7599 54.324 42.577 53.4948 43.1688 52.4945L43.1668 52.4905Z" fill="#FECF64"/>
<path d="M67.2964 31.2627C66.2015 31.2526 65.4287 30.8641 64.8752 30.0047C64.1707 28.9139 63.9453 28.8595 62.7236 29.3144C62.2788 29.4794 61.8421 29.6747 61.3872 29.8095C60.4392 30.0933 59.7489 29.6968 59.4208 28.7146C59.0606 27.6338 59.3605 26.8267 60.2762 26.4705C60.882 26.235 61.514 26.0639 62.1078 25.8043C62.6794 25.5527 63.0114 25.124 62.8685 24.4316C62.5787 23.0147 63.2489 21.7709 64.5693 21.2275C65.7587 20.7384 67.1153 21.2013 67.87 22.3988C68.0713 22.7189 68.1699 22.8054 68.5382 22.5759C69.5969 21.9158 70.6898 21.9842 71.6861 22.7048C72.6582 23.4072 72.9219 24.4397 72.6683 25.5648C72.4086 26.712 71.5552 27.3339 70.4664 27.5774C69.9753 27.6861 69.8203 27.7485 69.9431 28.3181C70.1967 29.5116 68.9468 31.5142 67.3004 31.2627H67.2964Z" fill="#F7F7FE"/>
<path d="M68.9648 44.5162C68.9648 42.6887 68.9648 40.8612 68.9648 39.0337C70.3395 39.0397 71.7142 39.0377 73.0888 39.0518C74.6808 39.0659 75.6429 40.0823 75.6449 41.7327C75.6469 43.4394 74.6849 44.49 73.0888 44.5061C71.7142 44.5182 70.3395 44.5142 68.9648 44.5182V44.5162Z" fill="#877C89"/>
<path d="M15.2488 39.0276C15.3152 40.8592 15.3132 42.6907 15.2488 44.5202C13.8701 44.5142 12.4894 44.5182 11.1107 44.5021C9.52879 44.484 8.5627 43.4032 8.58082 41.6904C8.59692 40.0642 9.5469 39.0679 11.1107 39.0498C12.4894 39.0337 13.8681 39.0337 15.2468 39.0256L15.2488 39.0276Z" fill="#877C89"/>
<path d="M21.3352 72.1984C21.0273 72.4057 20.7153 72.611 20.4114 72.8224C19.6909 73.3215 19.4152 74.0581 19.3789 74.8894C19.3447 75.6401 19.4192 76.3969 19.3608 77.1456C19.2521 78.5223 19.7694 79.5286 20.983 80.1767C21.1078 80.2431 21.1642 80.3417 21.1762 80.4745C20.1981 80.4806 19.2179 80.5128 18.2418 80.4866C16.6759 80.4444 15.4019 79.269 15.2872 77.7192C15.2187 76.7974 15.2187 75.8615 15.2872 74.9377C15.4039 73.3819 16.6759 72.2246 18.2478 72.1924C19.2763 72.1723 20.3048 72.1924 21.3332 72.1964L21.3352 72.1984Z" fill="#5E5460"/>
<path d="M36.1003 55.4893C35.418 55.8355 35.2046 56.542 34.9229 57.1478C33.5361 60.1185 33.7112 63.0409 35.3355 65.8808C34.4942 65.8788 33.6549 65.8767 32.8136 65.8727C31.7972 64.0613 31.3544 62.1231 31.5758 60.05C31.6422 59.4342 31.7791 58.8263 31.8837 58.2165C32.403 57.1478 32.9283 56.0851 33.5824 55.0888C33.9809 54.483 34.5425 54.3079 35.1946 54.4548C35.7118 54.5716 36.062 54.9117 36.1003 55.4893Z" fill="#FEC169"/>
<path d="M26.8964 62.2781C25.9826 63.4093 26.1436 64.7497 26.1476 66.064C26.1557 68.0948 26.1557 70.1235 26.1577 72.1543C25.3969 72.2187 24.6361 72.2207 23.8753 72.1543C23.8794 69.5218 23.9719 66.8851 23.8592 64.2586C23.7868 62.582 25.4372 61.4006 26.8984 62.2801L26.8964 62.2781Z" fill="#DCDCE2"/>
<path d="M19.2179 26.2371C18.4611 27.34 19.0629 28.3806 19.3728 29.4312C19.5258 29.9504 20.1417 29.9424 20.4174 30.3248C19.5057 30.5925 18.5939 30.8622 17.6802 31.1238C17.489 31.1782 17.2877 31.2305 17.0925 31.2265C16.1868 31.2064 15.5387 30.363 15.3153 28.934C15.1744 28.0364 15.5206 27.344 16.3337 27.0743C17.2817 26.7583 18.2538 26.5128 19.2159 26.2371H19.2179Z" fill="#759BD6"/>
<path d="M43.1665 52.4905C42.5747 53.4908 41.7576 54.322 41.0733 55.2519C40.9847 55.3706 40.874 55.4733 40.7855 55.592C40.0589 56.5863 38.9499 56.8761 37.7383 56.383C38.5917 55.1493 39.4994 53.9517 40.5017 52.8387C41.2021 52.0598 42.2004 51.9793 43.1665 52.4885V52.4905Z" fill="#FEC169"/>
</svg>
