<svg width="84" height="84" viewBox="0 0 84 84" fill="none" xmlns="http://www.w3.org/2000/svg">
<path d="M55.9338 50.2255C58.9353 47.9099 62.2703 46.2345 65.8551 45.038C70.0563 43.6361 74.3824 43.1571 78.7922 43.331V65.0324C78.4919 65.0625 78.2738 65.2411 78.0414 65.4149C75.4508 67.3543 72.6595 68.9428 69.609 70.0318C66.6596 71.0861 63.5506 71.1445 60.4716 71.35C58.9701 71.4496 57.4717 71.2694 55.9717 71.2046L55.918 71.2188C55.9227 64.22 55.929 57.2228 55.9338 50.2239V50.2255Z" fill="#E05827"/>
<path d="M22.8867 78.8309C21.3789 77.4036 19.882 75.9668 18.3615 74.5522C16.8062 73.1044 15.2256 71.6835 13.6656 70.242C11.0355 67.8094 8.41649 65.3659 5.78165 62.9397C5.38967 62.5777 5.18419 62.2142 5.19367 61.6467C5.23635 59.4244 5.21896 57.199 5.22529 54.9751C5.62992 55.0857 5.93339 55.3481 6.22738 55.631C8.15411 57.4851 10.1456 59.2695 12.0977 61.0951C14.7657 63.5893 17.4432 66.0724 20.1334 68.5428C22.0111 70.2672 24.2287 71.1871 26.7465 71.1982C36.4703 71.2393 46.194 71.2188 55.9178 71.2219L55.9715 71.2077C55.9621 73.7493 55.951 76.2909 55.9415 78.8324H22.8867V78.8309Z" fill="#F9C29A"/>
<path d="M55.9429 78.8309C55.9524 76.2893 55.9634 73.7477 55.9729 71.2061C57.4729 71.2725 58.9713 71.4527 60.4728 71.3515C63.5518 71.1461 66.6608 71.0876 69.6102 70.0333C72.6607 68.9427 75.452 67.3558 78.0426 65.4164C78.275 65.2426 78.4931 65.064 78.7934 65.0339C78.7934 69.4659 78.7855 73.8963 78.806 78.3282C78.8076 78.7566 78.7191 78.8435 78.2907 78.8435C70.8415 78.8277 63.3922 78.8309 55.9429 78.8309Z" fill="#CF4630"/>
<path d="M55.9178 71.2203C46.194 71.2172 36.4703 71.2393 26.7465 71.1966C24.2286 71.1855 22.0127 70.2656 20.1334 68.5412C17.4432 66.0708 14.7657 63.5877 12.0977 61.0935C10.1441 59.2679 8.15253 57.4834 6.22737 55.6294C5.93339 55.3465 5.62991 55.0841 5.22528 54.9735C5.22054 53.7549 5.21422 52.5362 5.20948 51.3176C5.2079 50.6395 5.5983 50.0974 5.867 49.5236C7.78741 45.4426 9.73311 41.3726 11.6662 37.2962C11.7373 37.1476 11.7768 36.9833 11.8321 36.8268C11.9586 36.6008 12.1008 36.3795 12.2115 36.1456C14.2457 31.8543 16.2799 27.5614 18.3078 23.267C19.8899 19.9177 22.4963 18.1016 26.2265 17.9609C25.7539 19.6759 25.4757 21.4256 25.5105 23.2022C25.5801 26.7537 26.5948 30.0271 28.5816 32.986C28.6985 33.1614 28.8787 33.3116 28.8044 33.5613C28.237 33.7984 27.6727 34.0465 27.099 34.2678C26.786 34.388 26.7655 34.6155 26.7671 34.8937C26.7781 36.7003 26.7797 38.507 26.7829 40.3136V53.3249C27.6538 52.7939 28.3113 52.0715 29.0984 51.5167C31.5752 49.7718 34.3033 48.7333 37.3017 48.3508C40.9465 47.8846 44.3922 48.5452 47.6498 50.1938C48.881 50.8165 50.0823 51.5183 51.0528 52.5362C51.0575 52.8144 50.841 52.9519 50.6766 53.1195C50.0696 53.7327 49.4485 54.3286 48.8526 54.9529C48.4116 55.416 47.5612 55.8428 47.6308 56.3438C47.7051 56.8797 48.4811 57.308 48.9221 57.8091C49.1845 58.1062 49.3536 58.054 49.6049 57.7948C50.4553 56.9176 51.3262 56.0625 52.1892 55.1995C52.6855 54.7032 52.7498 54.1632 52.382 53.5794C52.3473 53.5225 52.3536 53.4403 52.3409 53.3708C53.3857 52.1474 54.6438 51.1706 55.9304 50.2238C55.9257 57.2227 55.9194 64.2199 55.9146 71.2187L55.9178 71.2203ZM18.1181 40.184C18.1387 39.8994 17.9284 39.8457 17.7609 39.7746C17.3215 39.5896 16.8505 39.4648 16.4427 39.2293C15.9954 38.9716 15.8231 39.136 15.6571 39.5375C14.5286 42.2672 13.3716 44.9842 12.2589 47.7202C11.6504 49.2154 11.7009 49.1822 13.2041 49.8255C13.8663 50.1084 14.1082 49.9472 14.3547 49.3434C15.5244 46.4763 16.7256 43.6233 17.9142 40.764C17.9964 40.5665 18.058 40.361 18.1197 40.184H18.1181ZM19.155 37.4069C19.2087 37.3705 19.3209 37.3373 19.351 37.2678C19.656 36.5454 19.9516 35.82 20.2361 35.0913C20.3072 34.9095 20.127 34.8574 20.0132 34.7815C18.4153 33.7273 17.949 33.879 17.2741 35.6666C17.2077 35.8452 17.1239 36.016 17.0512 36.1914C16.9912 36.3368 16.9896 36.4933 17.1476 36.5613C17.8004 36.8458 18.4595 37.116 19.155 37.4069Z" fill="#FDC8A2"/>
<path d="M28.8061 33.5629C28.8788 33.3132 28.7002 33.163 28.5833 32.9876C26.5965 30.0287 25.5817 26.7553 25.5122 23.2037C25.4774 21.4287 25.7572 19.679 26.2282 17.9641C26.6059 16.8561 26.9837 15.7481 27.5638 14.7255C28.6022 12.8936 29.813 11.2055 31.4283 9.81144C31.9546 9.35782 32.6454 9.04961 32.9646 8.36838C33.2681 8.43951 33.4499 8.20241 33.6648 8.0728C39.4182 4.5971 45.3754 4.20196 51.3674 7.24932C56.7524 9.98848 59.9436 14.4995 60.8114 20.4915C61.6459 26.2543 59.9373 31.2948 55.8973 35.4707C53.0997 38.3631 49.6367 40.0638 45.6314 40.5949C41.0683 41.1987 36.9035 40.116 33.0911 37.5823C31.9151 36.6166 30.6965 35.7062 29.745 34.4875C29.4858 34.1572 29.3056 33.6767 28.8077 33.5645L28.8061 33.5629ZM54.6487 23.0473C54.7435 16.6807 49.5734 11.6022 43.3681 11.5928C36.8118 11.5833 31.874 16.589 31.8551 22.9935C31.8361 29.3332 36.8086 34.271 42.9903 34.4117C49.5466 34.5618 54.7435 29.2353 54.6487 23.0457V23.0473Z" fill="#4465E2"/>
<path d="M32.9648 8.36689C32.6455 9.04812 31.9532 9.35634 31.4284 9.80996C29.8131 11.204 28.6023 12.8921 27.5639 14.724C26.9838 15.7466 26.6061 16.8546 26.2283 17.9626C22.4981 18.1033 19.8917 19.9194 18.3096 23.2686C16.2801 27.5631 14.2475 31.8544 12.2133 36.1473C12.1026 36.3812 11.9619 36.6009 11.8339 36.8285C6.71124 32.4392 4.451 26.9071 5.48312 20.2149C6.62904 12.7846 12.0489 7.13561 19.4381 5.61983C24.2968 4.62248 28.8426 5.54871 32.9663 8.36689H32.9648Z" fill="#4465E2"/>
<path d="M28.806 33.5627C29.3055 33.675 29.4857 34.1555 29.7433 34.4858C30.6948 35.7044 31.9134 36.6149 33.0894 37.5806C31.169 38.9099 29.0889 39.8724 26.7844 40.3166C26.7797 38.51 26.7781 36.7034 26.7686 34.8968C26.767 34.6186 26.7876 34.391 27.1006 34.2708C27.6743 34.0496 28.2386 33.8014 28.806 33.5643V33.5627Z" fill="#E6A83B"/>
<path d="M52.344 53.3724C52.3567 53.4435 52.3504 53.5257 52.3851 53.581C52.7518 54.1648 52.6876 54.7048 52.1923 55.2011C51.3293 56.0641 50.4568 56.9192 49.6081 57.7964C49.3567 58.0557 49.1876 58.1078 48.9252 57.8107C48.4843 57.3096 47.7082 56.8813 47.6339 56.3455C47.5644 55.8428 48.4131 55.4161 48.8557 54.9546C49.45 54.3318 50.0727 53.7343 50.6797 53.1211C50.8441 52.9551 51.0606 52.816 51.0559 52.5378C51.6359 52.5853 51.7434 53.3598 52.3456 53.3724H52.344Z" fill="#F6BB8F"/>
<path d="M18.1181 40.184C18.0564 40.361 17.9948 40.5665 17.9126 40.764C16.724 43.6233 15.5228 46.4763 14.3531 49.3435C14.1066 49.9488 13.8647 50.11 13.2025 49.8255C11.6993 49.1822 11.6487 49.2154 12.2573 47.7202C13.37 44.9842 14.527 42.2672 15.6555 39.5375C15.8215 39.136 15.9938 38.9717 16.4411 39.2293C16.8489 39.4648 17.3215 39.5881 17.7593 39.7746C17.9284 39.8457 18.137 39.8979 18.1165 40.184H18.1181Z" fill="#FDD9C0"/>
<path d="M19.1551 37.4069C18.4596 37.1145 17.8005 36.8458 17.1477 36.5613C16.9913 36.4934 16.9913 36.3385 17.0513 36.1915C17.124 36.016 17.2062 35.8437 17.2742 35.6667C17.9491 33.8806 18.4154 33.7289 20.0133 34.7816C20.1287 34.8574 20.3073 34.9096 20.2362 35.0914C19.9517 35.8216 19.6545 36.5455 19.3511 37.2678C19.3226 37.3374 19.2088 37.3706 19.1551 37.4069Z" fill="#FDD9C0"/>
<path d="M54.6487 23.0472C54.7435 29.2367 49.5465 34.5633 42.9903 34.4132C36.8086 34.2709 31.8361 29.3347 31.855 22.995C31.874 16.5889 36.8118 11.5848 43.368 11.5943C49.575 11.6037 54.7451 16.6821 54.6487 23.0487V23.0472ZM48.3279 22.9855C48.3374 20.3744 46.3016 17.9419 43.251 17.945C40.2574 17.9482 38.1916 20.3665 38.2327 23.0298C38.2754 25.8369 40.5293 28.1208 43.2937 28.0892C46.085 28.0576 48.3358 25.7753 48.3279 22.9871V22.9855Z" fill="#EA508E"/>
<path d="M48.3277 22.9857C48.3356 25.7738 46.0849 28.0562 43.2936 28.0878C40.5291 28.1194 38.2752 25.8355 38.2325 23.0284C38.1914 20.3666 40.2573 17.9468 43.2509 17.9436C46.3014 17.9404 48.3372 20.3745 48.3277 22.9841V22.9857Z" fill="#EAEAEA"/>
</svg>
