<svg width="24" height="24" viewBox="0 0 24 24" fill="none" xmlns="http://www.w3.org/2000/svg">
<path d="M10.4865 4C14.0688 4 16.973 6.9041 16.973 10.4865C16.973 11.9655 16.4779 13.329 15.6445 14.4202L19.7467 18.5236C20.0844 18.8613 20.0844 19.409 19.7467 19.7467C19.4349 20.0585 18.9443 20.0824 18.6051 19.8186L18.5236 19.7467L14.4202 15.6445C13.329 16.4779 11.9655 16.973 10.4865 16.973C6.9041 16.973 4 14.0688 4 10.4865C4 6.9041 6.9041 4 10.4865 4ZM10.4865 5.72973C7.8594 5.72973 5.72973 7.8594 5.72973 10.4865C5.72973 13.1136 7.8594 15.2432 10.4865 15.2432C13.1136 15.2432 15.2432 13.1136 15.2432 10.4865C15.2432 7.8594 13.1136 5.72973 10.4865 5.72973Z" fill="#B1B1B1"/>
</svg>
