<svg width="199" height="197" viewBox="0 0 199 197" fill="none" xmlns="http://www.w3.org/2000/svg">
<circle cx="92.5" cy="92.5" r="92.5" fill="black"/>
<path d="M166.605 67.2927C166.605 101.286 166.605 135.279 166.605 169.272C166.605 174.402 162.487 178.526 157.357 178.526C116.789 178.526 76.2217 178.526 35.6539 178.526C30.5239 178.526 26.4062 174.402 26.4062 169.272C26.4062 135.279 26.4062 101.286 26.4062 67.2927C56.316 67.2927 86.2314 67.2813 116.141 67.2756C132.964 67.2756 149.787 67.287 166.611 67.2927H166.605ZM45.7318 101.161C46.5906 101.172 47.2276 100.638 47.802 99.9722C52.4429 94.5521 57.0951 89.1435 61.7303 83.7234C61.9749 83.4391 62.2024 83.1206 62.3446 82.7793C62.8109 81.676 62.3957 80.4361 61.3891 79.8048C60.2971 79.1224 59.0232 79.401 58.0051 80.584C54.1207 85.0998 50.2191 89.5928 46.4029 94.1597C45.6181 95.1038 45.2314 94.9502 44.5204 94.1824C43.201 92.7663 41.8076 91.4184 40.4142 90.0648C39.1686 88.8591 37.6786 88.7852 36.6548 89.8373C35.6823 90.8383 35.7733 92.2999 36.9449 93.4886C39.1686 95.7465 41.4208 97.9702 43.656 100.211C44.2133 100.768 44.8446 101.138 45.7318 101.155V101.161ZM113.428 110.915C113.406 110.801 113.371 110.619 113.332 110.431C113.115 109.39 112.439 108.77 111.449 108.537C110.283 108.264 109.476 108.901 108.765 109.737C104.926 114.23 101.064 118.701 97.2535 123.211C96.588 123.995 96.1956 124.16 95.4278 123.313C94.097 121.84 92.6638 120.464 91.2249 119.093C89.8997 117.83 88.5461 117.808 87.494 118.939C86.5101 119.997 86.6181 121.339 87.8352 122.574C90.0305 124.792 92.2315 126.998 94.4496 129.194C95.9511 130.678 97.2705 130.638 98.6696 129.012C103.299 123.643 107.9 118.251 112.518 112.871C112.99 112.319 113.349 111.728 113.423 110.909L113.428 110.915ZM45.3735 159.24C46.4143 159.24 47.2674 159.251 48.1148 159.24C50.7083 159.194 52.7216 157.34 52.8126 154.929C52.9263 151.92 51.186 149.771 48.3708 149.611C46.5394 149.509 44.6911 149.537 42.854 149.606C40.8464 149.68 39.0833 151.192 38.5772 153.137C38.0198 155.276 38.7819 157.227 40.4995 158.455C42.0863 159.587 43.855 159.138 45.3735 159.246V159.24ZM98.6469 159.24C99.7275 159.24 100.575 159.251 101.422 159.24C104.033 159.2 106.063 157.272 106.148 154.77C106.251 151.994 104.334 149.736 101.65 149.611C99.8128 149.526 97.9701 149.532 96.1331 149.611C93.9776 149.708 92.1519 151.408 91.7197 153.553C91.3045 155.617 92.3908 157.699 94.2904 158.739C95.7747 159.553 97.3445 159.098 98.6355 159.246L98.6469 159.24ZM74.5951 96.2526C75.397 96.2526 76.1989 96.2526 77.0008 96.2526C79.8388 96.2299 81.8635 94.4099 82.0114 91.754C82.1536 89.2003 80.0322 86.7832 77.3762 86.624C75.5904 86.5159 73.7875 86.5273 72.0017 86.624C69.1864 86.7775 67.4347 88.9103 67.5314 91.9189C67.6167 94.3872 69.6528 96.2356 72.3258 96.2583C73.0823 96.264 73.833 96.2583 74.5894 96.2583L74.5951 96.2526ZM147.274 96.2526C148.076 96.2526 148.877 96.2583 149.679 96.2526C152.506 96.2299 154.536 94.3872 154.667 91.7255C154.792 89.1662 152.665 86.7662 150.004 86.6183C148.218 86.5216 146.415 86.5159 144.629 86.6183C141.814 86.7832 140.079 88.9273 140.187 91.9359C140.273 94.3474 142.297 96.2128 144.868 96.247C145.67 96.2583 146.472 96.247 147.274 96.247V96.2526ZM147.268 127.749C148.115 127.749 148.963 127.761 149.816 127.749C152.318 127.721 154.36 125.912 154.65 123.484C154.923 121.226 153.274 118.826 150.959 118.32C148.69 117.825 146.341 117.893 144.077 118.229C141.285 118.638 139.886 120.89 140.204 123.859C140.437 126.02 142.547 127.732 145.01 127.749C145.766 127.755 146.517 127.749 147.274 127.749H147.268ZM69.8974 159.24C70.7505 159.24 71.5979 159.251 72.451 159.24C74.9875 159.194 77.0975 157.09 77.1828 154.519C77.2625 152.085 75.0956 149.702 72.6216 149.6C70.8756 149.532 69.1182 149.537 67.3722 149.6C64.5058 149.691 62.6574 151.75 62.7085 154.707C62.754 157.335 64.7162 159.206 67.4916 159.24C68.2935 159.251 69.1011 159.24 69.903 159.24H69.8974ZM123.108 159.24C123.91 159.24 124.712 159.251 125.514 159.24C128.272 159.2 130.251 157.335 130.303 154.736C130.359 151.778 128.54 149.702 125.696 149.594C123.956 149.526 122.21 149.537 120.464 149.594C117.978 149.674 115.823 151.949 115.823 154.411C115.823 156.993 117.978 159.189 120.566 159.234C121.413 159.251 122.261 159.234 123.114 159.234L123.108 159.24ZM147.393 159.24C148.24 159.24 149.088 159.251 149.941 159.24C152.5 159.194 154.542 157.17 154.661 154.565C154.775 152.159 152.625 149.725 150.168 149.611C148.331 149.526 146.489 149.52 144.657 149.611C141.893 149.753 140.125 151.852 140.187 154.758C140.238 157.301 142.201 159.189 144.851 159.24C145.698 159.257 146.546 159.24 147.399 159.24H147.393ZM122.835 96.2526C123.916 96.2526 124.769 96.264 125.622 96.2526C128.204 96.2185 130.223 94.3474 130.303 91.9189C130.399 88.8989 128.642 86.7662 125.815 86.6183C124.069 86.5273 122.312 86.5387 120.566 86.6183C118.16 86.7207 116.204 88.5747 115.845 90.9691C115.538 93.0222 116.971 95.263 119.127 96.0422C120.412 96.5086 121.755 96.1446 122.835 96.2583V96.2526ZM45.328 127.743C46.4086 127.743 47.2617 127.755 48.1148 127.743C50.7879 127.698 52.7671 125.821 52.8239 123.279C52.8922 120.356 51.1234 118.257 48.348 118.109C46.602 118.018 44.8446 118.035 43.0986 118.109C40.6644 118.211 38.7648 119.997 38.3724 122.426C38.0426 124.473 39.4587 126.708 41.6256 127.516C42.9109 127.994 44.2531 127.624 45.3337 127.743H45.328ZM69.8519 127.749C70.6538 127.749 71.4614 127.755 72.2633 127.749C75.0216 127.721 77.1487 125.645 77.1771 122.955C77.2056 120.458 75.0046 118.206 72.3657 118.109C70.6651 118.047 68.9589 118.035 67.2584 118.109C64.9778 118.211 62.4356 120.02 62.6744 123.33C62.8564 125.832 64.7787 127.721 67.4347 127.749C68.2366 127.755 69.0443 127.749 69.8462 127.749H69.8519ZM123.165 127.749C123.967 127.749 124.775 127.755 125.576 127.749C128.164 127.721 130.126 125.855 130.32 123.461C130.593 120.037 128.147 118.285 125.872 118.126C124.086 118.001 122.278 118.024 120.486 118.12C117.916 118.257 115.794 120.543 115.828 122.972C115.868 125.662 117.99 127.721 120.759 127.749C121.561 127.755 122.369 127.749 123.171 127.749H123.165ZM98.9312 96.2526C99.6876 96.2526 100.444 96.2526 101.2 96.2526C104.044 96.2299 106.086 94.3588 106.148 91.7198C106.217 88.8989 104.255 86.7434 101.388 86.6126C99.7388 86.5387 98.0781 86.533 96.4231 86.6126C93.5681 86.7491 91.6002 88.916 91.6742 91.7312C91.7424 94.3474 93.8126 96.2299 96.662 96.2526C97.4184 96.2583 98.1748 96.2526 98.9312 96.2526Z" fill="white"/>
<path d="M166.605 67.2927C149.782 67.2927 132.959 67.2756 116.136 67.2756C86.226 67.2756 56.3106 67.287 26.4008 67.2927C26.2188 63.5276 26.088 59.7512 26.4463 56.0033C26.8501 51.7492 30.8654 48.1263 35.1878 47.9728C38.6684 47.8476 42.1604 47.9102 45.6468 47.8931C45.6638 49.4458 45.6752 51.0041 45.6866 52.5568C45.7093 55.3891 47.7852 57.5844 50.4753 57.6128C53.0403 57.6412 55.247 55.4402 55.3323 52.7103C55.3835 51.1122 55.3665 49.5083 55.3778 47.9045C84.4003 47.9045 113.423 47.9045 142.445 47.9045C142.457 49.5538 142.423 51.2089 142.497 52.8525C142.616 55.4801 144.885 57.6583 147.371 57.6128C150.055 57.5616 152.108 55.4459 152.142 52.6933C152.159 51.0894 152.176 49.4856 152.188 47.8875C153.974 47.9045 155.765 47.8818 157.551 47.95C162.419 48.1377 166.412 51.9823 166.639 56.8564C166.799 60.3314 166.816 63.812 166.599 67.2927H166.605Z" fill="#4465E2"/>
<path d="M55.3834 47.9051C55.372 49.5089 55.3891 51.1128 55.3379 52.7109C55.2469 55.4408 53.0402 57.6475 50.4809 57.6134C47.7908 57.5793 45.7149 55.3896 45.6922 52.5574C45.6808 51.0047 45.6637 49.4464 45.6523 47.8937C45.6637 46.2444 45.6523 44.5951 45.6922 42.9457C45.7604 40.2613 47.7169 38.3219 50.3615 38.2764C53.08 38.2309 55.19 40.1191 55.3265 42.8206C55.4118 44.5155 55.372 46.216 55.3891 47.9108L55.3834 47.9051Z" fill="#F8DFA0"/>
<path d="M152.188 47.8876C152.171 49.4914 152.159 51.0952 152.142 52.6934C152.114 55.446 150.061 57.5617 147.371 57.6129C144.885 57.6584 142.622 55.4802 142.497 52.8526C142.423 51.2033 142.457 49.5539 142.445 47.9046C142.462 46.352 142.462 44.7936 142.491 43.241C142.542 40.3063 144.533 38.276 147.336 38.2703C150.18 38.2703 152.114 40.2495 152.154 43.2239C152.176 44.7766 152.171 46.3349 152.182 47.8876H152.188Z" fill="#F8DFA0"/>
<path d="M45.7316 101.161C44.8444 101.144 44.2131 100.78 43.6557 100.217C41.4206 97.9705 39.1684 95.7468 36.9447 93.4946C35.7731 92.306 35.6821 90.8443 36.6546 89.8433C37.6727 88.7912 39.1684 88.8594 40.414 90.0708C41.8017 91.4187 43.2008 92.7666 44.5202 94.1885C45.2311 94.9506 45.6179 95.1041 46.4027 94.1657C50.2189 89.5931 54.1261 85.1001 58.0049 80.59C59.0229 79.4071 60.2969 79.1284 61.3889 79.8109C62.3955 80.4422 62.8107 81.6763 62.3443 82.7853C62.2022 83.1266 61.9747 83.4451 61.7301 83.7294C57.0892 89.1495 52.4427 94.5638 47.8018 99.9782C47.2274 100.644 46.5904 101.178 45.7316 101.167V101.161Z" fill="#EA508E"/>
<path d="M113.429 110.915C113.349 111.728 112.997 112.325 112.525 112.877C107.906 118.257 103.305 123.649 98.6759 129.017C97.2768 130.644 95.9573 130.684 94.4559 129.199C92.2378 127.004 90.0311 124.797 87.8415 122.579C86.6244 121.345 86.5164 120.009 87.5003 118.945C88.5524 117.808 89.906 117.836 91.2312 119.099C92.6701 120.469 94.1033 121.846 95.4341 123.319C96.2019 124.166 96.6 124.001 97.2597 123.216C101.07 118.701 104.932 114.23 108.771 109.743C109.482 108.907 110.289 108.27 111.455 108.543C112.451 108.776 113.122 109.396 113.338 110.437C113.378 110.619 113.412 110.807 113.435 110.92L113.429 110.915Z" fill="#EA508E"/>
<path d="M45.374 159.24C43.8555 159.132 42.0867 159.581 40.4999 158.449C38.7824 157.227 38.0203 155.276 38.5776 153.132C39.0838 151.192 40.8469 149.674 42.8545 149.6C44.6915 149.532 46.5399 149.503 48.3712 149.606C51.1865 149.765 52.9268 151.915 52.813 154.923C52.722 157.329 50.703 159.189 48.1153 159.234C47.2679 159.251 46.4148 159.234 45.374 159.234V159.24Z" fill="#FFBFD9"/>
<path d="M98.6464 159.24C97.3497 159.092 95.7857 159.547 94.3013 158.733C92.4017 157.693 91.3154 155.611 91.7306 153.547C92.1628 151.402 93.9885 149.702 96.144 149.605C97.981 149.52 99.8237 149.514 101.661 149.605C104.345 149.736 106.256 151.988 106.159 154.764C106.068 157.272 104.038 159.194 101.433 159.234C100.586 159.245 99.7327 159.234 98.6578 159.234L98.6464 159.24Z" fill="#FFBFD9"/>
<path d="M74.5954 96.2525C73.839 96.2525 73.0883 96.2582 72.3319 96.2525C69.6588 96.2297 67.6171 94.3813 67.5375 91.913C67.4351 88.9101 69.1868 86.7717 72.0077 86.6181C73.7935 86.5214 75.5964 86.5157 77.3822 86.6181C80.0382 86.7774 82.1596 89.1945 82.0174 91.7481C81.8696 94.4041 79.8449 96.224 77.0069 96.2468C76.205 96.2525 75.4031 96.2468 74.6011 96.2468L74.5954 96.2525Z" fill="#FFBFD9"/>
<path d="M147.274 96.2531C146.472 96.2531 145.67 96.2587 144.868 96.2531C142.297 96.2189 140.273 94.3535 140.187 91.9421C140.079 88.9335 141.814 86.7893 144.629 86.6244C146.415 86.522 148.218 86.522 150.004 86.6244C152.665 86.7723 154.792 89.1666 154.667 91.7316C154.537 94.3933 152.512 96.236 149.68 96.2587C148.878 96.2644 148.076 96.2587 147.274 96.2587V96.2531Z" fill="#FFBFD9"/>
<path d="M147.268 127.749C146.512 127.749 145.761 127.755 145.005 127.749C142.542 127.726 140.432 126.02 140.199 123.859C139.88 120.896 141.274 118.644 144.072 118.228C146.336 117.893 148.685 117.825 150.954 118.319C153.268 118.826 154.918 121.226 154.645 123.483C154.355 125.912 152.307 127.715 149.811 127.749C148.963 127.76 148.116 127.749 147.263 127.749H147.268Z" fill="#FFBFD9"/>
<path d="M69.8967 159.24C69.0948 159.24 68.2872 159.251 67.4853 159.24C64.7098 159.2 62.7477 157.335 62.7022 154.707C62.651 151.75 64.5051 149.691 67.3658 149.6C69.1118 149.543 70.8692 149.537 72.6152 149.6C75.0892 149.696 77.2618 152.085 77.1765 154.519C77.0912 157.084 74.9812 159.194 72.4446 159.24C71.5915 159.257 70.7441 159.24 69.891 159.24H69.8967Z" fill="#FFBFD9"/>
<path d="M123.109 159.24C122.261 159.24 121.414 159.251 120.561 159.24C117.973 159.194 115.823 156.999 115.817 154.417C115.817 151.954 117.973 149.679 120.458 149.6C122.199 149.543 123.95 149.537 125.691 149.6C128.534 149.708 130.354 151.778 130.297 154.741C130.246 157.34 128.267 159.206 125.509 159.245C124.707 159.257 123.905 159.245 123.103 159.245L123.109 159.24Z" fill="#FFBFD9"/>
<path d="M147.393 159.24C146.545 159.24 145.698 159.257 144.845 159.24C142.189 159.189 140.232 157.301 140.181 154.759C140.119 151.852 141.887 149.754 144.652 149.612C146.483 149.515 148.331 149.526 150.163 149.612C152.614 149.725 154.769 152.159 154.656 154.565C154.536 157.17 152.494 159.195 149.935 159.24C149.088 159.257 148.24 159.24 147.387 159.24H147.393Z" fill="#FFBFD9"/>
<path d="M122.836 96.2528C121.755 96.1334 120.407 96.4974 119.127 96.0367C116.972 95.2575 115.544 93.0167 115.846 90.9636C116.204 88.5749 118.155 86.7208 120.566 86.6128C122.312 86.5388 124.07 86.5275 125.816 86.6128C128.642 86.7606 130.4 88.8934 130.303 91.9134C130.223 94.3419 128.204 96.213 125.622 96.2471C124.769 96.2585 123.922 96.2471 122.836 96.2471V96.2528Z" fill="#FFBFD9"/>
<path d="M45.3289 127.743C44.2483 127.618 42.9061 127.994 41.6207 127.516C39.4538 126.708 38.0434 124.473 38.3676 122.426C38.76 119.992 40.6596 118.206 43.0937 118.109C44.8398 118.035 46.5971 118.024 48.3432 118.109C51.1186 118.257 52.8873 120.35 52.8191 123.279C52.7622 125.821 50.783 127.698 48.11 127.743C47.2569 127.761 46.4095 127.743 45.3232 127.743H45.3289Z" fill="#FFBFD9"/>
<path d="M69.8524 127.749C69.0505 127.749 68.2429 127.755 67.441 127.749C64.7793 127.721 62.8627 125.832 62.6807 123.33C62.4418 120.02 64.984 118.217 67.2647 118.109C68.9652 118.029 70.6714 118.041 72.3719 118.109C75.0108 118.206 77.2118 120.464 77.1834 122.955C77.155 125.639 75.0279 127.721 72.2695 127.749C71.4676 127.76 70.66 127.749 69.8581 127.749H69.8524Z" fill="#FFBFD9"/>
<path d="M123.165 127.75C122.363 127.75 121.556 127.755 120.754 127.75C117.99 127.721 115.868 125.662 115.823 122.972C115.783 120.544 117.91 118.257 120.481 118.121C122.272 118.024 124.081 118.002 125.867 118.127C128.142 118.286 130.593 120.038 130.314 123.461C130.121 125.856 128.159 127.721 125.571 127.75C124.769 127.761 123.961 127.75 123.159 127.75H123.165Z" fill="#FFBFD9"/>
<path d="M98.9309 96.2527C98.1745 96.2527 97.4181 96.2527 96.6617 96.2527C93.8123 96.23 91.7421 94.3532 91.6739 91.7313C91.6 88.9161 93.5678 86.7492 96.4228 86.6127C98.0721 86.5331 99.7329 86.5331 101.388 86.6127C104.254 86.7435 106.222 88.899 106.148 91.7199C106.08 94.3589 104.044 96.23 101.2 96.2527C100.444 96.2584 99.6874 96.2527 98.9309 96.2527Z" fill="#FFBFD9"/>
<path d="M138.688 151.668C139.341 150.807 139.995 149.946 140.648 149.085C144.622 145.041 149.372 142.705 155.106 142.672C163.758 142.62 171.356 148.289 173.931 156.638C176.397 164.643 173.245 173.528 166.224 178.362C165.738 178.692 165.272 179.055 164.8 179.398C163.603 179.941 162.412 180.479 161.215 181.022C159.202 181.32 157.222 181.876 155.164 181.818C146.68 181.482 140.694 177.405 137.089 169.755C135.646 165.86 135.206 161.88 136.112 157.79C136.61 155.602 137.542 153.59 138.688 151.674V151.668ZM167.039 157.893C166.903 156.735 166.483 155.725 165.324 155.195C164.056 154.612 162.897 154.845 161.92 155.809C159.468 158.223 157.008 160.631 154.627 163.116C153.876 163.899 153.43 163.86 152.75 163.09C151.902 162.126 150.971 161.219 150.013 160.359C148.583 159.084 146.881 159.11 145.696 160.352C144.551 161.55 144.512 163.219 145.774 164.546C147.625 166.494 149.521 168.403 151.482 170.241C152.996 171.658 154.536 171.574 156.031 170.098C159.358 166.811 162.645 163.485 165.965 160.191C166.612 159.55 166.968 158.812 167.046 157.9L167.039 157.893Z" fill="#4465E2"/>
<path d="M167.038 157.894C166.96 158.806 166.598 159.544 165.957 160.185C162.638 163.479 159.35 166.805 156.024 170.092C154.529 171.568 152.989 171.652 151.474 170.235C149.513 168.397 147.617 166.488 145.766 164.54C144.511 163.213 144.543 161.544 145.689 160.346C146.879 159.104 148.575 159.078 150.005 160.353C150.963 161.214 151.895 162.12 152.743 163.084C153.422 163.86 153.869 163.893 154.619 163.11C157.001 160.625 159.46 158.217 161.913 155.803C162.89 154.839 164.048 154.613 165.317 155.189C166.475 155.719 166.902 156.722 167.032 157.887L167.038 157.894Z" fill="#FBFDFD"/>
<path d="M34.8081 189.853C36.792 189.863 38.2609 191.363 38.2508 193.372C38.2407 195.315 36.6506 196.905 34.7476 196.88C32.8647 196.855 31.2393 195.204 31.2393 193.316C31.2393 191.438 32.8798 189.843 34.8081 189.853Z" fill="#E6A83B"/>
<path d="M195.426 142.672C197.41 142.682 198.879 144.181 198.869 146.19C198.859 148.134 197.269 149.724 195.366 149.699C193.483 149.673 191.857 148.023 191.857 146.135C191.857 144.257 193.498 142.662 195.426 142.672Z" fill="#F8DFA0"/>
<path d="M17.1734 23.2124C19.3021 23.2124 21.2231 25.1507 21.1885 27.2678C21.1538 29.3618 19.3194 31.2078 17.2369 31.2424C14.941 31.2886 13.1584 29.506 13.17 27.187C13.1815 24.943 14.9237 23.2124 17.1734 23.2124Z" fill="#E05827"/>
<path d="M159.292 0.123584C161.309 0.133694 162.755 1.63007 162.729 3.67241C162.704 5.56815 161.147 7.13529 159.277 7.15046C157.396 7.16563 155.723 5.49232 155.718 3.59658C155.713 1.68062 157.325 0.113473 159.292 0.123584Z" fill="#FFBFD9"/>
</svg>
