<svg width="84" height="84" viewBox="0 0 84 84" fill="none" xmlns="http://www.w3.org/2000/svg">
<path d="M5 35.1832H8.08327C7.44255 34.5425 6.89976 33.9633 6.3178 33.4261C6.00164 33.1351 5.95408 32.9365 6.30661 32.6371C6.77666 32.237 7.20193 31.4536 7.6496 31.4508C8.09446 31.4452 8.55331 32.1978 8.98698 32.6371C9.23599 32.8889 9.44584 33.1771 9.67526 33.4513L9.87671 33.3562C9.87671 32.5392 9.89909 31.7222 9.86832 30.908C9.85153 30.4715 9.99142 30.3428 10.4335 30.3345C12.3221 30.3009 12.3221 30.2869 12.3221 32.1531C12.3221 32.5504 12.3221 32.9477 12.3221 33.345C12.3892 33.3925 12.4536 33.4373 12.5207 33.4849C13.0775 32.8777 13.6455 32.2846 14.1827 31.6634C14.4624 31.3417 14.6387 31.3165 14.9689 31.6411C16.3314 32.9813 16.3482 32.9701 15.0052 34.3046C14.7422 34.5677 14.4512 34.8027 14.1743 35.0517C14.2078 35.1132 14.2414 35.1748 14.275 35.2363C15.0724 35.2363 15.8726 35.2559 16.67 35.228C17.1064 35.2112 17.2351 35.3623 17.2463 35.7987C17.2939 37.7209 17.3079 37.7209 15.3801 37.7209H14.2694C14.2414 37.7768 14.2162 37.8356 14.1882 37.8915C14.7814 38.4651 15.3662 39.0471 15.9705 39.6066C16.2419 39.8584 16.2307 40.0263 15.9761 40.3005C14.6443 41.747 14.6471 41.761 13.2789 40.3705C13.0187 40.1075 12.8285 39.7801 12.6046 39.4807C12.5011 39.5423 12.3948 39.6038 12.2913 39.6654C12.2913 40.6558 12.2913 41.6435 12.2913 42.6339C11.4967 42.6339 10.6993 42.6312 9.90469 42.6284V39.4108C9.17164 40.1438 8.5617 40.7258 7.98814 41.3385C7.72794 41.6183 7.55447 41.6071 7.31944 41.3273C6.91095 40.8377 6.10796 40.4824 6.09397 39.9228C6.08278 39.4024 6.86339 39.0275 7.28587 38.5798C7.5097 38.342 7.7755 38.1405 7.94057 37.7712H5V35.1944V35.1832Z" fill="#8AB243"/>
<path d="M20.8919 57.2526C20.8919 45.1518 20.8947 33.0509 20.8947 20.9501C20.8947 20.8298 20.8835 20.7123 20.8779 20.592C24.1291 20.5836 27.3802 20.578 30.6314 20.5696C30.6314 31.9821 30.6341 43.3947 30.6369 54.8073C30.6425 56.4245 30.6453 58.0416 30.6509 59.6588L30.6341 59.6756C27.3942 59.6756 24.1543 59.6756 20.9143 59.6728C20.9059 58.867 20.9003 58.0584 20.8919 57.2526ZM24.49 38.8174C24.49 39.0804 24.4928 39.3434 24.49 39.6036C24.476 40.429 25.1279 40.2387 25.5112 40.1576C26.0344 40.0484 27.0081 40.7171 27.0221 39.6064C27.0557 37.2422 27.439 37.6786 25.0552 37.6255C24.6691 37.6171 24.4732 37.7738 24.4872 38.1711C24.4956 38.3865 24.4872 38.5991 24.4872 38.8146L24.49 38.8174ZM25.7462 35.3144C27.148 35.3088 27.0501 35.4515 27.0473 34.075C27.0445 32.6285 27.1844 32.7572 25.7546 32.7544C24.9097 32.7544 24.4872 33.1796 24.4872 34.0302C24.4872 35.4179 24.3613 35.3144 25.7434 35.3144H25.7462ZM25.8022 47.4964C24.9274 47.4964 24.49 47.9161 24.49 48.7555C24.49 49.9362 24.49 49.9446 25.8078 49.9334C27.2319 49.9222 27.0445 50.1292 27.0445 48.7527C27.0445 47.3006 27.2487 47.5216 25.8022 47.4992V47.4964ZM25.7658 52.3675C25.6231 52.3675 25.4776 52.3871 25.3378 52.3647C24.6383 52.25 24.4536 52.5494 24.4732 53.2321C24.5208 54.8045 24.4872 54.8073 26.0568 54.8045C27.1564 54.8017 27.0389 54.9136 27.0473 53.8C27.0473 53.7525 27.0473 53.7049 27.0473 53.6573C27.0473 52.7993 26.6201 52.3703 25.7658 52.3703V52.3675ZM25.7295 25.4491C27.0473 25.4491 27.0557 25.4491 27.0445 24.1956C27.0333 22.8163 27.2319 23.0261 25.805 23.0121C24.4872 23.0009 24.4788 23.0121 24.4872 24.26C24.4984 25.6365 24.3081 25.4267 25.7267 25.4463L25.7295 25.4491ZM25.8218 42.6225C24.9321 42.6225 24.4872 43.0077 24.4872 43.778C24.4872 45.2105 24.3809 45.065 25.8078 45.0567C27.2459 45.0483 27.0389 45.2581 27.0417 43.8144C27.0417 42.4406 27.2235 42.6421 25.8218 42.6225ZM25.7518 30.3202C27.2151 30.2978 27.0361 30.5133 27.0445 29.1983C27.0529 27.8832 27.0445 27.8832 25.6623 27.8832C24.8789 27.8832 24.4872 28.2638 24.4872 29.0248C24.4872 29.8884 24.9087 30.3202 25.7518 30.3202Z" fill="#F8DFA0"/>
<path d="M62.4489 20.592C62.4433 22.8834 62.4321 25.1749 62.4321 27.4664C62.4321 37.396 62.4349 47.3257 62.4377 57.2526C62.4293 58.0584 62.4237 58.867 62.4153 59.6728C59.1754 59.6728 55.9354 59.6728 52.6955 59.6756L52.6787 59.6588C52.6843 58.0416 52.6871 56.4245 52.6927 54.8073C52.6927 43.3947 52.6955 31.9821 52.6983 20.5696C55.9494 20.578 59.2006 20.5836 62.4517 20.592H62.4489ZM58.8396 38.9265C58.8341 37.5331 58.9767 37.6255 57.5946 37.6283C56.1453 37.6283 56.2824 37.4996 56.2796 38.9265C56.2796 40.3114 56.1705 40.1883 57.5582 40.1883C58.9404 40.1883 58.8396 40.3198 58.8369 38.9265H58.8396ZM56.2824 34.0218C56.2852 35.4459 56.1537 35.3088 57.603 35.3144C57.7709 35.3144 57.9387 35.2976 58.1038 35.3172C58.6606 35.3788 58.9096 35.1493 58.8452 34.5842C58.8229 34.3967 58.8424 34.2037 58.8424 34.0134C58.8424 32.6229 58.9404 32.7572 57.5582 32.7572C56.1705 32.7572 56.2852 32.6368 56.2852 34.0218H56.2824ZM57.5442 49.9334C57.6869 49.9334 57.8324 49.9138 57.9723 49.9362C58.6466 50.0425 58.9628 49.7963 58.8424 49.0912C58.8257 48.9989 58.8424 48.9009 58.8424 48.8058C58.8424 47.4964 58.8424 47.488 57.5107 47.4992C56.0977 47.5104 56.2992 47.3117 56.2852 48.6995C56.274 49.9362 56.2852 49.9362 57.5442 49.9362V49.9334ZM57.4995 54.8045C57.7149 54.8045 57.9331 54.7793 58.143 54.8101C58.7361 54.8996 58.918 54.6198 58.8424 54.077C58.8257 53.9595 58.8424 53.8392 58.8424 53.7189C58.8424 52.818 58.3892 52.3675 57.4827 52.3675C56.2852 52.3675 56.2768 52.3675 56.288 53.5958C56.2992 54.9975 56.0949 54.7821 57.5023 54.8045H57.4995ZM57.631 23.0093C56.73 23.0093 56.2796 23.415 56.2796 24.2264C56.2796 25.0378 56.7058 25.4444 57.5582 25.4463C58.8368 25.4463 58.8452 25.4463 58.8341 24.2264C58.8229 22.8135 59.0243 23.0317 57.6282 23.0093H57.631ZM57.6114 42.6225C57.4211 42.6225 57.2281 42.6449 57.0434 42.6197C56.4698 42.5442 56.26 42.74 56.2684 43.3555C56.2964 45.0706 56.2684 45.0706 57.9891 45.0623C58.0842 45.0623 58.1793 45.0567 58.2745 45.0623C58.6578 45.0874 58.8564 44.9224 58.8452 44.5251C58.8369 44.3124 58.8452 44.097 58.8452 43.8843C58.8257 42.4294 59.0383 42.6449 57.617 42.6253L57.6114 42.6225ZM57.5386 30.3202C57.7289 30.3202 57.9219 30.2978 58.1066 30.3258C58.7193 30.4153 58.8676 30.1355 58.8508 29.562C58.7949 27.6007 59.0943 27.914 57.2029 27.8832C57.1329 27.8832 57.0602 27.8916 56.9902 27.8832C56.4279 27.7965 56.1957 28.0287 56.2768 28.5939C56.2992 28.7562 56.2796 28.9269 56.2796 29.0919C56.2796 29.9126 56.6983 30.323 57.5358 30.323L57.5386 30.3202Z" fill="#F8DFA0"/>
<path d="M37.9733 71.9139C35.5335 72.0482 33.0937 71.9531 30.654 71.9615C30.6484 69.4881 30.6428 67.0176 30.6372 64.5443C30.6372 62.9215 30.6372 61.2987 30.6372 59.676L30.654 59.6592C37.9956 59.6592 45.3401 59.6592 52.6817 59.6592L52.6985 59.676C52.6985 61.2959 52.6985 62.9187 52.6985 64.5387C52.6929 67.012 52.6873 69.4853 52.6789 71.9587C50.2392 71.9503 47.7966 72.0454 45.3597 71.9111C45.3681 70.3611 45.4128 68.8111 45.3737 67.2638C45.3345 65.6662 44.344 64.6002 42.9171 64.5499C42.0833 64.5219 41.2468 64.5247 40.413 64.5499C39.2127 64.5863 38.2642 65.3976 38.0796 66.5644C37.797 68.3382 37.9844 70.1261 37.9705 71.9111L37.9733 71.9139Z" fill="#F8DFA0"/>
<path d="M62.418 59.6728C62.4264 58.867 62.432 58.0585 62.4404 57.2527C63.5539 57.2695 64.6731 57.1519 65.781 57.3534C67.7927 57.7199 69.4546 59.3623 69.6841 61.3572C69.7624 62.0315 69.989 62.2105 70.585 62.1266C70.7249 62.107 70.8676 62.107 71.0103 62.0986C71.8272 62.0762 72.6358 62.1518 73.4444 62.2609C75.2183 62.882 76.4829 64.0012 76.953 65.8813C77.1628 66.7235 77.0845 67.588 77.0929 68.4414C77.1013 69.3703 77.0593 70.302 77.1069 71.2309C77.1376 71.8129 76.9278 71.9472 76.3794 71.9444C71.9923 71.9248 67.6052 71.9332 63.2182 71.9332C62.9803 71.9332 62.7425 71.936 62.5019 71.9388C62.4823 71.6562 62.4459 71.3736 62.4459 71.091C62.432 68.9114 62.4264 66.7291 62.418 64.5495C62.418 62.924 62.418 61.2984 62.418 59.6756V59.6728ZM67.3702 68.2679C66.0776 68.2847 66.1503 68.0973 66.1587 69.1856C66.1727 70.8728 65.9517 70.7021 67.1268 70.6993C68.7608 70.6937 68.5789 70.9119 68.5901 69.6809C68.6013 68.2707 68.5929 68.2707 67.373 68.2707L67.3702 68.2679ZM73.4612 69.4906C73.4444 68.1616 73.6319 68.2651 72.4792 68.2707C70.8788 68.2819 71.0271 68.0665 71.0299 69.2304C71.0354 70.8728 70.8172 70.6881 72.0427 70.6993C73.4612 70.7105 73.4612 70.7021 73.4612 69.4906Z" fill="#89B140"/>
<path d="M20.8921 57.253C20.9005 58.0588 20.9061 58.8674 20.9145 59.6732C20.9145 61.2988 20.9173 62.9243 20.9201 64.5499C20.9089 65.1878 20.9033 65.8285 20.8893 66.4665C20.8529 68.2879 20.9648 70.1121 20.8306 71.9335C16.2336 71.9195 11.6395 71.8944 7.04258 71.9111C6.36549 71.9139 6.20322 71.7069 6.2256 71.069C6.27316 69.712 6.20601 68.3522 6.25358 66.9981C6.33472 64.6814 7.51822 63.1286 9.70896 62.3648C9.77332 62.3424 9.82927 62.292 9.88803 62.2528C10.6966 62.1437 11.5052 62.071 12.3222 62.0906C12.5124 62.099 12.7027 62.0934 12.8902 62.1185C13.377 62.1829 13.5728 62.0458 13.626 61.489C13.8554 59.1332 15.9007 57.337 18.3964 57.2446C19.2274 57.2139 20.0583 57.2446 20.8893 57.2446L20.8921 57.253ZM12.3054 69.5162C12.283 68.078 12.5013 68.2739 11.0631 68.2739C9.68658 68.2739 9.87404 68.0864 9.87404 69.491C9.87404 70.8871 9.68658 70.6997 11.0743 70.6997C12.4845 70.6997 12.283 70.8871 12.3026 69.5162H12.3054ZM17.1737 69.491C17.1569 68.1592 17.3416 68.2655 16.1945 68.2711C14.5941 68.2823 14.7396 68.0668 14.7452 69.2308C14.7507 70.8731 14.5325 70.6913 15.7552 70.6997C17.1737 70.7108 17.1737 70.7025 17.1737 69.491Z" fill="#89B140"/>
<path d="M71.0384 42.6255V39.6569C70.9629 39.6262 70.8901 39.5926 70.8146 39.5618C70.241 40.1494 69.6535 40.7257 69.1023 41.3329C68.8421 41.6183 68.6686 41.6043 68.4252 41.3273C68.109 40.972 67.7761 40.6222 67.4151 40.3144C67.0514 40.0067 67.141 39.794 67.4487 39.5171C68.0279 38.9938 68.5819 38.4427 69.147 37.9027C69.1219 37.8383 69.0967 37.7768 69.0715 37.7124C68.3021 37.7124 67.5327 37.69 66.766 37.7208C66.2988 37.7404 66.0917 37.6369 66.089 37.1025C66.075 35.2279 66.0554 35.2279 67.9356 35.2279H69.0575C69.1023 35.1635 69.147 35.0964 69.1918 35.032C68.607 34.4893 68.0335 33.9325 67.4319 33.4093C67.0934 33.1155 67.099 32.8945 67.4347 32.6147C67.9076 32.2202 68.2629 31.4228 68.7889 31.4424C69.2338 31.4591 69.6563 32.1754 70.0759 32.5979C70.3417 32.8665 70.5824 33.1603 70.8342 33.4428L71.0132 33.3645C71.0132 32.5475 71.0328 31.7277 71.0048 30.9108C70.9908 30.4827 71.1195 30.34 71.5644 30.3316C73.4558 30.2952 73.4558 30.2784 73.4558 32.1474V33.5576C74.1552 32.8413 74.7288 32.2845 75.266 31.6942C75.5598 31.3696 75.778 31.2773 76.0886 31.6718C76.4635 32.153 77.2777 32.4916 77.2441 33.026C77.2161 33.482 76.5223 33.9073 76.097 34.3214C75.8452 34.5676 75.5458 34.7662 75.3192 35.0684C76.1501 35.3006 76.9252 35.2335 77.689 35.2223C78.1674 35.2139 78.3493 35.3174 78.3493 35.8462C78.3465 37.718 78.3689 37.718 76.5167 37.718C76.1445 37.718 75.7724 37.718 75.4031 37.718C75.3751 37.7712 75.3471 37.8243 75.322 37.8803C75.9095 38.4567 76.4859 39.0442 77.0902 39.601C77.37 39.8612 77.3616 40.0375 77.0818 40.2865C76.6034 40.7117 76.1977 41.4084 75.6661 41.5175C75.336 41.5875 74.8155 40.7929 74.3987 40.3676C74.1357 40.099 73.9062 39.794 73.6628 39.5059C73.5873 39.5366 73.5089 39.5702 73.4334 39.601C73.4334 40.6082 73.4334 41.6183 73.4334 42.6255C72.6388 42.6255 71.8414 42.6283 71.0468 42.6311L71.0384 42.6255Z" fill="#8AB143"/>
<path d="M62.4157 64.5497C62.4241 66.7292 62.4325 68.9116 62.4437 71.0911C62.4437 71.3737 62.4801 71.6563 62.4996 71.9389C60.6027 71.9556 58.7029 71.9808 56.8059 71.9864C55.4294 71.992 54.0528 71.9724 52.6763 71.9612C52.6819 69.4879 52.6875 67.0146 52.6959 64.5413C55.9358 64.5413 59.1758 64.5469 62.4157 64.5497Z" fill="#DADBD8"/>
<path d="M20.8306 71.9358C20.9649 70.1144 20.8529 68.2902 20.8893 66.4688C20.9005 65.8309 20.9089 65.1901 20.9201 64.5522C24.16 64.5522 27.3972 64.5466 30.6371 64.5466C30.6427 67.02 30.6483 69.4905 30.6539 71.9638C27.3804 71.9918 24.1041 72.0394 20.8306 71.9386V71.9358Z" fill="#DADBD8"/>
<path d="M37.9734 71.9134C37.9874 70.1311 37.7999 68.3433 38.0825 66.5667C38.2672 65.3999 39.2157 64.5885 40.4159 64.5522C41.2497 64.527 42.0863 64.5242 42.92 64.5522C44.347 64.5997 45.3374 65.6657 45.3766 67.2661C45.4158 68.8134 45.371 70.3634 45.3626 71.9134C42.9005 72.0029 40.4383 72.0029 37.979 71.9134H37.9734Z" fill="#F3CA63"/>
<path d="M71.0385 42.6255C71.8331 42.6255 72.6305 42.6227 73.425 42.6199C73.4334 45.1659 73.4502 47.7148 73.4502 50.2609C73.4502 54.2591 73.4446 58.26 73.439 62.2582C72.6305 62.1491 71.8219 62.0763 71.0049 62.0959C71.0049 55.8902 71.0077 49.6873 71.0105 43.4816C71.0105 43.1962 71.0273 42.9109 71.0357 42.6227L71.0385 42.6255Z" fill="#AAC16C"/>
<path d="M12.3219 62.0989C11.5049 62.0765 10.6963 62.152 9.8877 62.2611C9.89329 55.7141 9.89889 49.1698 9.90448 42.6228C10.6991 42.6228 11.4965 42.6256 12.2911 42.6284C12.2995 46.0642 12.3107 49.5 12.3163 52.9358C12.3219 55.9911 12.3219 59.0464 12.3219 62.0989Z" fill="#AAC16C"/>
<path d="M20.8922 18.1216C24.1377 18.13 27.3805 18.1356 30.626 18.144C30.626 18.9526 30.6316 19.7639 30.6344 20.5725C27.3833 20.5809 24.1321 20.5865 20.881 20.5949C19.068 20.5893 17.2549 20.5669 15.4447 20.5921C14.9299 20.5977 14.7396 20.4886 14.7452 19.9262C14.7592 18.1412 14.734 18.144 16.5303 18.1412C17.9852 18.1412 19.4401 18.13 20.895 18.1244L20.8922 18.1216Z" fill="#F3C962"/>
<path d="M52.7037 18.1412C55.9493 18.1356 59.192 18.1272 62.4375 18.1216C64.273 18.1272 66.1112 18.1524 67.9466 18.1272C68.4586 18.1216 68.5845 18.2867 68.5845 18.7791C68.5845 20.5781 68.6013 20.5753 66.8134 20.5781C65.3585 20.5781 63.9036 20.5865 62.4487 20.5921C59.1976 20.5837 55.9465 20.5781 52.6953 20.5697C52.6953 19.7611 52.7009 18.9498 52.7037 18.1412Z" fill="#F3C962"/>
<path d="M52.7038 18.1414C52.7038 18.9499 52.6982 19.7613 52.6954 20.5699C52.6954 31.9825 52.6926 43.3951 52.6898 54.8076C45.337 54.8076 37.9869 54.8076 30.6341 54.8076C30.6341 43.3951 30.6313 31.9825 30.6285 20.5699C30.6285 19.7613 30.6229 18.9499 30.6201 18.1414C30.6285 16.1045 30.6369 14.0676 30.6453 12.0308C31.051 12.0196 31.4539 12 31.8596 12C38.5129 12 45.1663 12 51.8197 12C52.1051 12 52.3904 12.0196 52.6758 12.0308C52.6842 14.0676 52.6926 16.1045 52.701 18.1414H52.7038ZM41.6746 20.5671C43.0763 20.5671 44.4808 20.5559 45.8826 20.5839C46.3554 20.5923 46.5653 20.486 46.5485 19.96C46.5121 18.7485 46.5121 17.5342 46.5485 16.3227C46.5625 15.7967 46.3554 15.6876 45.8826 15.6988C44.4808 15.7268 43.0763 15.7128 41.6746 15.7156C40.27 15.7156 38.8655 15.724 37.4609 15.6988C36.9965 15.6904 36.7671 15.7855 36.7839 16.3199C36.8174 17.5342 36.8174 18.7485 36.7839 19.9628C36.7699 20.4972 36.9965 20.5923 37.4609 20.5839C38.8655 20.5587 40.27 20.5699 41.6746 20.5671ZM41.6634 30.3233C43.0679 30.3233 44.4696 30.2982 45.8714 30.3345C46.4198 30.3485 46.5625 30.1611 46.5457 29.6379C46.5121 28.4488 46.5121 27.2597 46.5457 26.0706C46.5597 25.5529 46.3666 25.427 45.8854 25.4382C44.4836 25.4662 43.0791 25.4522 41.6774 25.455C40.2448 25.4522 38.8151 25.455 37.3826 25.4354C36.9713 25.4298 36.7755 25.5306 36.7839 25.9922C36.8062 27.3044 36.8034 28.6166 36.7839 29.9288C36.7783 30.3401 36.9405 30.466 37.335 30.4604C38.6221 30.4436 39.9119 30.4548 41.2017 30.4548C41.3668 30.4548 41.5403 30.4716 41.6634 30.3233ZM41.6634 45.0598C41.557 45.015 41.4535 44.9311 41.3472 44.9311C39.9874 44.9227 38.6277 44.9367 37.2679 44.9171C36.8034 44.9115 36.7894 45.1773 36.7922 45.5186C36.7978 46.7833 36.8174 48.0479 36.7839 49.3126C36.7699 49.8386 36.9797 49.9533 37.4553 49.9449C38.8627 49.9169 40.27 49.9281 41.6774 49.9253C43.0567 49.9253 44.4361 49.9085 45.8154 49.9449C46.3554 49.9589 46.5764 49.8302 46.5513 49.2398C46.5037 48.0759 46.5149 46.9092 46.5485 45.7453C46.5653 45.2249 46.4226 45.0346 45.8742 45.0486C44.4724 45.085 43.0679 45.0626 41.6634 45.0626V45.0598ZM41.6829 40.1775C43.1099 40.1775 44.5396 40.1691 45.9665 40.1915C46.3974 40.1971 46.5513 40.06 46.5457 39.6207C46.5233 38.3365 46.5233 37.0495 46.5457 35.7652C46.5541 35.3288 46.4058 35.1833 45.9693 35.1889C44.5424 35.2112 43.1127 35.2 41.6857 35.2028C40.256 35.1973 38.8235 35.2028 37.3938 35.1749C36.9209 35.1637 36.7755 35.3288 36.7839 35.7932C36.809 37.0578 36.809 38.3197 36.7839 39.5843C36.7755 40.0432 36.9154 40.2167 37.391 40.2055C38.8207 40.1747 40.2532 40.1859 41.6829 40.1775Z" fill="#EFEFEF"/>
<path d="M30.6372 54.8076C37.99 54.8076 45.3401 54.8076 52.6929 54.8076C52.6873 56.4248 52.6845 58.042 52.6789 59.6591C45.3373 59.6591 37.9928 59.6591 30.6512 59.6591C30.6456 58.042 30.6428 56.4248 30.6372 54.8076Z" fill="#F3C962"/>
<path d="M30.6343 64.5442C27.3943 64.5442 24.1572 64.5498 20.9172 64.5498C20.9172 62.9242 20.9144 61.2987 20.9116 59.6731C24.1516 59.6731 27.3915 59.6731 30.6315 59.6759C30.6315 61.2987 30.6315 62.9214 30.6315 64.5442H30.6343Z" fill="#B8B8B8"/>
<path d="M24.4898 38.8175C24.4898 38.6021 24.4954 38.3867 24.4898 38.174C24.473 37.7739 24.6688 37.62 25.0577 37.6284C27.4415 37.6816 27.0582 37.2451 27.0246 39.6093C27.0079 40.7201 26.0342 40.0514 25.5138 40.1605C25.1277 40.2417 24.4786 40.4319 24.4926 39.6065C24.4982 39.3435 24.4926 39.0805 24.4926 38.8203L24.4898 38.8175Z" fill="#EFEEEC"/>
<path d="M25.7462 35.3145C24.3613 35.3145 24.49 35.4181 24.49 34.0303C24.49 33.1798 24.9125 32.7545 25.7574 32.7545C27.1871 32.7545 27.0472 32.6286 27.05 34.0751C27.0528 35.4516 27.1508 35.3089 25.749 35.3145H25.7462Z" fill="#EFEEEC"/>
<path d="M25.802 47.4967C27.2457 47.5191 27.0414 47.298 27.0442 48.7501C27.0442 50.1295 27.2317 49.9197 25.8075 49.9309C24.4897 49.942 24.4897 49.9309 24.4897 48.7529C24.4897 47.9136 24.9271 47.4939 25.802 47.4939V47.4967Z" fill="#EFEEEC"/>
<path d="M25.7657 52.3679C26.62 52.3679 27.0471 52.7969 27.0471 53.6549C27.0471 53.7025 27.0471 53.75 27.0471 53.7976C27.0387 54.9112 27.1562 54.7993 26.0567 54.802C24.4842 54.8076 24.5178 54.8021 24.4731 53.2296C24.4535 52.547 24.6381 52.2476 25.3376 52.3623C25.4775 52.3847 25.623 52.3651 25.7657 52.3651V52.3679Z" fill="#EFEEEC"/>
<path d="M25.7293 25.449C24.3108 25.4267 24.501 25.6393 24.4898 24.2627C24.4814 23.0121 24.4898 23.0037 25.8076 23.0149C27.2318 23.0261 27.0359 22.819 27.0471 24.1984C27.0583 25.4518 27.0471 25.4518 25.7321 25.4518L25.7293 25.449Z" fill="#EFEEEC"/>
<path d="M25.8217 42.6225C27.2263 42.6421 27.0444 42.4379 27.0416 43.8144C27.0416 45.2609 27.2459 45.0483 25.8077 45.0567C24.3808 45.0651 24.4871 45.2134 24.4871 43.7781C24.4871 43.0077 24.932 42.6225 25.8217 42.6225Z" fill="#EFEEEC"/>
<path d="M25.7519 30.3203C24.9089 30.3203 24.4873 29.8885 24.4873 29.0248C24.4873 28.2638 24.879 27.8833 25.6624 27.8833C27.0474 27.8833 27.053 27.8833 27.0446 29.1983C27.0362 30.5133 27.2152 30.2979 25.7519 30.3203Z" fill="#EFEEEC"/>
<path d="M62.4152 64.5494C59.1752 64.5494 55.9353 64.5439 52.6953 64.5411C52.6953 62.9211 52.6953 61.2983 52.6953 59.6783C55.9353 59.6783 59.1752 59.6783 62.4152 59.6755C62.4152 61.3011 62.4152 62.9267 62.4152 64.5494Z" fill="#B8B8B8"/>
<path d="M58.8398 38.9265C58.8398 40.3171 58.9406 40.1884 57.5612 40.1884C56.1735 40.1884 56.2798 40.3143 56.2826 38.9265C56.2826 37.4996 56.1483 37.6311 57.5976 37.6283C58.9797 37.6283 58.837 37.5332 58.8426 38.9265H58.8398Z" fill="#EFEEEC"/>
<path d="M56.2827 34.0218C56.2827 32.634 56.1707 32.7543 57.5557 32.7571C58.9378 32.7571 58.8427 32.6228 58.8399 34.0134C58.8399 34.2036 58.8231 34.3967 58.8427 34.5842C58.9071 35.1493 58.6581 35.3815 58.1013 35.3172C57.9362 35.2976 57.7683 35.3172 57.6005 35.3144C56.1512 35.3088 56.2827 35.4459 56.2799 34.0218H56.2827Z" fill="#EFEEEC"/>
<path d="M57.544 49.9337C56.2821 49.9337 56.2737 49.9337 56.2849 48.6971C56.2961 47.3093 56.0947 47.508 57.5104 47.4968C58.8422 47.4856 58.8422 47.4968 58.8422 48.8034C58.8422 48.8985 58.8282 48.9964 58.8422 49.0888C58.9597 49.7938 58.6435 50.0401 57.9721 49.9337C57.8322 49.9114 57.6867 49.9309 57.544 49.9309V49.9337Z" fill="#EFEEEC"/>
<path d="M57.4996 54.8046C56.0922 54.7822 56.2965 54.9977 56.2853 53.5959C56.2741 52.3677 56.2853 52.3677 57.48 52.3677C58.3865 52.3677 58.8398 52.8181 58.8398 53.7191C58.8398 53.8394 58.8258 53.9597 58.8398 54.0772C58.9125 54.6172 58.7334 54.897 58.1403 54.8102C57.9305 54.7794 57.7122 54.8046 57.4968 54.8046H57.4996Z" fill="#EFEEEC"/>
<path d="M57.6308 23.0098C59.027 23.0321 58.8255 22.8139 58.8367 24.2268C58.8479 25.4467 58.8367 25.4467 57.5609 25.4467C56.7084 25.4467 56.2822 25.0401 56.2822 24.2268C56.2822 23.4136 56.7327 23.0079 57.6336 23.0098H57.6308Z" fill="#EFEEEC"/>
<path d="M57.6115 42.6227C59.0328 42.645 58.8202 42.4296 58.8398 43.8817C58.8426 44.0944 58.8342 44.3098 58.8398 44.5224C58.8538 44.9225 58.6523 45.0848 58.269 45.0596C58.1739 45.054 58.0788 45.0596 57.9836 45.0596C56.2629 45.068 56.2909 45.068 56.2629 43.3529C56.2545 42.7402 56.4644 42.5415 57.0379 42.6171C57.2254 42.6422 57.4185 42.6199 57.6059 42.6199L57.6115 42.6227Z" fill="#EFEEEC"/>
<path d="M57.5384 30.3202C56.7009 30.3202 56.2822 29.9098 56.2822 29.0891C56.2822 28.9241 56.3018 28.7534 56.2794 28.5911C56.1983 28.0259 56.4305 27.7937 56.9929 27.8804C57.0628 27.8916 57.1355 27.8804 57.2055 27.8804C59.0969 27.9112 58.7975 27.5951 58.8534 29.5592C58.8702 30.1327 58.7219 30.4125 58.1092 30.323C57.9245 30.295 57.7287 30.3174 57.5412 30.3174L57.5384 30.3202Z" fill="#EFEEEC"/>
<path d="M67.3704 68.2679C68.5903 68.2679 68.5987 68.2679 68.5875 69.6781C68.5763 70.9119 68.7582 70.6937 67.1242 70.6965C65.9519 70.6993 66.1701 70.87 66.1561 69.1828C66.1477 68.0945 66.075 68.2847 67.3676 68.2651L67.3704 68.2679Z" fill="#79A63A"/>
<path d="M73.4616 69.4903C73.4616 70.7046 73.4616 70.713 72.0431 70.699C70.8176 70.6878 71.0359 70.8725 71.0303 69.2301C71.0247 68.0662 70.8792 68.2789 72.4796 68.2705C73.6323 68.2621 73.4421 68.1613 73.4616 69.4903Z" fill="#79A63A"/>
<path d="M12.3052 69.5156C12.2856 70.8866 12.4843 70.6991 11.0769 70.6991C9.68919 70.6991 9.87664 70.8866 9.87664 69.4904C9.87664 68.0859 9.69198 68.2705 11.0657 68.2733C12.5011 68.2733 12.2856 68.0775 12.308 69.5156H12.3052Z" fill="#79A63A"/>
<path d="M17.1737 69.4905C17.1737 70.7019 17.1737 70.7103 15.7551 70.6991C14.5297 70.6879 14.7507 70.8726 14.7451 69.2303C14.7395 68.0691 14.594 68.2818 16.1944 68.2706C17.3415 68.2622 17.1569 68.1587 17.1737 69.4905Z" fill="#79A63A"/>
<path d="M41.6859 35.2026C43.1128 35.2026 44.5425 35.211 45.9695 35.1886C46.4059 35.183 46.5514 35.3285 46.5458 35.765C46.5234 37.0492 46.5234 38.3363 46.5458 39.6205C46.5542 40.0597 46.4003 40.1996 45.9667 40.1912C44.5397 40.1689 43.11 40.1801 41.6831 40.1773C41.6831 38.5181 41.6831 36.8618 41.6859 35.2026Z" fill="#B8B8B8"/>
<path d="M41.6859 35.2024C41.6859 36.8616 41.6859 38.5207 41.6831 40.1771C40.2534 40.1827 38.8209 40.1743 37.3912 40.2023C36.9155 40.2135 36.7756 40.04 36.784 39.5811C36.8092 38.3165 36.8092 37.0546 36.784 35.79C36.7756 35.3256 36.9211 35.1605 37.394 35.1717C38.8237 35.2024 40.2534 35.1941 41.6859 35.1997V35.2024Z" fill="#DADADA"/>
<path d="M41.6774 49.9224C40.27 49.9252 38.8627 49.914 37.4553 49.9419C36.9797 49.9503 36.7699 49.8384 36.7839 49.3096C36.8174 48.045 36.7978 46.7803 36.7923 45.5157C36.7923 45.1771 36.8062 44.9086 37.2679 44.9141C38.6277 44.9309 39.9874 44.9169 41.3472 44.9281C41.4535 44.9281 41.557 45.0121 41.6634 45.0568C41.669 46.6796 41.6718 48.2996 41.6774 49.9224Z" fill="#DADADA"/>
<path d="M41.6635 30.3232C41.5403 30.4743 41.3669 30.4547 41.2018 30.4547C39.912 30.4547 38.625 30.4435 37.3351 30.4603C36.9434 30.4659 36.7812 30.34 36.784 29.9287C36.8007 28.6165 36.8063 27.3043 36.784 25.992C36.7756 25.5332 36.9714 25.4297 37.3827 25.4353C38.8152 25.4549 40.2449 25.4493 41.6774 25.4549C41.6719 27.0776 41.6691 28.7004 41.6635 30.3232Z" fill="#DADADA"/>
<path d="M41.6748 15.7128C43.0765 15.7128 44.4811 15.724 45.8828 15.696C46.3557 15.6876 46.5655 15.7939 46.5487 16.3199C46.5123 17.5314 46.5123 18.7457 46.5487 19.9572C46.5627 20.4832 46.3557 20.5923 45.8828 20.5811C44.4811 20.5531 43.0765 20.5671 41.6748 20.5643C41.6748 18.9471 41.6748 17.3272 41.6748 15.71V15.7128Z" fill="#B8B8B8"/>
<path d="M41.6776 49.9222C41.672 48.2994 41.6692 46.6795 41.6636 45.0567C43.0681 45.0567 44.4699 45.0791 45.8744 45.0427C46.4228 45.0287 46.5627 45.219 46.5487 45.7394C46.5151 46.9033 46.5039 48.0728 46.5515 49.2339C46.5767 49.8271 46.3556 49.953 45.8156 49.939C44.4363 49.9054 43.0569 49.9222 41.6776 49.9194V49.9222Z" fill="#B8B8B8"/>
<path d="M41.6748 15.7128C41.6748 17.33 41.6748 18.95 41.6748 20.5672C40.2702 20.5672 38.8657 20.5588 37.4611 20.5812C36.9967 20.5895 36.7673 20.4944 36.7841 19.96C36.8176 18.7457 36.8176 17.5315 36.7841 16.3172C36.7701 15.7828 36.9967 15.6877 37.4611 15.696C38.8657 15.7212 40.2702 15.71 41.6748 15.7128Z" fill="#DADADA"/>
<path d="M41.6636 30.3235C41.6692 28.7007 41.672 27.0779 41.6776 25.4552C43.0821 25.4552 44.4838 25.4664 45.8856 25.4384C46.3668 25.43 46.5627 25.5531 46.5459 26.0707C46.5123 27.2598 46.5123 28.4489 46.5459 29.638C46.5599 30.1584 46.42 30.3487 45.8716 30.3347C44.4699 30.2983 43.0653 30.3235 41.6636 30.3235Z" fill="#B8B8B8"/>
</svg>
