<svg width="84" height="84" viewBox="0 0 84 84" fill="none" xmlns="http://www.w3.org/2000/svg">
<path d="M53.4485 32.074C53.4425 34.9087 53.4385 37.7434 53.4346 40.5781C51.8968 40.5741 50.4268 40.2061 49.1118 39.4542C47.1703 38.3422 45.1293 37.7693 42.8974 37.8787C42.1991 36.1759 41.1269 34.7516 39.7125 33.5759C36.7485 31.1092 33.3688 30.2717 29.5951 30.9819C27.4209 31.3917 25.5231 32.4022 23.9257 33.8942C22.4875 35.2369 21.3158 36.8005 20.8384 38.7759C19.0997 40.0072 17.202 40.6915 15.0357 40.5781C13.4502 40.4966 12.012 39.9595 10.5996 39.303C10.5956 30.2856 10.5956 21.2703 10.5737 12.2529C10.5737 11.6959 10.8363 11.676 11.2541 11.678C15.3918 11.682 19.5274 11.678 23.6651 11.6721C23.6996 12.4731 24.1167 12.8736 24.9164 12.8736C29.6528 12.8736 34.3893 12.8736 39.1257 12.8736C39.9254 12.8736 40.3425 12.4731 40.377 11.6721C44.4689 11.676 48.5628 11.6959 52.6547 11.6661C53.3231 11.6621 53.4743 11.8471 53.4703 12.4956C53.4425 16.6373 53.4604 20.7809 53.4644 24.9226C52.615 26.516 51.7655 28.1094 50.9161 29.7048C49.5754 29.8003 48.8433 30.586 48.4534 31.8134C48.1172 32.8717 47.8149 33.9379 47.5881 35.0261C47.5045 35.4239 47.5622 35.5015 47.972 35.414C49.084 35.1773 50.1741 34.8749 51.2543 34.5208C52.4578 34.1269 53.2018 33.3909 53.2993 32.0879C53.349 32.0839 53.4007 32.08 53.4505 32.076L53.4485 32.074ZM48.3917 27.5126C48.35 26.9994 48.0675 26.6234 47.5841 26.3887C47.0868 26.146 46.6631 26.3071 46.301 26.6652C45.2089 27.7453 44.1168 28.8295 43.0406 29.9256C42.4478 30.5283 42.4498 31.139 43.0008 31.6821C43.5359 32.2093 44.1566 32.1934 44.7633 31.5986C45.8256 30.5562 46.868 29.4959 47.9223 28.4476C48.1749 28.1949 48.3639 27.9144 48.3897 27.5146L48.3917 27.5126ZM16.8757 26.2733C16.3685 26.323 15.9925 26.6055 15.7598 27.0889C15.521 27.5902 15.6921 28.0099 16.0482 28.37C17.1105 29.4442 18.1767 30.5164 19.2529 31.5767C19.8855 32.1993 20.526 32.2152 21.0691 31.6523C21.5863 31.1132 21.5644 30.4985 20.9637 29.8898C19.9213 28.8295 18.863 27.7871 17.8127 26.7328C17.56 26.4802 17.2776 26.2952 16.8738 26.2733H16.8757ZM33.2116 23.6634C33.2116 22.8935 33.2196 22.1257 33.2096 21.3558C33.1977 20.5243 32.7561 20.029 32.038 20.019C31.3159 20.0091 30.8404 20.5064 30.8324 21.32C30.8205 22.8338 30.8205 24.3457 30.8324 25.8595C30.8384 26.6711 31.3198 27.1704 32.0399 27.1585C32.7581 27.1466 33.1977 26.6513 33.2096 25.8197C33.2196 25.0996 33.2116 24.3815 33.2116 23.6614V23.6634Z" fill="#F2C77C"/>
<path d="M53.4642 41.1251C57.4964 39.11 61.4173 39.6889 65.2685 41.6563C65.5132 41.7816 65.9827 41.8413 65.6087 42.3824C63.4682 45.4797 63.2952 48.8594 64.4748 52.3048C65.9071 56.4903 68.6085 59.5259 72.9292 60.9243C73.7846 61.2008 74.6678 61.3023 75.5669 61.2625C75.8793 61.2486 76.114 61.2923 76.0603 61.6942C75.4774 65.993 73.7806 69.6015 69.6727 71.5908C66.5695 73.0947 63.3707 72.9097 60.2297 71.6903C55.712 69.9377 52.5034 66.7091 50.16 62.5416C49.9929 62.2452 49.9193 61.8832 49.601 61.6822C49.05 60.0968 48.3657 58.5571 47.9479 56.9239C47.7928 55.7065 47.5401 54.503 47.4924 53.2676C47.4307 51.6046 47.6794 49.9794 47.9758 48.3561C48.4393 47.0074 49.0102 45.7104 49.7363 44.483C50.7826 43.1442 51.9603 41.9527 53.4662 41.1231L53.4642 41.1251ZM56.7425 45.1574C55.3599 45.1435 54.3414 46.1401 54.3355 47.5127C54.3295 48.8037 55.3878 49.8978 56.657 49.9157C57.9559 49.9336 59.0799 48.8316 59.0938 47.5266C59.1057 46.2555 58.0295 45.1713 56.7425 45.1594V45.1574ZM54.4747 57.9941C55.7717 57.9882 56.828 56.9438 56.8499 55.6468C56.8698 54.3757 55.718 53.2259 54.4329 53.2358C53.124 53.2458 52.0757 54.3418 52.0936 55.6866C52.1095 56.9995 53.1419 58.0001 54.4747 57.9941ZM66.6491 67.5029C67.952 67.5068 69.0501 66.4625 69.072 65.2013C69.0939 63.8844 68.0117 62.7565 66.7107 62.7445C65.3759 62.7326 64.3117 63.7929 64.3137 65.1336C64.3156 66.4466 65.354 67.4989 66.6491 67.5029ZM60.904 62.8718C60.9001 61.5311 59.8398 60.4907 58.493 60.5046C57.2259 60.5185 56.1358 61.6305 56.1437 62.8957C56.1517 64.133 57.2856 65.2629 58.5209 65.2669C59.8617 65.2689 60.906 64.2186 60.9021 62.8698L60.904 62.8718Z" fill="#F2C77C"/>
<path d="M47.9738 48.3602C47.6774 49.9834 47.4287 51.6087 47.4904 53.2717C47.5362 54.507 47.7908 55.7105 47.9459 56.928C35.6164 56.928 23.285 56.9319 10.9555 56.9319C10.8321 56.9319 10.7088 56.918 10.5854 56.9101C10.5974 54.2246 10.6093 51.541 10.6213 48.8555C10.8023 48.9331 10.9853 49.0087 11.1643 49.0902C14.0806 50.4131 17.0148 50.6538 19.8276 48.9192C23.1736 46.8543 26.4439 47.0433 29.8018 48.8436C32.8892 50.4987 36.0103 50.6797 39.1096 48.7978C39.8695 48.3363 40.6672 47.9385 41.5365 47.7017C43.7705 47.093 45.895 47.4949 47.9738 48.3622V48.3602Z" fill="#7390FF"/>
<path d="M43.4205 61.6904C44.2083 64.7042 44.9901 67.7199 45.7838 70.7317C46.3428 72.8582 46.9157 74.9807 47.5025 77.1749C45.9887 77.1749 44.5325 77.163 43.0744 77.1829C42.6686 77.1888 42.6666 76.9063 42.599 76.6537C42.0599 74.6465 41.5029 72.6453 41.0016 70.6302C40.8803 70.1389 40.6774 70.0195 40.2019 70.0215C34.7493 70.0374 29.2948 70.0374 23.8422 70.0215C23.3687 70.0215 23.1658 70.1369 23.0425 70.6282C22.5471 72.6195 21.9722 74.5928 21.4749 76.5841C21.3516 77.0754 21.1447 77.1968 20.6713 77.1868C19.3146 77.155 17.9559 77.1769 16.5396 77.1769C17.572 73.3097 18.5905 69.5122 19.5971 65.7147C19.9511 64.3779 20.2814 63.0332 20.6215 61.6924C22.2209 61.7043 23.8203 61.7143 25.4196 61.7262C25.0496 63.1088 24.6856 64.4953 24.3057 65.8758C24.1903 66.2936 24.2161 66.4766 24.7473 66.4746C29.5971 66.4527 34.445 66.4547 39.2948 66.4746C39.8239 66.4766 39.8558 66.2976 39.7384 65.8778C39.3565 64.4973 38.9944 63.1127 38.6244 61.7302C40.2238 61.7183 41.8232 61.7063 43.4205 61.6964V61.6904Z" fill="#5E5460"/>
<path d="M25.4196 61.7242C23.8202 61.7123 22.2208 61.7023 20.6214 61.6904C16.2928 61.6904 11.9642 61.6864 7.6355 61.7043C7.17399 61.7043 6.98501 61.6148 7.00092 61.1035C7.03872 59.8921 7.02876 58.6806 7.00489 57.4691C6.99694 57.0514 7.11829 56.9141 7.54399 56.9241C8.55653 56.946 9.57105 56.9181 10.5856 56.9102C10.7089 56.9181 10.8323 56.932 10.9556 56.932C23.2851 56.932 35.6166 56.9301 47.9461 56.9281C48.3638 58.5613 49.0481 60.1009 49.5991 61.6864C47.5403 61.6864 45.4794 61.6904 43.4205 61.6924C41.8211 61.7043 40.2217 61.7162 38.6243 61.7262C34.2221 61.7262 29.8218 61.7262 25.4196 61.7262V61.7242Z" fill="#6F6571"/>
<path d="M53.4644 41.1252C51.9585 41.9548 50.7809 43.1463 49.7345 44.4851C49.3884 44.4135 49.0979 44.2265 48.7936 44.0574C45.565 42.279 42.3324 42.0463 39.0899 44.0336C36.0284 45.9094 32.9073 45.7403 29.8498 44.1012C26.4621 42.285 23.1678 42.0423 19.8199 44.1648C18.0574 45.2808 16.098 45.5335 14.0411 45.2251C12.8236 45.0441 11.7315 44.5289 10.5996 44.1111C10.5996 42.5078 10.5996 40.9044 10.5996 39.3011C12.012 39.9575 13.4502 40.4946 15.0357 40.5762C17.202 40.6896 19.0998 40.0053 20.8384 38.7739C22.028 38.2687 23.2434 37.8847 24.5583 37.8768C26.5197 37.8628 28.2723 38.5054 29.989 39.4045C32.8337 40.8945 35.7639 41.1213 38.6403 39.5219C39.995 38.768 41.3537 38.1095 42.8954 37.8788C45.1274 37.7713 47.1684 38.3442 49.1099 39.4543C50.4248 40.2062 51.8949 40.5742 53.4326 40.5782C53.4425 40.7612 53.4525 40.9422 53.4644 41.1252Z" fill="#7390FF"/>
<path d="M10.6016 44.1132C11.7335 44.5309 12.8256 45.0442 14.043 45.2272C16.0999 45.5355 18.0593 45.2829 19.8218 44.1669C23.1718 42.0444 26.464 42.287 29.8517 44.1033C32.9072 45.7424 36.0284 45.9115 39.0919 44.0356C42.3344 42.0483 45.567 42.2811 48.7955 44.0595C49.0999 44.2266 49.3903 44.4156 49.7365 44.4872C49.0084 45.7146 48.4375 47.0136 47.976 48.3603C45.8972 47.495 43.7726 47.0931 41.5387 47.7018C40.6674 47.9386 39.8717 48.3364 39.1118 48.7979C36.0125 50.6818 32.8933 50.5007 29.804 48.8437C26.4441 47.0434 23.1757 46.8544 19.8298 48.9193C17.017 50.6539 14.0828 50.4132 11.1665 49.0904C10.9875 49.0088 10.8045 48.9332 10.6234 48.8556C10.6175 47.2741 10.6095 45.6947 10.6036 44.1152L10.6016 44.1132Z" fill="#526CD3"/>
<path d="M50.916 29.7028C51.7654 28.1094 52.6148 26.516 53.4643 24.9206C57.6716 20.964 61.8789 17.0053 66.0902 13.0527C67.9342 11.32 69.7862 9.5973 71.6343 7.86664C72.8 6.77453 74.28 6.7069 75.2866 7.7075C76.2931 8.71009 76.2374 10.1881 75.1453 11.3578C69.7783 17.1048 64.4092 22.8498 59.0422 28.5968C58.5468 29.1279 57.9899 29.5676 57.3493 29.9157C56.0443 30.6259 54.7493 31.3539 53.4503 32.0741C53.4006 32.078 53.3489 32.082 53.2992 32.086C53.1062 30.6915 52.2926 29.9157 50.918 29.7009L50.916 29.7028Z" fill="#6F6571"/>
<path d="M40.3769 11.6721C40.3424 12.4731 39.9253 12.8736 39.1256 12.8736C34.3892 12.8736 29.6527 12.8736 24.9163 12.8736C24.1166 12.8736 23.6995 12.4731 23.665 11.6721C23.671 10.6834 23.6949 9.69477 23.677 8.70611C23.669 8.28836 23.7327 8.09739 24.23 8.09938C29.424 8.11927 34.6179 8.11927 39.8119 8.09938C40.3092 8.09938 40.3729 8.29035 40.3649 8.70611C40.347 9.69477 40.3709 10.6834 40.3769 11.6721Z" fill="#6F6571"/>
<path d="M42.8974 37.8788C41.3557 38.1095 39.997 38.768 38.6423 39.5219C35.7638 41.1213 32.8336 40.8945 29.991 39.4046C28.2742 38.5054 26.5217 37.8629 24.5603 37.8768C23.2474 37.8867 22.0319 38.2707 20.8403 38.774C21.3178 36.7986 22.4894 35.2331 23.9277 33.8923C25.5251 32.4023 27.4228 31.3898 29.5971 30.98C33.3707 30.2698 36.7505 31.1073 39.7145 33.574C41.1289 34.7517 42.2011 36.174 42.8993 37.8768L42.8974 37.8788Z" fill="#EA508E"/>
<path d="M50.916 29.7029C52.2906 29.9157 53.1042 30.6935 53.2972 32.088C53.1997 33.391 52.4557 34.125 51.2522 34.5209C50.172 34.875 49.0819 35.1774 47.9699 35.4141C47.5621 35.5016 47.5044 35.424 47.586 35.0262C47.8147 33.938 48.1151 32.8718 48.4513 31.8135C48.8412 30.5861 49.5733 29.8004 50.914 29.7049L50.916 29.7029Z" fill="#6CACFC"/>
<path d="M48.3916 27.5127C48.3657 27.9145 48.1768 28.193 47.9241 28.4457C46.8698 29.494 45.8274 30.5543 44.7652 31.5967C44.1584 32.1915 43.5378 32.2074 43.0027 31.6802C42.4516 31.1391 42.4516 30.5284 43.0424 29.9237C44.1186 28.8256 45.2088 27.7435 46.3029 26.6633C46.6649 26.3052 47.0866 26.1441 47.586 26.3868C48.0674 26.6215 48.3498 26.9975 48.3936 27.5107L48.3916 27.5127Z" fill="#EA508E"/>
<path d="M16.8755 26.2734C17.2793 26.2933 17.5618 26.4783 17.8144 26.733C18.8628 27.7853 19.9231 28.8296 20.9654 29.8899C21.5642 30.5006 21.5881 31.1153 21.0709 31.6524C20.5298 32.2154 19.8873 32.1995 19.2547 31.5768C18.1785 30.5166 17.1122 29.4443 16.05 28.3701C15.6939 28.0101 15.5228 27.5903 15.7615 27.089C15.9923 26.6037 16.3682 26.3232 16.8775 26.2734H16.8755Z" fill="#EA508E"/>
<path d="M33.2114 23.6635C33.2114 24.3836 33.2193 25.1017 33.2094 25.8219C33.1975 26.6554 32.7578 27.1507 32.0397 27.1606C31.3196 27.1726 30.8382 26.6733 30.8322 25.8616C30.8203 24.3478 30.8203 22.836 30.8322 21.3221C30.8382 20.5065 31.3156 20.0112 32.0377 20.0211C32.7558 20.0311 33.1975 20.5264 33.2094 21.3579C33.2193 22.1278 33.2114 22.8956 33.2114 23.6655V23.6635Z" fill="#EA508E"/>
<path d="M56.7425 45.1574C58.0295 45.1713 59.1058 46.2555 59.0938 47.5246C59.0799 48.8296 57.9579 49.9317 56.657 49.9137C55.3878 49.8958 54.3295 48.8037 54.3355 47.5107C54.3414 46.1401 55.3599 45.1415 56.7425 45.1554V45.1574Z" fill="#6CACFC"/>
<path d="M54.4746 57.9942C53.1418 58.0002 52.1094 56.9996 52.0934 55.6867C52.0775 54.3419 53.1239 53.2458 54.4328 53.2359C55.7179 53.2279 56.8697 54.3777 56.8498 55.6469C56.8279 56.9439 55.7716 57.9863 54.4746 57.9942Z" fill="#526CD3"/>
<path d="M66.6489 67.5031C65.3519 67.4991 64.3155 66.4468 64.3135 65.1338C64.3115 63.7931 65.3758 62.7328 66.7106 62.7447C68.0115 62.7567 69.0957 63.8826 69.0718 65.2015C69.0499 66.4627 67.9499 67.507 66.6489 67.5031Z" fill="#E05827"/>
<path d="M60.9039 62.872C60.9079 64.2207 59.8635 65.2711 58.5227 65.2691C57.2874 65.2671 56.1535 64.1372 56.1456 62.8979C56.1376 61.6307 57.2277 60.5207 58.4949 60.5068C59.8416 60.4909 60.9039 61.5312 60.9059 62.874L60.9039 62.872Z" fill="#EA508E"/>
</svg>
