<svg width="84" height="84" viewBox="0 0 84 84" fill="none" xmlns="http://www.w3.org/2000/svg">
<path d="M72.2798 72.1471H62.5315C61.9497 71.8629 61.7911 71.3428 61.7162 70.7523C61.4826 68.93 61.2314 67.1099 60.9802 65.2898C60.8149 64.0845 60.5219 63.8333 59.3033 63.8311C54.4534 63.8311 49.6035 63.8311 44.7536 63.8311C44.5971 63.8311 44.4407 63.8267 44.2842 63.8421C43.4513 63.9259 43.0635 64.4018 43.1759 65.2369C43.4139 67.0196 43.6606 68.8 43.9185 70.5782C44.0441 71.4486 43.9207 71.7263 43.1538 72.1449H32.2333C31.7683 71.8563 31.548 71.4376 31.4929 70.8911C31.4136 70.1133 31.2858 69.3421 31.1734 68.5686C30.942 66.9843 30.7062 65.4022 30.4727 63.8179C30.4506 63.5645 30.4374 63.3111 30.4022 63.0599C30.0364 60.3892 29.6662 57.7186 29.2982 55.0479C28.7319 50.945 28.17 46.8421 27.6037 42.7414C26.9955 38.3498 26.3852 33.9582 25.7748 29.5666C25.2437 25.7347 24.6973 21.9072 24.1839 18.0731C23.915 16.0613 23.5559 14.0583 23.3994 12.0311C23.6528 12.0201 23.9062 12.0002 24.1596 12.0002C28.0532 12.0002 31.949 12.0002 35.8426 12.0002C45.0995 12.0002 54.3543 12.0002 63.6112 12.0002C64.5939 12.0002 64.9752 12.2779 65.0941 13.124C65.6913 17.4032 66.2796 21.6847 66.8724 25.9661C67.4849 30.4017 68.0975 34.8374 68.7101 39.273C69.3094 43.6117 69.9132 47.9504 70.5126 52.2891C71.1273 56.7248 71.7531 61.1583 72.3437 65.5983C72.5795 67.3787 72.9298 69.146 72.9981 70.9506C73.0202 71.5456 72.824 71.9268 72.282 72.1427L72.2798 72.1471ZM52.3182 28.597C47.8627 28.5926 43.4072 28.5794 38.9518 28.5926C38.1827 28.5948 37.8809 29.0642 38.0219 29.8773C38.2048 30.935 38.3744 31.9971 38.5838 33.0503C39.0509 35.3949 39.1479 37.843 40.4501 39.9627C38.7777 40.2888 37.1912 40.8045 35.9484 42.0495C35.0538 42.9441 35.0604 43.9709 35.9263 44.903C36.5499 45.5751 37.3035 46.0466 38.1365 46.4146C41.1597 47.7499 44.3702 48.1576 47.6225 48.281C50.1279 48.3757 52.6245 48.1752 55.0682 47.5736C56.6283 47.1902 58.1861 46.7495 59.4003 45.6059C60.4844 44.5857 60.4381 43.3055 59.2989 42.3579C57.6419 40.9763 55.6675 40.3329 53.5852 39.9495C53.9576 38.515 53.8475 37.0805 53.572 35.6461C53.8386 35.7056 54.1031 35.7827 54.3719 35.8201C56.4366 36.1022 58.2655 34.4297 58.0407 32.4245C57.8733 30.9262 57.0998 29.7936 55.7601 29.0774C54.6738 28.4957 53.4927 28.5662 52.3182 28.6015V28.597ZM50.3262 53.4724C54.2948 53.4724 58.2655 53.4724 62.234 53.4724C62.4301 53.4724 62.6262 53.4834 62.8201 53.4614C63.36 53.3975 63.6641 53.0934 63.7103 52.5425C63.7566 51.9983 63.5186 51.6391 63.0008 51.4761C62.7188 51.3857 62.4279 51.3659 62.1326 51.3659C54.2132 51.3681 46.2938 51.3659 38.3744 51.3659C38.099 51.3659 37.8302 51.3879 37.5657 51.4761C37.0457 51.6501 36.7967 52.0401 36.843 52.5514C36.8915 53.0714 37.2506 53.3821 37.7729 53.4592C37.9646 53.4879 38.1629 53.4724 38.359 53.4724C42.3474 53.4724 46.3379 53.4724 50.3262 53.4724ZM51.0226 57.5908C53.0189 57.5908 55.0131 57.5908 57.0095 57.5908C57.3003 57.5908 57.6022 57.6238 57.8446 57.3991C58.1663 57.1016 58.3646 56.7623 58.2104 56.3061C58.0253 55.7619 57.6132 55.5768 57.069 55.5768C53.0586 55.5812 49.0482 55.5768 45.0378 55.579C44.2688 55.579 43.773 55.9866 43.7774 56.5882C43.7796 57.1875 44.2754 57.5864 45.0378 57.5886C47.0342 57.5908 49.0284 57.5886 51.0248 57.5886L51.0226 57.5908ZM40.1967 25.4791C40.5647 25.4791 40.9195 25.2411 41.1244 24.8577C41.9221 23.3659 41.7105 22.1452 40.4347 21.039C40.0535 20.7085 39.9984 20.389 40.2761 19.9703C40.5339 19.5803 40.7807 19.1771 40.99 18.7584C41.2588 18.2207 41.0958 17.6478 40.6396 17.3702C40.1527 17.0749 39.5643 17.2115 39.2052 17.7338C38.9738 18.0709 38.7777 18.4345 38.5661 18.787C37.6208 20.3581 37.7795 21.4533 39.1523 22.6652C39.4762 22.9495 39.5842 23.2403 39.388 23.6436C39.2867 23.8507 39.2052 24.0821 39.1743 24.309C39.0928 24.9436 39.5753 25.4813 40.1967 25.4791ZM44.3503 25.4791C44.7734 25.446 45.0863 25.2301 45.2912 24.8246C46.0492 23.3329 45.8487 22.1562 44.5971 21.05C44.2027 20.7019 44.1212 20.3868 44.4363 19.9439C44.6963 19.5803 44.921 19.1859 45.1238 18.7848C45.4102 18.2163 45.245 17.6346 44.7536 17.3548C44.271 17.0793 43.74 17.2049 43.3698 17.7227C43.1208 18.0709 42.9137 18.4521 42.6933 18.8201C41.7722 20.3559 41.9353 21.4423 43.2838 22.6476C43.5989 22.9296 43.7312 23.2205 43.535 23.6281C43.4425 23.8198 43.3676 24.027 43.3235 24.2363C43.1913 24.8709 43.6805 25.4681 44.3481 25.4791H44.3503ZM48.5062 25.4791C48.8874 25.4791 49.2311 25.2257 49.4493 24.7872C50.2227 23.2425 49.8745 21.8433 48.7089 21.0126C48.3321 20.7438 48.2572 20.4154 48.5414 20.0056C48.797 19.6376 49.024 19.2454 49.2333 18.8487C49.5484 18.2516 49.4008 17.6478 48.8962 17.3592C48.4004 17.0749 47.8363 17.2203 47.4749 17.769C47.151 18.2582 46.8425 18.7606 46.5759 19.2828C46.0294 20.3515 46.2035 21.6009 47.0915 22.3435C47.6931 22.8481 47.8693 23.291 47.5366 24.0446C47.2149 24.7762 47.7548 25.4813 48.5017 25.4791H48.5062Z" fill="#CAB192"/>
<path d="M13.7964 72.1475C13.0053 71.7112 12.9018 71.4799 13.067 70.5235C14.7263 60.9317 16.3833 51.3376 18.047 41.7458C19.7282 32.0371 21.4139 22.3307 23.1128 12.6264C23.1459 12.4325 22.996 12.0778 23.3993 12.0359C23.5579 14.0631 23.9149 16.0639 24.1837 18.0779C24.6971 21.912 25.2414 25.7395 25.7747 29.5714C26.385 33.963 26.9954 38.3546 27.6036 42.7461C28.1699 46.8491 28.734 50.9498 29.2981 55.0527C29.6661 57.7234 30.0362 60.394 30.402 63.0647C30.4373 63.3159 30.4483 63.5693 30.4725 63.8227C29.2826 63.8293 28.0927 63.8381 26.9007 63.8425C25.6292 63.8469 25.367 64.0783 25.2017 65.3255C24.9572 67.1632 24.6971 68.9987 24.4658 70.8364C24.3931 71.4115 24.1815 71.8655 23.6593 72.1475H13.7942H13.7964Z" fill="#7F6E5D"/>
<path d="M40.4503 39.9647C39.1502 37.8449 39.0532 35.3968 38.5839 33.0523C38.3746 31.999 38.2049 30.9391 38.022 29.8792C37.881 29.0661 38.1807 28.5968 38.9519 28.5946C43.4074 28.5792 47.8629 28.5946 52.3183 28.599C52.4373 29.2975 52.5585 29.996 52.6775 30.6923C52.7943 31.3578 52.9089 32.021 53.0257 32.6865C53.0653 32.7636 53.1072 32.8385 53.1469 32.9157V32.898C53.1799 33.8323 53.3738 34.7402 53.5743 35.648C53.8498 37.0825 53.96 38.5148 53.5876 39.9515C53.0631 41.2846 52.336 42.4657 51.0778 43.2369C49.0285 44.4907 46.9109 44.321 44.778 43.5079C42.949 42.8094 41.5608 41.5556 40.4525 39.9669L40.4503 39.9647Z" fill="#B0E995"/>
<path d="M40.4505 39.9654C41.5589 41.5541 42.9471 42.8079 44.776 43.5064C46.909 44.3195 49.0266 44.4892 51.0758 43.2354C52.334 42.4641 53.0612 41.2831 53.5856 39.95C55.6679 40.3334 57.6423 40.9768 59.2993 42.3584C60.4385 43.3081 60.4826 44.5883 59.4007 45.6063C58.1865 46.75 56.6286 47.1907 55.0686 47.5741C52.6249 48.1756 50.1283 48.3762 47.6229 48.2814C44.3683 48.1602 41.1578 47.7504 38.1368 46.415C37.3039 46.0471 36.5503 45.5755 35.9267 44.9034C35.0607 43.9713 35.0563 42.9445 35.9488 42.0499C37.1915 40.8071 38.7803 40.2915 40.4505 39.9632V39.9654Z" fill="#D0D3D0"/>
<path d="M50.3261 53.4723C46.3377 53.4723 42.3472 53.4723 38.3588 53.4723C38.1627 53.4723 37.9644 53.4877 37.7727 53.4591C37.2483 53.3819 36.8913 53.0734 36.8428 52.5512C36.7943 52.0422 37.0455 51.65 37.5656 51.4759C37.83 51.3878 38.0988 51.3657 38.3743 51.3657C46.2936 51.3657 54.2131 51.3657 62.1325 51.3657C62.4277 51.3657 62.7208 51.3856 63.0006 51.4759C63.5184 51.6412 63.7564 52.0003 63.7102 52.5424C63.6639 53.0911 63.3598 53.3952 62.8199 53.4613C62.626 53.4833 62.4299 53.4723 62.2338 53.4723C58.2653 53.4723 54.2946 53.4723 50.3261 53.4723Z" fill="#FBD5AC"/>
<path d="M51.0222 57.5909C49.0259 57.5909 47.0317 57.5909 45.0353 57.5909C44.2729 57.5909 43.7793 57.1921 43.7749 56.5905C43.7727 55.989 44.2663 55.5813 45.0353 55.5813C49.0457 55.5769 53.0561 55.5813 57.0665 55.5791C57.6107 55.5791 58.0206 55.762 58.2079 56.3085C58.3621 56.7624 58.1638 57.1017 57.8421 57.4014C57.5997 57.6262 57.2978 57.5931 57.007 57.5931C55.0106 57.5953 53.0164 57.5931 51.02 57.5931L51.0222 57.5909Z" fill="#FCD6AC"/>
<path d="M52.6751 30.6923C52.5561 29.9938 52.4349 29.2953 52.3159 28.599C53.4904 28.5637 54.6715 28.4932 55.7578 29.075C57.0975 29.7933 57.871 30.9237 58.0384 32.4221C58.2632 34.4273 56.4343 36.0997 54.3696 35.8177C54.1008 35.7802 53.8363 35.7031 53.5697 35.6436C53.3692 34.7358 53.1753 33.8279 53.14 32.8936C53.5851 33.3079 54.0435 33.6957 54.6935 33.742C55.5903 33.8059 56.1368 33.1602 55.9098 32.2899C55.6895 31.4393 54.8433 30.7298 53.9575 30.6835C53.5301 30.6615 53.1004 30.6857 52.6707 30.6901L52.6751 30.6923Z" fill="#98E076"/>
<path d="M40.1961 25.4792C39.5725 25.4792 39.0899 24.9438 39.1737 24.3092C39.2023 24.0822 39.286 23.8509 39.3874 23.6437C39.5835 23.2405 39.4756 22.9518 39.1516 22.6654C37.7789 21.4534 37.6202 20.3583 38.5655 18.7872C38.777 18.4346 38.9709 18.0711 39.2045 17.7339C39.5637 17.2117 40.152 17.0729 40.639 17.3703C41.0951 17.648 41.2582 18.2209 40.9894 18.7586C40.78 19.1772 40.5354 19.5805 40.2754 19.9705C39.9978 20.3891 40.0529 20.7109 40.4341 21.0392C41.7121 22.1453 41.9236 23.3661 41.1238 24.8579C40.9188 25.2413 40.5641 25.4792 40.1961 25.4792Z" fill="#FDFDFC"/>
<path d="M44.3504 25.4792C43.6827 25.4682 43.1936 24.871 43.3258 24.2364C43.3698 24.0271 43.4426 23.82 43.5373 23.6283C43.7334 23.2228 43.6012 22.9298 43.2861 22.6477C41.9376 21.4424 41.7745 20.3561 42.6956 18.8202C42.9159 18.4522 43.123 18.071 43.372 17.7229C43.74 17.205 44.2733 17.0794 44.7558 17.3549C45.2472 17.6347 45.4125 18.2165 45.126 18.785C44.9233 19.186 44.6985 19.5804 44.4385 19.944C44.1234 20.3847 44.205 20.702 44.5994 21.0502C45.851 22.1563 46.0515 23.333 45.2935 24.8248C45.0886 25.228 44.7735 25.4462 44.3526 25.4792H44.3504Z" fill="#FDFDFC"/>
<path d="M48.5056 25.479C47.7564 25.4834 47.2166 24.776 47.5405 24.0445C47.8732 23.2909 47.6947 22.8458 47.0954 22.3434C46.2074 21.6008 46.0355 20.3492 46.5798 19.2827C46.8464 18.7605 47.1549 18.2581 47.4788 17.7689C47.8402 17.2202 48.4043 17.0748 48.9001 17.359C49.4047 17.6477 49.5523 18.2515 49.2372 18.8486C49.0279 19.2452 48.8009 19.6375 48.5453 20.0055C48.261 20.4153 48.336 20.7436 48.7128 21.0125C49.8762 21.8432 50.2244 23.2446 49.4531 24.7871C49.235 25.2234 48.8912 25.4768 48.51 25.479H48.5056Z" fill="#FDFDFC"/>
<path d="M52.6753 30.6922C53.105 30.6878 53.5347 30.6636 53.9621 30.6856C54.8479 30.7319 55.6941 31.4414 55.9144 32.292C56.1392 33.1624 55.5949 33.808 54.6981 33.7441C54.0481 33.6978 53.5897 33.31 53.1446 32.8958V32.9134C53.105 32.8363 53.0631 32.7613 53.0234 32.6842C52.9067 32.0188 52.7921 31.3555 52.6753 30.69V30.6922Z" fill="#CAB090"/>
</svg>
