<svg width="84" height="84" viewBox="0 0 84 84" fill="none" xmlns="http://www.w3.org/2000/svg">
<path d="M12.4774 52.124C8.51795 51.5982 4.81217 47.8602 4.19647 43.7693C3.35477 38.1934 6.60397 33.2723 12.0577 31.8656C12.1914 31.8311 12.339 31.8403 12.4797 31.8311C14.9909 32.5136 17.0295 33.858 18.6252 35.9519C21.4178 39.6116 21.095 45.5103 17.9311 48.8794C16.4045 50.5052 14.5666 51.4968 12.4774 52.124Z" fill="#FE6EA8"/>
<path d="M40.0872 52.124C36.1278 51.5982 32.422 47.8602 31.8063 43.7693C30.9646 38.1934 34.2138 33.2723 39.6676 31.8656C39.8013 31.8311 39.9489 31.8403 40.0895 31.8311C42.6008 32.5136 44.6393 33.858 46.2351 35.9519C49.0254 39.6116 48.7048 45.5103 45.541 48.8794C44.0144 50.5052 42.1765 51.4968 40.0872 52.124Z" fill="#FE6EA8"/>
<path d="M67.6971 52.124C63.7376 51.5982 60.0319 47.8602 59.4162 43.7693C58.5745 38.1934 61.8237 33.2723 67.2774 31.8656C67.4111 31.8311 67.5587 31.8403 67.6994 31.8311C70.2106 32.5136 72.2492 33.858 73.8449 35.9519C76.6352 39.6116 76.3147 45.5103 73.1508 48.8794C71.6242 50.5052 69.7863 51.4968 67.6971 52.124Z" fill="#FE6EA8"/>
<path d="M12.4775 52.1241C14.5645 51.4969 16.4047 50.5053 17.9313 48.8795C21.0951 45.5104 21.418 39.6116 18.6254 35.952C17.0296 33.8581 14.9911 32.516 12.4798 31.8312C17.7629 30.6459 23.4334 34.4231 24.508 39.8399C25.6103 45.4044 22.2251 50.7336 16.7414 52.0457C15.3301 52.3824 13.9073 52.4769 12.4775 52.1264V52.1241Z" fill="#EA508E"/>
<path d="M40.0874 52.1241C42.1743 51.4969 44.0146 50.5053 45.5411 48.8795C48.705 45.5104 49.0278 39.6116 46.2352 35.952C44.6395 33.8581 42.601 32.516 40.0897 31.8312C45.3728 30.6459 51.0433 34.4231 52.1179 39.8399C53.2202 45.4044 49.8349 50.7336 44.3512 52.0457C42.9399 52.3824 41.5171 52.4769 40.0874 52.1264V52.1241Z" fill="#EA508E"/>
<path d="M67.6973 52.1241C69.7842 51.4969 71.6244 50.5053 73.151 48.8795C76.3149 45.5104 76.6377 39.6116 73.8451 35.952C72.2493 33.8581 70.2108 32.516 67.6996 31.8312C72.9827 30.6459 78.6532 34.4231 79.7278 39.8399C80.83 45.4044 77.4448 50.7336 71.9611 52.0457C70.5498 52.3824 69.127 52.4769 67.6973 52.1264V52.1241Z" fill="#EA508E"/>
</svg>
