<svg width="266" height="252" viewBox="0 0 266 252" fill="none" xmlns="http://www.w3.org/2000/svg">
<mask id="mask0_122_963" style="mask-type:alpha" maskUnits="userSpaceOnUse" x="31" y="28" width="203" height="203">
<circle cx="132.508" cy="129.788" r="101" fill="#FF1818"/>
</mask>
<g mask="url(#mask0_122_963)">
<path d="M75.0882 213.64C72.831 212.787 71.1082 211.112 69.2657 209.66C65.2777 206.517 61.4412 203.207 58.1073 199.355C75.9974 199.339 93.8876 199.323 111.778 199.307C115.319 199.283 116.635 198.015 116.635 194.593C116.635 182.462 116.635 170.33 116.635 158.199C116.635 155.391 114.984 153.684 112.153 153.565C111.826 153.549 111.491 153.565 111.156 153.565C91.3273 153.565 71.499 153.565 51.6706 153.565C47.7783 153.565 46.1672 155.2 46.1672 159.14C46.1672 167.212 46.1672 175.291 46.1672 183.778C43.1842 179.574 41.1583 175.291 39.2121 170.992C36.1015 164.109 33.932 156.907 32.3926 149.513C30.5183 140.516 30.2152 131.399 30.7336 122.299C31.1165 115.615 32.1214 108.939 34.267 102.526C34.3946 102.542 34.5142 102.51 34.6259 102.438C35.2879 102.47 35.9499 102.526 36.6119 102.526C74.163 102.526 111.722 102.526 149.273 102.526C150.796 102.526 152.312 102.359 153.835 102.271C154.705 104.042 155.502 105.852 156.451 107.583C159.004 112.257 162.449 116.213 166.421 119.73C165.56 119.73 164.699 119.746 163.837 119.746C129.333 119.746 94.8288 119.762 60.3246 119.715C58.6177 119.715 58.0195 120.097 58.0594 121.908C58.1791 127.212 58.1392 132.524 58.0754 137.828C58.0594 139.184 58.4343 139.71 59.862 139.67C63.2438 139.583 66.6256 139.639 70.0154 139.639C106.242 139.639 142.469 139.639 178.704 139.663C180.308 139.663 181.297 139.583 181.185 137.485C181.01 134.183 181.185 130.857 181.225 127.539C181.751 127.619 182.286 127.651 182.788 127.778C188.172 129.15 193.604 129.206 199.099 128.544C202.473 128.137 205.6 126.877 208.854 126.079C208.878 126.941 208.918 127.802 208.918 128.656C208.918 147.327 208.918 165.991 208.918 184.663C208.918 188.763 208.957 192.87 208.981 196.97C208.997 199.674 209.093 202.386 208.471 205.05C207.338 209.867 202.569 213.576 197.392 213.656C194.944 213.696 192.495 213.656 190.046 213.656C174.732 213.64 159.411 213.616 144.097 213.624C121.086 213.624 98.075 213.648 75.0722 213.656L75.0882 213.64ZM157.823 199.331C168.033 199.331 178.242 199.331 188.451 199.331C191.737 199.331 193.46 197.6 193.468 194.306C193.476 182.438 193.476 170.578 193.468 158.709C193.468 155.335 191.705 153.565 188.331 153.565C168.112 153.565 147.885 153.565 127.666 153.565C124.332 153.565 122.609 155.248 122.609 158.55C122.593 170.482 122.593 182.414 122.609 194.338C122.609 197.728 124.228 199.331 127.586 199.331C137.66 199.331 147.742 199.331 157.815 199.331H157.823Z" fill="#F3F1F3"/>
<path d="M43.7275 79.8105C52.6766 63.8266 65.1351 51.2564 80.8399 41.8926C93.5457 34.3154 107.32 29.7451 122.02 28.3174C146.522 25.9406 169.11 31.5557 189.625 45.2664C189.784 45.3781 189.912 45.5376 190.055 45.6732C189.68 46.0002 189.218 46.0162 188.755 46.064C175.108 47.5715 164.7 54.2155 157.33 65.7568C154.554 70.1117 153.079 74.9611 151.763 79.8823C120.393 79.8743 89.0233 79.8663 57.6536 79.8584C53.0116 79.8584 48.3696 79.8265 43.7275 79.8105Z" fill="black"/>
<path d="M151.761 79.8824C153.07 74.9612 154.545 70.1118 157.321 65.7569C164.691 54.2156 175.099 47.5716 188.746 46.0642C189.209 46.0163 189.671 46.0004 190.046 45.6733C196.786 45.6733 203.414 46.4071 209.588 49.3104C223.561 55.8826 231.833 66.7778 234.114 82.1317C235.23 89.669 233.882 96.8713 231.202 103.898C231.003 104.233 230.772 104.56 230.604 104.919C228.18 110.159 224.798 114.658 220.491 118.526C216.989 121.661 212.953 123.886 208.87 126.079C205.615 126.877 202.489 128.137 199.115 128.544C193.62 129.206 188.196 129.15 182.804 127.778C182.294 127.651 181.759 127.611 181.241 127.539C175.897 125.713 170.952 123.12 166.437 119.723C162.465 116.205 159.02 112.249 156.467 107.575C155.526 105.844 154.721 104.034 153.851 102.263C153.125 99.4476 152.392 96.632 151.666 93.8165L151.243 88.4167C151.115 85.5534 151.594 82.7299 151.769 79.8904L151.761 79.8824ZM219.406 74.0759C219.478 72.6083 219.215 71.3561 218.305 70.2634C215.609 67.0092 211.637 66.7619 208.598 69.7768C201.596 76.7399 194.609 83.7189 187.669 90.7457C186.784 91.647 186.282 91.7587 185.356 90.7776C182.708 87.994 179.957 85.3061 177.221 82.6102C174.453 79.8904 170.505 79.7628 167.977 82.2752C165.456 84.7877 165.56 88.7677 168.28 91.5114C172.762 96.0259 177.261 100.532 181.775 105.007C184.575 107.782 188.347 107.846 191.163 105.055C199.96 96.3289 208.71 87.5474 217.46 78.7658C218.768 77.4577 219.637 75.9184 219.414 74.0759H219.406Z" fill="#E6A83B"/>
<path d="M151.658 93.8086C152.384 96.6241 153.118 99.4397 153.844 102.255C152.328 102.343 150.805 102.51 149.281 102.51C111.73 102.526 74.1713 102.518 36.6203 102.51C35.9583 102.51 35.2963 102.455 34.6343 102.423C34.6104 102.096 34.5864 101.777 34.5625 101.45C36.7798 93.8804 39.6671 86.5983 43.7269 79.8027C48.369 79.8187 53.011 79.8426 57.653 79.8506C89.0227 79.8665 120.392 79.8665 151.762 79.8745C151.586 82.714 151.108 85.5375 151.236 88.4009C141.106 88.3929 130.976 88.369 120.855 88.3769C118.654 88.3769 117.425 89.4138 117.441 91.1127C117.449 92.8036 118.693 93.8166 120.879 93.8166C131.136 93.8166 141.401 93.8166 151.658 93.8006V93.8086ZM62.0239 87.4677C59.9741 87.4677 58.3071 89.0389 58.2512 91.025C58.1954 93.0509 59.9661 94.8216 62.0319 94.8056C64.0259 94.7896 65.6849 93.1147 65.6689 91.1207C65.653 89.1107 64.0179 87.4756 62.0239 87.4677ZM77.266 91.0808C77.2581 88.9831 75.7506 87.4757 73.6609 87.4597C71.5552 87.4517 70.0398 88.9353 70.0079 91.0329C69.976 93.1944 71.6031 94.8455 73.7167 94.7976C75.7586 94.7498 77.282 93.1625 77.274 91.0808H77.266ZM50.2832 87.4597C48.2653 87.4757 46.6063 89.1187 46.6063 91.0968C46.6063 93.0509 48.3211 94.7896 50.2593 94.7976C52.3091 94.8056 54.1197 93.003 54.0399 91.025C53.9601 89.015 52.3011 87.4437 50.2832 87.4597Z" fill="#A09AA2"/>
<path d="M208.862 126.072C212.946 123.878 216.99 121.653 220.483 118.518C224.798 114.658 228.172 110.152 230.597 104.911C230.764 104.552 230.996 104.233 231.195 103.89C233.604 113.302 234.76 122.865 234.441 132.58C233.891 149.489 229.52 165.345 221.137 180.061C217.692 186.123 213.704 191.802 208.99 196.954C208.966 192.855 208.926 188.747 208.926 184.647C208.926 165.976 208.926 147.312 208.926 128.64C208.926 127.779 208.886 126.917 208.862 126.064V126.072Z" fill="black"/>
<path d="M75.0889 213.64C98.0996 213.624 121.11 213.608 144.113 213.608C159.427 213.608 174.749 213.632 190.063 213.64C183.977 218.21 177.23 221.568 170.203 224.384C156.787 229.76 142.813 232.105 128.4 231.49C109.298 230.677 91.7348 224.942 75.8147 214.302C75.5435 214.119 75.3281 213.863 75.0889 213.632V213.64Z" fill="black"/>
<path d="M34.5623 101.458C34.5862 101.785 34.6101 102.104 34.6341 102.431C34.5224 102.51 34.4028 102.534 34.2752 102.518C34.2991 102.143 34.1475 101.729 34.5543 101.458H34.5623Z" fill="#89CA83"/>
<path d="M166.421 119.715C170.936 123.112 175.881 125.705 181.225 127.531C181.193 130.849 181.018 134.167 181.185 137.469C181.297 139.567 180.308 139.647 178.705 139.647C142.478 139.615 106.251 139.623 70.0155 139.623C66.6337 139.623 63.2439 139.559 59.8621 139.655C58.4264 139.695 58.0595 139.168 58.0754 137.812C58.1393 132.508 58.1791 127.196 58.0595 121.892C58.0196 120.082 58.6098 119.699 60.3247 119.699C94.8289 119.747 129.333 119.731 163.837 119.731C164.699 119.731 165.56 119.723 166.421 119.715Z" fill="#EBEFF2"/>
<path d="M219.407 74.076C219.63 75.9264 218.761 77.4578 217.453 78.7659C208.703 87.5395 199.954 96.3211 191.156 105.055C188.341 107.846 184.568 107.783 181.768 105.007C177.246 100.532 172.755 96.026 168.273 91.5116C165.553 88.7678 165.449 84.7878 167.97 82.2753C170.498 79.7629 174.446 79.8905 177.214 82.6103C179.958 85.3062 182.702 87.9941 185.35 90.7778C186.275 91.7508 186.777 91.6392 187.663 90.7459C194.61 83.727 201.589 76.74 208.592 69.7769C211.63 66.754 215.603 67.0013 218.298 70.2635C219.208 71.3642 219.463 72.6084 219.399 74.076H219.407Z" fill="white"/>
<path d="M151.659 93.8086C141.401 93.8086 131.136 93.8325 120.879 93.8246C118.686 93.8246 117.449 92.8196 117.441 91.1207C117.433 89.4218 118.662 88.3849 120.855 88.3849C130.985 88.377 141.114 88.3929 151.236 88.4089C151.379 90.2114 151.515 92.006 151.659 93.8086Z" fill="#E3E6E8"/>
<path d="M62.023 87.4676C64.0249 87.4676 65.66 89.1106 65.668 91.1206C65.6839 93.1146 64.0249 94.7895 62.0309 94.8055C59.9651 94.8214 58.1945 93.0508 58.2503 91.0249C58.3061 89.0388 59.9731 87.4596 62.023 87.4676Z" fill="#E1E4E7"/>
<path d="M77.2664 91.0809C77.2744 93.1626 75.751 94.7578 73.7091 94.7977C71.5955 94.8455 69.9763 93.1945 70.0003 91.033C70.0322 88.9353 71.5556 87.4518 73.6533 87.4597C75.751 87.4677 77.2504 88.9752 77.2584 91.0809H77.2664Z" fill="#E1E4E7"/>
<path d="M50.2834 87.4596C52.3013 87.4436 53.9603 89.0149 54.0401 91.0249C54.1198 93.0029 52.3093 94.8055 50.2595 94.7975C48.3213 94.7895 46.6064 93.0508 46.6064 91.0966C46.6064 89.1186 48.2655 87.4755 50.2834 87.4596Z" fill="#E1E4E7"/>
<rect x="88.5078" y="147.788" width="104" height="56" fill="#F3F1F3"/>
<rect x="190.508" y="150.788" width="9" height="53" fill="#F3F1F3"/>
<rect x="52.5078" y="146.788" width="47" height="31" fill="#F3F1F3"/>
<rect x="41.5078" y="147.788" width="52" height="53" fill="#F3F1F3"/>
</g>
<rect x="53.5078" y="114.788" width="131" height="32" fill="#F3F1F3"/>
<path d="M111.641 177.497C103.718 177.497 95.7921 177.591 87.8722 177.461C80.7741 177.346 74.3339 172.955 71.7445 166.103C69.0671 159.014 70.7924 151.649 76.3836 146.561C80.4436 142.868 85.298 141.394 90.7648 142.128C91.3682 142.21 91.441 142.043 91.3167 141.558C90.9104 139.981 90.7982 138.377 90.8679 136.758C91.0529 132.546 92.5356 128.829 95.3615 125.724C99.5367 121.137 104.797 119.169 110.937 119.957C116.72 120.7 121.083 123.75 124.045 128.778C124.597 129.714 124.539 129.693 125.237 128.811C127.287 126.224 129.888 124.478 133.126 123.711C137.459 122.683 141.434 123.502 144.988 126.127C148.244 128.532 150.097 131.804 150.591 135.845C150.816 137.677 150.688 139.469 150.221 141.236C150.076 141.782 150.158 141.943 150.737 141.946C155.115 141.964 158.993 143.404 162.31 146.239C165.185 148.698 167.065 151.803 167.962 155.499C168.751 158.741 168.687 161.958 167.629 165.108C165.815 170.511 162.25 174.283 156.895 176.33C154.551 177.224 152.129 177.509 149.636 177.5C142.268 177.476 134.9 177.491 127.532 177.491C127.393 177.24 127.387 176.964 127.387 176.685C127.39 174.668 127.411 172.649 127.377 170.633C127.365 169.975 127.575 169.753 128.242 169.762C130.737 169.793 133.236 169.778 135.731 169.762C135.961 169.762 136.295 169.908 136.401 169.608C136.471 169.408 136.243 169.208 136.101 169.029C135.461 168.219 134.83 167.406 134.197 166.594C132.159 163.977 130.125 161.357 128.09 158.741C125.528 155.448 122.957 152.164 120.413 148.856C119.567 147.758 119.582 147.719 118.724 148.814C115.686 152.689 112.657 156.576 109.625 160.457C107.381 163.328 105.137 166.2 102.893 169.071C102.757 169.244 102.529 169.432 102.639 169.653C102.757 169.89 103.048 169.772 103.26 169.772C105.807 169.778 108.354 169.793 110.901 169.759C111.507 169.75 111.674 169.941 111.665 170.533C111.629 172.852 111.641 175.172 111.635 177.491L111.641 177.497Z" fill="white"/>
<path d="M111.641 177.497C111.647 175.178 111.635 172.858 111.672 170.538C111.681 169.947 111.514 169.756 110.908 169.765C108.361 169.799 105.814 169.783 103.267 169.777C103.054 169.777 102.76 169.896 102.645 169.659C102.533 169.438 102.763 169.25 102.9 169.077C105.144 166.206 107.387 163.334 109.631 160.463C112.663 156.582 115.689 152.698 118.73 148.819C119.588 147.725 119.573 147.764 120.419 148.862C122.963 152.167 125.534 155.454 128.097 158.747C130.131 161.363 132.169 163.983 134.203 166.6C134.837 167.412 135.468 168.225 136.107 169.034C136.25 169.213 136.477 169.413 136.408 169.614C136.301 169.917 135.968 169.768 135.737 169.768C133.242 169.78 130.744 169.799 128.248 169.768C127.581 169.759 127.372 169.981 127.384 170.638C127.417 172.655 127.399 174.674 127.393 176.691C127.393 176.969 127.399 177.245 127.539 177.497C127.357 177.794 127.39 178.128 127.39 178.452C127.39 183.698 127.39 188.94 127.39 194.186C127.39 194.871 127.037 195.215 126.332 195.217C121.769 195.217 117.205 195.202 112.642 195.232C111.935 195.238 111.76 195.029 111.763 194.34C111.79 189.071 111.778 183.801 111.778 178.534C111.778 178.182 111.823 177.825 111.644 177.497H111.641Z" fill="#4465E2"/>
<path d="M152.048 79.9967C153.356 75.0755 154.831 70.2261 157.607 65.8712C164.977 54.3299 175.385 47.6859 189.032 46.1784C189.495 46.1306 189.958 46.1146 190.332 45.7876C197.072 45.7876 203.7 46.5214 209.874 49.4247C223.848 55.9969 232.119 66.8921 234.4 82.2459C235.517 89.7832 234.169 96.9856 231.489 104.012C231.289 104.347 231.058 104.674 230.89 105.033C228.466 110.274 225.084 114.772 220.777 118.64C217.275 121.775 213.24 124 209.156 126.194C205.902 126.991 202.775 128.252 199.401 128.658C193.906 129.32 188.482 129.264 183.09 127.893C182.58 127.765 182.045 127.725 181.527 127.653C176.183 125.827 171.238 123.235 166.723 119.837C162.751 116.319 159.306 112.363 156.753 107.689C155.812 105.959 155.007 104.148 154.137 102.377C153.412 99.5618 152.678 96.7463 151.952 93.9308L151.529 88.531C151.402 85.6676 151.88 82.8441 152.056 80.0047L152.048 79.9967ZM219.692 74.1902C219.764 72.7226 219.501 71.4703 218.591 70.3776C215.896 67.1234 211.923 66.8762 208.885 69.8911C201.882 76.8541 194.895 83.8331 187.956 90.86C187.07 91.7613 186.568 91.873 185.643 90.8919C182.995 88.1083 180.243 85.4204 177.507 82.7245C174.739 80.0047 170.791 79.877 168.263 82.3895C165.742 84.9019 165.846 88.882 168.566 91.6257C173.048 96.1401 177.547 100.647 182.061 105.121C184.861 107.897 188.634 107.961 191.449 105.169C200.247 96.4432 208.996 87.6616 217.746 78.88C219.054 77.572 219.923 76.0326 219.7 74.1902H219.692Z" fill="#EA508E"/>
<path d="M9.13527 75.8584C9.73201 78.1317 8.46679 80.2724 6.16464 80.8769C3.93758 81.4612 1.6304 80.1292 1.07575 77.9437C0.5273 75.7813 1.91783 73.4151 4.07825 72.8362C6.22712 72.2604 8.55556 73.6487 9.13527 75.8584Z" fill="#E6A83B"/>
<path d="M112.376 245.194C112.973 247.467 111.708 249.608 109.406 250.212C107.179 250.796 104.872 249.464 104.317 247.279C103.769 245.117 105.159 242.75 107.319 242.171C109.468 241.596 111.797 242.984 112.376 245.194Z" fill="#E05827"/>
<path d="M194.422 4.58141C195.075 7.01731 193.446 9.80989 191.012 10.4194C188.605 11.0219 185.93 9.48872 185.252 7.11624C184.495 4.50304 185.989 1.91665 188.646 1.21879C191.217 0.543915 193.732 2.00688 194.422 4.58141Z" fill="#E05827"/>
<path d="M264.421 160.134C265.028 162.445 263.759 164.559 261.414 165.156C259.237 165.708 256.966 164.407 256.375 162.271C255.781 160.124 257.183 157.696 259.351 157.109C261.542 156.516 263.83 157.881 264.421 160.134Z" fill="#4465E2"/>
</svg>
