<svg width="84" height="84" viewBox="0 0 84 84" fill="none" xmlns="http://www.w3.org/2000/svg">
<path d="M11.2423 10.021H72.5652C73.2235 10.2499 73.7313 10.6208 73.8433 11.3692C73.8333 11.4511 73.8165 11.5329 73.8165 11.6165C73.8165 21.1141 73.8165 30.6101 73.8182 40.1078C73.8182 40.2832 73.7447 40.4887 73.9402 40.6223V40.7476C73.4607 41.598 72.7724 41.9572 71.7616 41.9438C68.123 41.8987 64.4826 41.9271 60.8423 41.9255C59.6561 41.9255 59.2735 41.6815 58.8809 40.599C58.7823 40.325 58.6337 40.32 58.4198 40.3183C57.7348 40.3116 57.0482 40.2999 56.3632 40.2899C56.3632 38.3987 56.3733 36.5075 56.3632 34.6163C56.3566 33.3082 55.7685 32.6884 54.4787 32.665C53.316 32.6433 52.1515 32.67 50.9887 32.675C50.1601 30.0454 48.5229 28.1626 45.9417 27.1017C45.0262 26.7259 44.2276 26.7208 43.4424 27.3574C42.8827 27.8118 42.2295 27.9872 41.5145 27.8719C40.9849 27.7867 40.5639 27.4643 40.1345 27.1769C39.5565 26.791 38.9784 26.7225 38.3068 26.9631C35.5436 27.9588 33.7727 29.8717 32.9223 32.665C31.7813 32.6634 30.6419 32.6433 29.5008 32.6617C28.1793 32.6834 27.5746 33.3032 27.5695 34.628C27.5612 36.5142 27.5695 38.402 27.5695 40.2882C26.8428 40.2982 26.1161 40.3133 25.3877 40.3166C25.1237 40.3166 24.9433 40.3333 24.8514 40.6725C24.6125 41.5479 24.1029 41.9188 23.1557 41.9204C19.3716 41.9321 15.5859 41.9338 11.8019 41.9204C10.6859 41.9154 10.0828 41.2873 10.0344 40.1763C10.0294 40.051 10.0327 39.9274 10.0327 39.8021C10.0327 30.5901 10.0411 21.3764 10.021 12.1644C10.0193 11.1704 10.32 10.4437 11.2423 10.0243V10.021ZM37.4899 21.6705C37.4999 24.1581 39.6233 26.3817 41.9806 26.37C44.3529 26.3583 46.4546 24.1414 46.4513 21.6521C46.4479 19.1528 44.3479 16.9609 41.9639 16.9676C39.5782 16.9743 37.4815 19.1778 37.4915 21.6705H37.4899Z" fill="#6F6571"/>
<path d="M56.3617 40.2867C56.1629 41.4044 55.6232 41.8989 54.4905 41.8538C53.8757 41.8287 53.727 42.0142 53.7421 42.6106C53.7838 44.3581 53.7638 46.1073 53.7538 47.8548C53.7471 49.1679 53.154 49.746 51.8308 49.746C45.2552 49.7476 38.6778 49.7476 32.1021 49.746C30.7856 49.746 30.1992 49.1612 30.1942 47.8431C30.1875 46.0538 30.1742 44.2629 30.2042 42.4736C30.2126 41.9708 30.0556 41.8488 29.5727 41.8572C28.3114 41.8789 27.7818 41.4378 27.5696 40.2851C27.5696 38.3972 27.5613 36.5111 27.5696 34.6249C27.5763 33.3001 28.1811 32.6803 29.5009 32.6585C30.6403 32.6402 31.7813 32.6585 32.9224 32.6602C33.1396 32.7638 33.3718 32.722 33.599 32.722C39.1907 32.7237 44.7807 32.7237 50.3724 32.722C50.5779 32.722 50.7817 32.6869 50.9872 32.6686C52.1499 32.6635 53.3144 32.6368 54.4772 32.6585C55.7669 32.6836 56.355 33.3017 56.3617 34.6099C56.3717 36.501 56.3617 38.3922 56.3617 40.2834V40.2867Z" fill="#EA508E"/>
<path d="M50.9871 32.6717C50.7816 32.6901 50.5778 32.7252 50.3723 32.7252C44.7807 32.7286 39.1907 32.7286 33.599 32.7252C33.3734 32.7252 33.1412 32.767 32.9224 32.6634C33.7727 29.8701 35.5436 27.9572 38.3069 26.9615C38.9785 26.7192 39.5549 26.7877 40.1346 27.1753C40.5639 27.4627 40.9849 27.7851 41.5145 27.8703C42.2296 27.9856 42.8828 27.8101 43.4425 27.3557C44.2277 26.7175 45.0262 26.7242 45.9418 27.1001C48.5212 28.161 50.1602 30.0421 50.9888 32.6734L50.9871 32.6717Z" fill="#FCF8DF"/>
<path d="M37.49 21.6707C37.4799 19.1797 39.5766 16.9761 41.9623 16.9678C44.3463 16.9611 46.4463 19.1513 46.4497 21.6523C46.453 24.1416 44.3513 26.3585 41.979 26.3702C39.6217 26.3819 37.4983 24.1599 37.4883 21.6707H37.49Z" fill="#FDF9E0"/>
<path d="M41.6314 73.9653C40.8044 73.9453 39.6734 74.0706 38.5691 73.7966C36.0564 73.1718 34.623 71.5395 34.1669 69.0168C33.5538 65.6238 35.6137 62.1922 38.8614 61.1414C39.5097 60.9326 40.0961 60.9443 40.639 61.3369C41.5712 62.0118 42.4667 62.0268 43.3822 61.3118C43.8634 60.9359 44.3947 60.9342 44.976 61.1147C48.9037 62.3309 50.9921 66.9102 49.283 70.6491C48.2772 72.846 46.4496 73.8283 44.1106 73.9586C43.3839 73.9987 42.6538 73.9653 41.6314 73.9653Z" fill="#E6A83B"/>
<path d="M21.2963 73.927C20.4025 73.927 19.4987 74.0188 18.6183 73.9103C15.6027 73.5377 13.75 71.5914 13.4042 68.5324C13.035 65.2646 15.145 62.0687 18.2724 61.1147C18.8538 60.9376 19.3884 60.9426 19.8746 61.2985C20.8352 62.0035 21.7641 62.0503 22.7247 61.2952C23.1808 60.9376 23.6987 60.9326 24.2601 61.108C28.0625 62.2875 30.1541 66.5276 28.7591 70.2682C27.9188 72.5203 25.9441 73.8935 23.4147 73.9654C22.708 73.9854 22.0013 73.9687 21.2947 73.9687C21.2947 73.9554 21.2947 73.942 21.2947 73.9286L21.2963 73.927Z" fill="#4465E2"/>
<path d="M62.4291 73.9685C61.664 73.9268 60.7067 74.0387 59.7528 73.8816C57.1265 73.4489 55.4107 71.81 54.8845 69.2072C54.1795 65.7172 56.2527 62.1904 59.6074 61.1262C60.2372 60.9257 60.8003 60.9591 61.3232 61.3367C62.2521 62.0066 63.1492 62.03 64.0664 61.3117C64.5459 60.9374 65.0771 60.9341 65.6602 61.1128C69.6046 62.3207 71.6946 66.9534 69.9421 70.6974C68.9163 72.8876 67.0769 73.8432 64.7397 73.9618C64.0346 73.9969 63.3246 73.9669 62.4291 73.9669V73.9685Z" fill="#E05827"/>
<path d="M17.1128 56.178C17.1161 53.8791 18.9873 52.0047 21.2777 52.0063C23.5582 52.0097 25.456 53.9075 25.451 56.183C25.446 58.4701 23.5598 60.3496 21.2727 60.3496C18.9806 60.3496 17.1095 58.4734 17.1128 56.178Z" fill="#E05827"/>
<path d="M66.8201 56.2248C66.8034 58.5119 64.9072 60.3713 62.6117 60.3496C60.3329 60.3279 58.4501 58.4067 58.4818 56.1346C58.5153 53.8491 60.4265 51.9797 62.7019 52.0064C64.994 52.0331 66.8351 53.921 66.8184 56.2248H66.8201Z" fill="#E6A83B"/>
<path d="M46.1204 56.1594C46.1288 58.4699 44.2877 60.3377 41.9906 60.3494C39.6934 60.3611 37.8273 58.5017 37.8223 56.1995C37.8173 53.8873 39.6583 52.0162 41.9521 52.0062C44.2476 51.9945 46.1137 53.8539 46.1221 56.1611L46.1204 56.1594Z" fill="#4465E2"/>
</svg>
