<svg width="20" height="20" viewBox="0 0 20 20" fill="none" xmlns="http://www.w3.org/2000/svg">
<path d="M15.1291 14.3869L14.14 15.3652C13.4109 16.0807 12.465 17.0007 11.3017 18.1253C10.5749 18.8281 9.4217 18.828 8.69495 18.1251L5.78567 15.2952C5.42004 14.9362 5.11398 14.6334 4.86744 14.3869C2.03377 11.5533 2.03377 6.95893 4.86744 4.12526C7.70112 1.29158 12.2955 1.29158 15.1291 4.12526C17.9628 6.95893 17.9628 11.5533 15.1291 14.3869ZM12.0818 9.48501C12.0818 8.33431 11.149 7.40149 9.99829 7.40149C8.84762 7.40149 7.91477 8.33431 7.91477 9.48501C7.91477 10.6357 8.84762 11.5685 9.99829 11.5685C11.149 11.5685 12.0818 10.6357 12.0818 9.48501Z" fill="#EA508E"/>
</svg>
