<svg width="84" height="84" viewBox="0 0 84 84" fill="none" xmlns="http://www.w3.org/2000/svg">
<path d="M23.554 23.0161C23.528 18.0951 23.5215 13.1763 23.4672 8.25537C23.4412 5.9608 24.5365 4.99353 26.7963 5.00003C36.4236 5.03256 46.0529 5.01955 55.6823 5.00871C58.3022 5.00654 59.6078 6.25359 59.5862 8.89734C59.5471 13.6036 59.5298 18.3099 59.5037 23.0161C47.5212 23.0161 35.5387 23.0161 23.5562 23.0161H23.554Z" fill="#E9F5FE"/>
<path d="M9.23163 43.7154C8.91498 43.7111 8.57665 43.7761 8.28821 43.6872C6.75054 43.2144 4.26511 45.1663 4.01787 41.4208C3.77063 37.7057 6.13894 38.6882 7.99976 38.4409C9.71526 38.4626 11.4308 38.4865 13.1463 38.5081C14.877 38.4995 16.6055 38.4886 18.3362 38.48C22.6108 38.48 26.8855 38.48 31.1602 38.48C38.0743 38.48 44.9862 38.48 51.9002 38.48C57.0186 38.4734 62.1391 38.4691 67.2574 38.4648C68.7972 38.4648 70.3392 38.4648 71.8812 38.4669C73.3842 38.493 74.9067 38.6795 76.388 38.506C78.676 38.2371 78.945 39.3345 78.997 41.2777C79.0534 43.351 78.3139 43.9583 76.4032 43.7197C75.5573 43.6135 74.6876 43.7132 73.8266 43.7197C72.0786 43.7262 70.3306 43.7349 68.5825 43.7414C62.5295 43.7284 56.4764 43.774 50.4255 43.6699C48.4367 43.6352 47.6494 44.3096 48.0789 46.2724L47.875 46.2941C43.6437 46.2941 39.4124 46.2941 35.1789 46.2941L34.9772 46.2724C35.4067 44.3118 34.6194 43.6352 32.6306 43.6699C26.5797 43.774 20.5266 43.7284 14.4736 43.7414C12.7255 43.7349 10.9775 43.7262 9.22946 43.7197L9.23163 43.7154Z" fill="#CAB192"/>
<path d="M68.5886 54.0728C50.5465 54.0728 32.5066 54.0728 14.4645 54.0728C14.4493 51.4833 14.4341 48.8959 14.4189 46.3064L14.4753 46.25C21.3092 46.2565 28.1452 46.263 34.979 46.2674L35.1807 46.289C35.2154 48.0349 36.2759 48.7831 37.8526 48.8309C40.1038 48.8981 42.3615 48.8872 44.6149 48.8352C46.2892 48.7961 47.4343 47.9655 47.8767 46.2912C47.8767 46.2912 48.0806 46.2695 48.0784 46.2695C54.9123 46.263 61.7483 46.2565 68.5821 46.2522L68.6385 46.3086C68.6233 48.8981 68.6081 51.4854 68.5908 54.075L68.5886 54.0728Z" fill="#7F6E5D"/>
<path d="M23.5541 23.0161C35.5366 23.0161 47.5191 23.0161 59.5017 23.0161C59.6058 27.4079 58.8185 28.2103 54.3812 28.2234C51.8155 28.2299 49.2477 28.2234 46.682 28.2234H36.3738C33.7083 28.2234 31.0429 28.2255 28.3796 28.2234C23.6886 28.219 23.3784 27.8829 23.5541 23.0161Z" fill="#C5C4C9"/>
<path d="M14.4195 46.3067C14.4347 48.8962 14.4498 51.4836 14.465 54.0731C14.4585 61.7766 14.3804 69.4823 14.4954 77.1858C14.5279 79.3004 13.9033 79.9163 11.8083 79.873C9.92577 79.8339 9.21441 79.4544 9.24043 77.3897C9.3814 67.0143 9.35972 56.6345 9.39442 46.2568C11.0687 46.2742 12.743 46.2894 14.4173 46.3067H14.4195Z" fill="#CAB192"/>
<path d="M68.5891 54.0731C68.6043 51.4836 68.6195 48.8962 68.6347 46.3067C70.309 46.2894 71.9833 46.2742 73.6597 46.2568C73.6944 56.7407 73.6749 67.2268 73.8094 77.7107C73.8376 79.8339 72.7727 79.8036 71.2459 79.8404C69.526 79.8816 68.5154 79.745 68.5522 77.5068C68.6889 69.697 68.5956 61.8851 68.5891 54.0731Z" fill="#CAB192"/>
<path d="M51.8983 38.4795C44.9842 38.4795 38.0723 38.4795 31.1582 38.4795C31.2565 35.1439 32.9677 33.4269 36.2917 33.3286C39.7834 33.3286 43.2752 33.3286 46.7669 33.3286C51.2216 33.5108 51.7248 34.0139 51.9004 38.4795H51.8983Z" fill="#898890"/>
<path d="M13.0511 23.0661C12.6998 20.2944 14.5216 20.5286 16.4019 20.4419C18.7268 20.3356 18.3169 21.8364 18.3104 23.168C18.2909 26.5817 18.2475 29.9953 18.2128 33.4112C16.5667 33.4003 14.9184 33.3895 13.2723 33.3786H13.0446C13.0446 29.9433 13.0468 26.5058 13.0489 23.0683L13.0511 23.0661Z" fill="#F8DFA0"/>
<path d="M13.051 23.0658C13.051 26.5033 13.0488 29.9408 13.0466 33.3784C11.4005 33.3805 9.75441 33.3849 8.1083 33.387C8.0736 31.0513 8.25578 28.6851 7.94781 26.384C7.54659 23.3976 8.81533 22.6299 11.4612 23.0528C11.9796 23.1352 12.5218 23.0658 13.0531 23.0658H13.051Z" fill="#AAC16C"/>
<path d="M36.3737 28.2231H46.682C46.6516 29.069 46.6191 29.9148 46.5887 30.7606C43.2141 30.7606 39.8395 30.7606 36.4648 30.7606C36.4345 29.9148 36.4019 29.069 36.3716 28.2231H36.3737Z" fill="#88878F"/>
<path d="M36.4672 30.7632C39.8418 30.7632 43.2164 30.7632 46.5911 30.7632C46.6496 31.6177 46.7082 32.4722 46.7667 33.3289C43.275 33.3289 39.7832 33.3289 36.2915 33.3289C36.3501 32.4744 36.4086 31.6199 36.4672 30.7632Z" fill="#ABAAB0"/>
<path d="M8.10817 33.3873C9.75427 33.3851 11.4004 33.3808 13.0465 33.3786L13.2742 33.3765C13.2308 35.0876 13.1875 36.7966 13.1441 38.5078C11.4286 38.4861 9.71307 38.4644 7.99756 38.4406C8.03443 36.7554 8.0713 35.0725 8.10817 33.3873Z" fill="#79A63A"/>
<path d="M13.144 38.5078C13.1874 36.7966 13.2308 35.0855 13.2742 33.3765C14.9203 33.3873 16.5685 33.3982 18.2147 33.409C18.2559 35.0985 18.2949 36.7901 18.3339 38.4796C16.6033 38.4883 14.8726 38.4991 13.144 38.5078Z" fill="#F3C962"/>
<path d="M75.9628 20.598C75.9628 22.6931 74.1866 24.363 73.473 26.4841C73.306 26.9808 72.5621 26.9591 72.0199 26.8159C71.198 26.5969 71.0331 25.8443 71.276 25.2891C72.1349 23.3459 73.0957 21.446 74.1106 19.5787C74.3861 19.0712 75.0736 19.171 75.5941 19.3271C76.0756 19.4703 76.2252 19.8455 75.9606 20.6002L75.9628 20.598Z" fill="#BEDBFE"/>
<path d="M67.3789 26.8919C65.9432 26.8616 65.7979 25.8249 66.1883 24.888C66.9257 23.1204 67.8843 21.4418 68.7952 19.7501C69.0836 19.2166 69.6648 19.2057 70.2157 19.273C70.7189 19.3359 71.0225 19.6503 70.9531 20.1231C70.5931 22.6042 69.1855 24.6342 68.0101 26.7596C67.945 26.8789 67.611 26.8485 67.3789 26.8919Z" fill="#BEDBFE"/>
<path d="M14.4192 46.3065C12.7449 46.2892 11.0706 46.274 9.39627 46.2567C9.34205 45.4087 9.28783 44.5628 9.23145 43.7148C10.9795 43.7214 12.7275 43.73 14.4756 43.7365C14.4756 44.5737 14.4756 45.413 14.4756 46.2502L14.4192 46.3065Z" fill="#7F6E5D"/>
<path d="M73.6599 46.2569C71.9856 46.2721 70.3113 46.2895 68.6348 46.3068C68.6348 46.3068 68.5806 46.2504 68.5806 46.2526C68.5806 45.4154 68.5806 44.5761 68.5806 43.739C70.3286 43.7325 72.0766 43.7238 73.8247 43.7173C73.7705 44.5653 73.7162 45.4111 73.6599 46.2591V46.2569Z" fill="#7F6E5D"/>
<path d="M14.4736 46.2505C14.4736 45.4134 14.4736 44.574 14.4736 43.7369C20.5267 43.7239 26.5798 43.7694 32.6307 43.6653C34.6195 43.6306 35.4067 44.3073 34.9773 46.2679C28.1413 46.2614 21.3075 46.2548 14.4736 46.2505Z" fill="#635444"/>
<path d="M68.5803 43.7369C68.5803 44.574 68.5803 45.4134 68.5803 46.2505C61.7443 46.257 54.9105 46.2614 48.0766 46.2679C47.6472 44.3051 48.4345 43.6306 50.4233 43.6653C56.4742 43.7673 62.5272 43.7239 68.5803 43.7369Z" fill="#635444"/>
<path d="M47.8752 46.2912C47.435 47.9677 46.2877 48.7962 44.6134 48.8352C42.36 48.8873 40.1045 48.9003 37.8511 48.8309C36.2723 48.7832 35.2139 48.0349 35.1792 46.2891C39.4127 46.2891 43.644 46.2891 47.8752 46.2891V46.2912Z" fill="#C3996B"/>
<ellipse cx="69" cy="35.75" rx="3" ry="2.75" fill="#F7AE6B"/>
<path d="M71 31C71 31 69 32.4 69 34L69.2111 33.8944C70.3075 33.3463 71 32.2257 71 31Z" fill="#8CDD65"/>
</svg>
