<svg width="84" height="84" viewBox="0 0 84 84" fill="none" xmlns="http://www.w3.org/2000/svg">
<path d="M10.2949 5.00381H74.438C74.5294 5.4438 74.9923 5.37713 75.257 5.59046C76.2151 6.35616 76.2799 7.42851 76.2799 8.48943C76.2951 22.0472 76.2894 35.603 76.2856 49.1608C76.2856 49.4103 76.3808 49.6884 76.1484 49.8998C67.5506 49.8998 58.9527 49.8998 50.3548 49.8998C50.3491 49.5207 50.3434 49.1398 50.3377 48.7608C50.6939 48.7589 51.0501 48.7722 51.4043 48.7493C52.13 48.7017 52.6653 48.1284 52.631 47.4579C52.5967 46.7494 52.1491 46.3475 51.3529 46.3399C50.2158 46.3304 49.0768 46.3342 47.9397 46.3323C47.8825 45.4847 48.0216 44.6294 47.793 43.7876C47.1416 41.3857 45.5911 39.8372 43.176 39.4048C40.7551 38.9725 38.6961 39.7743 37.2237 41.8505C36.26 43.2104 36.1628 44.7494 36.2238 46.3323C35.0848 46.3323 33.9476 46.3285 32.8086 46.3399C32.041 46.3475 31.5953 46.7227 31.5325 47.3856C31.4772 47.9836 31.9286 48.6236 32.5477 48.7208C32.9648 48.7874 33.3991 48.7493 33.8257 48.757C33.82 49.136 33.8143 49.5169 33.8067 49.896C27.9421 49.896 22.0756 49.8998 16.211 49.896C12.9596 49.8941 10.2949 47.218 10.2949 43.9647C10.2949 30.9765 10.2949 17.9882 10.2949 5V5.00381ZM44.9512 35.3687C45.0426 35.264 45.1588 35.1706 45.2216 35.0506C46.0178 33.5174 45.6883 31.8774 44.2731 30.6489C43.1969 29.7155 41.5227 29.4965 40.0865 30.5117C37.6675 32.2298 38.258 35.523 40.6027 36.6163C42.3569 37.4353 44.4636 36.5154 44.9512 35.3668V35.3687ZM68.3087 25.388C68.421 25.3252 68.4477 25.2185 68.4515 25.1004C68.9277 24.009 69.1105 22.8586 69.1601 21.6777C69.1943 21.2243 69.0801 20.7863 69.0324 20.3425C68.7639 17.7882 67.4725 15.8054 65.5563 14.2093C64.8783 13.6455 64.1145 13.1274 63.1869 12.9846C63.0478 12.8036 62.8402 12.7503 62.6364 12.6874C58.7032 11.4855 54.7966 12.6779 52.2272 15.9464C52.0043 16.2302 51.6615 16.4873 51.7605 16.9368C51.5262 16.9845 51.4329 17.1521 51.332 17.3578C50.3682 19.3063 50.0691 21.3539 50.5072 23.4719C50.8196 24.9785 51.3491 26.4147 52.4881 27.5385C52.631 27.9042 52.8957 28.1784 53.1814 28.4261C56.1871 31.0241 59.5717 31.8203 63.3126 30.3365C65.6382 29.4127 67.3582 27.7594 68.3106 25.388H68.3087ZM16.4243 16.6911C14.1043 20.272 14.5577 25.1557 17.8262 28.3575C20.9956 31.4622 25.5174 31.9269 29.3516 29.6527C31.1306 28.5975 32.4372 27.089 33.1362 25.1042C33.6219 24.0128 33.8467 22.8681 33.8086 21.6739C34.0048 16.7426 29.5611 11.9998 24.4069 12.2703C21.8261 12.2227 19.6356 13.1179 17.8414 14.9769C17.2947 15.3959 16.8528 15.9007 16.5633 16.5311C16.5176 16.5845 16.47 16.6378 16.4243 16.6911ZM22.0375 39.222C23.9822 39.222 25.9269 39.2258 27.8716 39.222C28.643 39.2201 29.1078 38.782 29.1097 38.081C29.1097 37.3877 28.6411 36.9363 27.8602 36.9344C23.9936 36.9268 20.127 36.9287 16.2624 36.9344C15.5443 36.9344 15.0205 37.4449 15.0053 38.1096C14.99 38.761 15.5043 39.2201 16.2738 39.222C18.1957 39.2258 20.1156 39.222 22.0375 39.222ZM62.0841 39.2144C64.0288 39.2144 65.9754 39.2163 67.9201 39.2144C68.6534 39.2144 69.1524 38.782 69.162 38.1534C69.1715 37.5096 68.5772 36.9325 67.8763 36.9325C64.0326 36.9287 60.1889 36.9287 56.3452 36.9325C55.5109 36.9325 55.0347 37.3782 55.0538 38.1058C55.0709 38.7991 55.5357 39.2124 56.3185 39.2144C58.2403 39.2163 60.1622 39.2144 62.0841 39.2144ZM20.3442 42.7876C19.0376 42.7876 17.7328 42.78 16.4262 42.7895C15.5557 42.7952 15.0224 43.2428 15.0053 43.9533C14.9862 44.698 15.5291 45.1818 16.4319 45.1856C19.0204 45.1932 21.607 45.1932 24.1955 45.1856C25.0336 45.1837 25.6069 44.7056 25.6298 44.0199C25.6545 43.3133 25.0583 42.7952 24.1898 42.7895C22.9079 42.7819 21.6261 42.7895 20.3442 42.7876ZM63.8173 45.1875C65.124 45.1875 66.4287 45.1951 67.7353 45.1856C68.6039 45.1799 69.1391 44.7285 69.1582 44.0218C69.1791 43.2771 68.6344 42.7933 67.7315 42.7914C65.143 42.7838 62.5564 42.7857 59.9679 42.7914C59.1279 42.7914 58.5565 43.2676 58.5318 43.9533C58.507 44.6599 59.1013 45.1818 59.9698 45.1875C61.2517 45.1951 62.5336 45.1894 63.8154 45.1894L63.8173 45.1875ZM42.0503 15.7007C43.1874 15.7007 44.3264 15.7064 45.4635 15.6988C46.3016 15.6931 46.7873 15.2626 46.7835 14.5502C46.7816 13.8379 46.2978 13.4131 45.454 13.4093C43.2026 13.4036 40.9494 13.4036 38.698 13.4093C37.8599 13.4112 37.3761 13.8455 37.378 14.5578C37.3799 15.2683 37.8637 15.6931 38.7075 15.6988C39.8218 15.7064 40.936 15.6988 42.0503 15.6988V15.7007ZM42.0693 21.6567C42.8293 21.6567 43.5893 21.6758 44.3493 21.651C45.0978 21.6281 45.6464 21.0682 45.6292 20.3977C45.6121 19.7272 45.1131 19.2682 44.3378 19.2625C42.8426 19.2492 41.3455 19.2511 39.8503 19.2625C39.0466 19.2682 38.5228 19.7577 38.5361 20.4472C38.5494 21.1177 39.1018 21.6358 39.8637 21.6548C40.5989 21.6739 41.336 21.6586 42.0712 21.6586L42.0693 21.6567Z" fill="#F3F1F3"/>
<path d="M33.8031 52.1872C26.0186 52.1872 18.234 52.1853 10.4495 52.1834C8.83045 52.1834 8.01333 51.3587 8.01333 49.7282C8.01333 35.7495 8.02095 21.7708 8 7.79407C8 6.58076 8.41332 5.73888 9.54282 5.27794C9.67424 5.22461 9.71424 5.12747 9.72567 5.00366H10.2952C10.2952 17.9919 10.2952 30.9801 10.2952 43.9684C10.2952 47.2197 12.9599 49.8977 16.2112 49.8996C22.0758 49.9034 27.9423 49.8996 33.8069 49.8996C33.8069 50.6615 33.805 51.4253 33.8031 52.1872Z" fill="#E8E7E8"/>
<path d="M52.629 75.7008C52.6328 76.057 52.61 76.4132 52.6442 76.7656C52.7071 77.3922 52.3757 77.7884 51.9166 78.1236H32.2467C31.6753 77.756 31.4638 77.2379 31.5153 76.5618C31.5591 75.9751 31.521 75.3827 31.5248 74.7942C31.5324 73.8152 31.9191 73.4304 32.8962 73.4209C33.2028 73.4171 33.5095 73.4209 33.8162 73.4209H33.82C33.8181 73.6342 33.8143 73.8475 33.8143 74.0609C33.8143 75.3885 34.1209 75.7027 35.4104 75.7027C41.1493 75.7027 46.8901 75.7027 52.629 75.7027V75.7008Z" fill="#C3A989"/>
<path d="M33.8109 21.6735C33.8471 22.8678 33.6243 24.0125 33.1386 25.1039C33.0243 25.1839 32.8871 25.2449 32.7995 25.3477C30.5158 27.9953 27.6606 29.1838 24.175 28.6657C19.438 27.961 16.1542 24.1154 16.1295 19.3536C16.1238 18.445 16.4285 17.5879 16.4266 16.6908C16.4723 16.6375 16.5199 16.5841 16.5657 16.5308C16.8571 15.9023 17.2971 15.3956 17.8437 14.9766C18.6666 15.8223 19.4799 16.6775 20.316 17.5117C21.6722 18.8603 23.0417 20.1936 24.4074 21.5345C24.6207 21.7611 24.8969 21.6678 25.1464 21.6678C28.0339 21.6754 30.9234 21.6735 33.8109 21.6735Z" fill="#AAC16C"/>
<path d="M51.7626 16.9347C51.6635 16.487 52.0083 16.228 52.2292 15.9461C54.7968 12.6776 58.7052 11.4853 62.6385 12.6871C62.8442 12.75 63.0499 12.8033 63.1889 12.9843C62.0404 15.8794 60.8937 18.7765 59.7452 21.6717C59.3185 22.0069 58.8862 22.3326 58.469 22.6774C57.09 23.8164 55.7167 24.9611 54.3396 26.102C54.2939 26.1039 54.2482 26.1058 54.2025 26.1078C53.6406 25.4392 53.0749 24.7706 52.6521 24.003C51.4178 21.7669 51.174 19.4013 51.7606 16.9328L51.7626 16.9347Z" fill="#FEEBB1"/>
<path d="M33.8032 52.189C33.8032 51.4271 33.8051 50.6634 33.807 49.9015C33.8127 49.5224 33.8185 49.1415 33.8242 48.7625C39.3288 48.7625 44.8334 48.7625 50.338 48.7625C50.3437 49.1415 50.3495 49.5224 50.3571 49.9015C50.3476 50.2805 50.338 50.6615 50.3285 51.0405C48.8219 51.0405 47.3172 51.0386 45.8105 51.0481C45.5629 51.0481 45.2867 50.9567 45.0753 51.1795C44.0277 50.9033 42.9611 51.0614 41.9059 51.0538C40.9687 51.0481 40.0183 50.9167 39.0907 51.1795C37.7536 50.7205 36.2432 51.8138 36.2413 53.2576C36.2355 59.9774 36.2374 66.6972 36.2374 73.417C35.4318 73.417 34.6261 73.4171 33.8223 73.419H33.8185C33.8147 66.341 33.8089 59.265 33.8051 52.1871L33.8032 52.189Z" fill="#C3A989"/>
<path d="M54.3418 26.1039C55.717 24.9611 57.0903 23.8164 58.4712 22.6793C58.8883 22.3345 59.3207 22.0088 59.7474 21.6736C62.8863 21.6755 66.0234 21.6774 69.1624 21.6793C69.1128 22.8583 68.93 24.0107 68.4538 25.1021C68.3376 25.163 68.3129 25.2716 68.311 25.3897L68.3129 25.3878C68.0386 25.384 67.8748 25.5725 67.7395 25.7611C67.3738 26.2658 66.8862 26.6373 66.3872 26.9877C64.2215 28.5077 61.833 29.1496 59.2102 28.6525C57.3436 28.2982 55.6599 27.5382 54.3418 26.1058V26.1039Z" fill="#F3C962"/>
<path d="M33.8108 21.6737C30.9232 21.6737 28.0338 21.6737 25.1463 21.668C24.8967 21.668 24.6206 21.7613 24.4072 21.5346C24.4072 18.4471 24.4072 15.3596 24.4072 12.272C29.5614 12.0016 34.0051 16.7424 33.8089 21.6756L33.8108 21.6737Z" fill="#DDF3A2"/>
<path d="M36.2239 46.332C36.1629 44.7511 36.26 43.2102 37.2238 41.8502C38.6962 39.7741 40.7552 38.9703 43.1761 39.4046C45.5912 39.837 47.1398 41.3836 47.7931 43.7873C48.0216 44.6311 47.8826 45.4844 47.9397 46.332C44.0351 46.332 40.1285 46.332 36.2239 46.332Z" fill="#89B140"/>
<path d="M50.3267 51.0406C50.3362 50.6616 50.3457 50.2806 50.3552 49.9016C58.9531 49.9016 67.551 49.9016 76.1488 49.9016C76.1203 51.2673 75.1793 52.1835 73.7984 52.1835C65.9853 52.1854 58.1722 52.1873 50.3571 52.1873C50.3476 51.8044 50.3362 51.4216 50.3267 51.0387V51.0406Z" fill="#E8E7E8"/>
<path d="M69.1621 21.6772C66.0231 21.6753 62.886 21.6734 59.7471 21.6715C60.8956 18.7764 62.0422 15.8793 63.1908 12.9841C64.1165 13.127 64.8822 13.6451 65.5603 14.2089C67.4764 15.805 68.7678 17.7878 69.0364 20.342C69.084 20.7877 69.1983 21.2239 69.164 21.6772H69.1621Z" fill="#F8DFA0"/>
<path d="M36.2242 46.3319C40.1289 46.3319 44.0354 46.3319 47.9401 46.3319C49.0791 46.3319 50.2162 46.3281 51.3552 46.3395C52.1514 46.3471 52.599 46.7471 52.6333 47.4576C52.6657 48.1281 52.1324 48.6995 51.4067 48.749C51.0524 48.7718 50.6962 48.7585 50.34 48.7604C44.8354 48.7604 39.3308 48.7604 33.8262 48.7604C33.3995 48.7509 32.9652 48.789 32.5481 48.7242C31.9291 48.6252 31.4777 47.9852 31.5329 47.389C31.5957 46.7243 32.0415 46.349 32.8091 46.3433C33.9481 46.3338 35.0852 46.3376 36.2242 46.3357V46.3319Z" fill="#FBD5AC"/>
<path d="M16.4248 16.6909C16.4267 17.5899 16.122 18.4471 16.1277 19.3537C16.1544 24.1155 19.4362 27.9611 24.1732 28.6658C27.6569 29.1839 30.514 27.9954 32.7977 25.3478C32.8853 25.245 33.0225 25.184 33.1368 25.104C32.4377 27.0868 31.1311 28.5973 29.3521 29.6525C25.5179 31.9267 20.9942 31.462 17.8267 28.3573C14.5582 25.1555 14.1068 20.2718 16.4248 16.6909Z" fill="#89B140"/>
<path d="M24.4074 12.272C24.4074 15.3596 24.4074 18.4471 24.4074 21.5346C23.0436 20.1937 21.6722 18.8604 20.3161 17.5119C19.4799 16.6795 18.6666 15.8224 17.8438 14.9767C19.638 13.1196 21.8284 12.2225 24.4093 12.2701L24.4074 12.272Z" fill="#C7E084"/>
<path d="M54.3416 26.1039C55.6597 27.5362 57.3434 28.2962 59.2101 28.6505C61.8328 29.1476 64.2214 28.5057 66.387 26.9858C66.8861 26.6353 67.3718 26.2639 67.7394 25.7591C67.8746 25.5725 68.0384 25.382 68.3127 25.3858C67.3603 27.7572 65.6404 29.4105 63.3147 30.3342C59.5758 31.818 56.1911 31.0218 53.1835 28.4238C52.8959 28.1762 52.6312 27.9019 52.4902 27.5362C53.0616 27.06 53.635 26.5858 54.2064 26.1096C54.2521 26.1077 54.2978 26.1058 54.3435 26.1039H54.3416Z" fill="#F0C150"/>
<path d="M22.038 39.2218C20.1161 39.2218 18.1962 39.2256 16.2743 39.2218C15.5048 39.2218 14.9886 38.7608 15.0058 38.1094C15.021 37.4428 15.5448 36.9342 16.2629 36.9342C20.1295 36.9285 23.996 36.9266 27.8607 36.9342C28.6416 36.9342 29.1121 37.3875 29.1102 38.0809C29.1102 38.7799 28.6435 39.218 27.8721 39.2218C25.9274 39.2275 23.9827 39.2218 22.038 39.2218Z" fill="#89B140"/>
<path d="M62.0845 39.2142C60.1626 39.2142 58.2407 39.2161 56.3189 39.2142C55.5361 39.2142 55.0713 38.7989 55.0542 38.1056C55.037 37.3799 55.5132 36.9342 56.3456 36.9323C60.1893 36.9266 64.033 36.9285 67.8767 36.9323C68.5776 36.9323 69.1719 37.5094 69.1624 38.1532C69.1528 38.7799 68.6538 39.2123 67.9205 39.2142C65.9758 39.218 64.0292 39.2142 62.0845 39.2142Z" fill="#EFC150"/>
<path d="M40.0849 30.5134C41.5211 29.4982 43.1953 29.7172 44.2715 30.6505C45.6867 31.8772 46.0181 33.5171 45.22 35.0523C45.1572 35.1723 45.041 35.2637 44.9496 35.3704C44.7438 35.418 44.5362 35.4637 44.3305 35.5133C42.1344 36.0333 40.3554 34.9247 39.8468 32.7438C39.664 31.9629 40.003 31.2562 40.0849 30.5153V30.5134Z" fill="#F2D6B4"/>
<path d="M20.3448 42.7873C21.6266 42.7873 22.9085 42.7816 24.1904 42.7892C25.0589 42.7949 25.6551 43.313 25.6303 44.0197C25.6056 44.7054 25.0342 45.1834 24.1961 45.1853C21.6076 45.1911 19.021 45.193 16.4325 45.1853C15.5297 45.1834 14.9868 44.6977 15.0059 43.953C15.023 43.2425 15.5563 42.7949 16.4268 42.7892C17.7334 42.7797 19.0381 42.7873 20.3448 42.7873Z" fill="#A09AA2"/>
<path d="M63.8176 45.1872C62.5357 45.1872 61.2539 45.193 59.972 45.1853C59.1035 45.1796 58.5092 44.6596 58.5339 43.9511C58.5587 43.2654 59.1301 42.7911 59.9701 42.7892C62.5586 42.7835 65.1452 42.7816 67.7337 42.7892C68.6365 42.7911 69.1794 43.2749 69.1603 44.0197C69.1413 44.7282 68.6061 45.1777 67.7375 45.1834C66.4309 45.193 65.1262 45.1853 63.8195 45.1853L63.8176 45.1872Z" fill="#A09AA2"/>
<path d="M42.0507 15.7007C40.9364 15.7007 39.8222 15.7064 38.7079 15.7007C37.866 15.695 37.3822 15.2722 37.3784 14.5598C37.3765 13.8474 37.8603 13.4132 38.6984 13.4113C40.9498 13.4056 43.203 13.4056 45.4544 13.4113C46.2982 13.4132 46.7801 13.8398 46.7839 14.5522C46.7858 15.2646 46.302 15.695 45.4639 15.7007C44.3268 15.7084 43.1878 15.7026 42.0507 15.7026V15.7007Z" fill="#DDF3A2"/>
<path d="M42.0696 21.6566C41.3324 21.6566 40.5972 21.6719 39.862 21.6528C39.1001 21.6338 38.5478 21.1157 38.5344 20.4453C38.5211 19.7577 39.0468 19.2681 39.8487 19.2605C41.3439 19.2491 42.841 19.2472 44.3362 19.2605C45.1114 19.2681 45.6104 19.7272 45.6276 20.3957C45.6447 21.0662 45.0962 21.6243 44.3476 21.649C43.5876 21.6738 42.8277 21.6547 42.0677 21.6547L42.0696 21.6566Z" fill="#A09AA2"/>
<path d="M54.2044 26.1098C53.633 26.586 53.0597 27.0603 52.4883 27.5364C51.3512 26.4146 50.8198 24.9765 50.5074 23.4699C50.0693 21.3518 50.3703 19.3024 51.3321 17.3558C51.4331 17.152 51.5264 16.9843 51.7607 16.9348C51.174 19.4014 51.4179 21.769 52.6521 24.0051C53.075 24.7727 53.6426 25.4413 54.2025 26.1098H54.2044Z" fill="#FEE2A2"/>
<path d="M40.0852 30.5134C40.0052 31.2563 39.6642 31.961 39.8471 32.7419C40.3575 34.9228 42.1365 36.0314 44.3308 35.5114C44.5365 35.4619 44.7441 35.4162 44.9498 35.3685C44.4622 36.519 42.3556 37.4371 40.6013 36.618C38.2566 35.5228 37.6643 32.2296 40.0852 30.5134Z" fill="#EDCBAC"/>
<path d="M68.3091 25.3877C68.311 25.2696 68.3357 25.161 68.4519 25.1001C68.4481 25.2182 68.4215 25.3249 68.3091 25.3877Z" fill="#C8DFFE"/>
<path d="M50.3264 51.0407C50.3359 51.4236 50.3473 51.8064 50.3568 52.1893C50.353 59.2672 50.3492 66.3432 50.3454 73.4211C45.6408 73.4211 40.938 73.4192 36.2334 73.4173C36.2334 66.6975 36.2334 59.9777 36.2372 53.2578C36.2372 51.8141 37.7496 50.7208 39.0867 51.1798C38.7686 51.6312 38.2924 52.0293 38.6276 52.6883C38.9705 53.3607 39.5666 53.4731 40.2371 53.4693C41.5133 53.4616 42.7894 53.4654 44.0637 53.4693C44.4751 53.4693 44.8656 53.4045 45.1894 53.134C45.816 52.6102 45.7817 52.1036 45.0732 51.1817C45.2846 50.9588 45.5608 51.0522 45.8084 51.0503C47.3131 51.0407 48.8197 51.0446 50.3264 51.0426V51.0407Z" fill="#FBD5AC"/>
<path d="M36.2373 73.4172C40.9419 73.4172 45.6447 73.4191 50.3493 73.421C50.3722 73.421 50.3969 73.421 50.4198 73.421C52.5721 73.421 52.6673 73.5201 52.6312 75.701C46.8923 75.701 41.1515 75.701 35.4126 75.701C34.1231 75.701 33.8183 75.3867 33.8164 74.0591C33.8164 73.8458 33.8202 73.6325 33.8221 73.4191C34.6278 73.4191 35.4335 73.4191 36.2373 73.4172Z" fill="#CAB192"/>
<path d="M48.7169 46.3319C48.4312 46.3319 48.1455 46.3319 47.8598 46.3319C47.8617 45.2329 47.8617 44.1339 47.8693 43.0349C47.8693 42.852 47.8046 42.7777 47.6179 42.7796C47.2789 42.7834 46.9398 42.772 46.6008 42.7663C46.7151 42.4787 46.6979 42.1968 46.5703 41.9187C46.8998 41.9663 47.2312 41.9301 47.5608 41.9397C48.3322 41.9606 48.7055 42.3415 48.7074 43.113C48.7112 44.1853 48.7131 45.2596 48.7169 46.3319Z" fill="#B6AEB7"/>
<path d="M35.5842 46.3265C35.3118 46.3285 35.0394 46.3304 34.7651 46.3323C34.767 45.2618 34.7689 44.1933 34.7709 43.1228C34.7709 42.3381 35.1423 41.959 35.927 41.9419C36.2565 41.9343 36.586 41.9286 36.9156 41.9229C36.7784 42.199 36.7879 42.4828 36.8832 42.7685C36.5537 42.7743 36.2222 42.7914 35.8927 42.78C35.6604 42.7724 35.5727 42.8562 35.5746 43.0885C35.5823 44.1685 35.5804 45.2485 35.5823 46.3284L35.5842 46.3265Z" fill="#B6AEB7"/>
<path d="M46.5707 41.9209C46.6983 42.199 46.7135 42.4809 46.6011 42.7685C46.3726 43.1533 46.0469 43.3762 45.5878 43.3057C45.1364 43.2352 44.8297 42.8885 44.7974 42.4543C44.765 42.0181 45.0031 41.6391 45.4069 41.4905C45.8411 41.3286 46.243 41.46 46.5249 41.8562C46.5402 41.8771 46.5554 41.9 46.5707 41.9209Z" fill="#7F6E5D"/>
<path d="M36.8851 42.7683C36.7899 42.4826 36.7804 42.2007 36.9175 41.9226C37.1308 41.5683 37.447 41.3931 37.8546 41.4312C38.2432 41.4673 38.5079 41.6902 38.6413 42.0616C38.8032 42.5187 38.5917 43.0178 38.148 43.2254C37.7003 43.4349 37.1994 43.2806 36.9461 42.8559C36.927 42.8254 36.9061 42.7968 36.8851 42.7683Z" fill="#7F6E5D"/>
<rect x="38.4014" y="50.709" width="7.80932" height="2.85707" rx="1.14283" fill="#C3A989"/>
</svg>
