<svg width="84" height="84" viewBox="0 0 84 84" fill="none" xmlns="http://www.w3.org/2000/svg">
<path d="M35.7393 63.8827C28.1209 63.8827 20.5026 63.8827 12.8843 63.8827C12.8757 63.7504 12.8608 63.6181 12.8608 63.4858C12.8608 53.5072 12.8629 43.5308 12.8651 33.5523C13.3025 33.6526 13.74 33.7529 14.1753 33.8511C14.1753 34.8071 14.1284 35.7567 14.2671 36.7128C15.1207 42.6068 18.3259 46.6123 23.8764 48.7506C24.0557 48.8189 24.2413 48.9597 24.4675 48.7655C24.3182 48.5671 24.1795 48.3771 24.0365 48.1893C22.6409 46.3349 22.5512 44.0387 23.8231 42.0819C24.5316 40.9935 25.5324 40.2808 26.7808 39.9201C27.1009 39.8284 27.4295 39.743 26.9216 39.4208C24.0066 36.1216 25.6946 31.6061 29.4483 30.6117C29.4995 30.6074 29.5507 30.601 29.6019 30.5968C29.5592 30.5605 29.5144 30.5221 29.4717 30.4858C29.4867 30.4367 29.4824 30.3919 29.4611 30.3449C29.4717 30.1636 29.3352 30.0611 29.237 29.9416C26.7466 26.8836 27.867 22.7885 31.5609 21.442C31.6868 21.395 31.8938 21.442 31.9109 21.1496C27.5917 20.2064 23.6396 21.0066 20.0523 23.5738C18.0421 25.0121 16.5867 26.9242 15.4451 29.0944C14.5872 28.7701 13.6418 28.7253 12.8203 28.2857C12.609 27.4769 12.1438 27.0949 11.4545 27.1653C10.7631 27.2357 10.3192 27.7479 10.3107 28.546C10.3021 29.2075 10.3427 29.8669 10.3619 30.5285C10.4003 31.2604 9.92443 31.9903 10.3427 32.7265C10.3299 35.2766 10.3107 37.8246 10.3064 40.3747C10.2957 48.2107 10.2915 56.0467 10.2851 63.8827C8.71446 63.8827 7.14598 63.8827 5.57537 63.8763C4.52118 63.872 4.23096 63.586 4.23096 62.5767C4.23096 44.8048 4.23096 27.033 4.23309 9.26117C29.062 9.26117 53.8931 9.25903 78.722 9.25903C78.9077 9.25903 79.0933 9.28037 79.279 9.29318C79.279 26.7364 79.279 44.1774 79.2854 61.6207C79.2854 62.3889 79.3153 63.155 78.9738 63.8741C77.7575 63.8784 76.5389 63.8827 75.3226 63.8869C75.314 63.569 75.2991 63.251 75.2991 62.9331C75.2991 56.2387 75.2991 49.5466 75.297 42.8522C75.297 42.5087 75.2671 42.1651 75.25 41.8215C76.0567 41.0384 75.7174 40.0332 75.7494 39.1135C75.7878 38.055 75.393 37.6944 74.3345 37.688C74.0699 37.688 73.8074 37.7029 73.5428 37.7093C72.9603 37.7051 72.3777 37.7029 71.7951 37.6987C71.7225 37.5279 71.6564 37.3572 71.5796 37.1886C70.743 35.3555 69.3773 34.1093 67.4546 33.4883C67.0641 33.3624 66.6565 33.2365 66.5583 33.8532C66.4943 37.8032 66.4857 41.7511 66.5626 45.7011C66.7247 46.5078 67.2689 46.1663 67.6701 46.0212C69.6931 45.2914 71.0525 43.8851 71.7951 41.8727C72.0981 41.877 72.4012 41.8813 72.7042 41.8834C72.7106 49.2179 72.717 56.5524 72.7234 63.8891C66.5284 63.8891 60.3335 63.8848 54.1385 63.8891C53.8845 63.8891 53.5965 63.8037 53.4044 64.0705C52.6276 63.3086 51.8423 62.5575 51.0762 61.785C49.5077 60.2015 47.9521 58.6075 46.39 57.0198C47.0067 56.7039 47.2222 56.2046 47.1988 55.5132C47.1561 54.3181 47.1838 53.1188 47.1838 51.9217C47.7173 51.3861 48.2508 50.8526 48.7865 50.3169C49.6977 50.3532 50.6153 50.2337 51.5158 50.4471C53.4065 50.5495 53.8504 50.1441 53.8504 48.3046C53.8504 47.882 53.8504 47.4595 53.8504 47.0349C53.8504 45.1911 53.5879 44.9393 51.7228 45.0054C51.6439 45.0076 51.5649 45.0225 51.4859 45.031C50.5875 45.0289 49.6891 45.0246 48.7886 45.0225C48.253 44.4933 47.7173 43.9641 47.1817 43.4348C47.1838 42.1672 47.1945 40.8975 47.186 39.6299C47.1817 38.7144 46.8317 38.3261 45.929 38.2364C45.6175 38.2066 45.2974 38.245 44.9816 38.2514C44.4011 38.2727 43.8207 38.3047 43.2381 38.3154C42.2373 38.3325 41.8147 38.691 41.7912 39.6854C41.7635 40.8804 41.8019 42.0797 41.8126 43.2748L40.163 45.0396C38.8912 45.0353 37.6172 45.0225 36.3453 45.031C35.5643 45.0374 35.1033 45.4621 35.0777 46.241C35.0457 47.1949 35.0479 48.1509 35.0777 49.1048C35.1033 49.8816 35.5664 50.3127 36.3432 50.3169C37.615 50.3255 38.889 50.3105 40.1609 50.3041C40.7114 50.844 41.262 51.3839 41.8105 51.9238C41.7998 53.1701 41.7806 54.4163 41.787 55.6626C41.787 56.0936 41.883 56.529 42.2778 56.7829C42.6235 57.007 42.5189 57.1713 42.2927 57.3932C40.1075 59.5571 37.9245 61.7273 35.7414 63.8933L35.7393 63.8827Z" fill="#EBEEF0"/>
<path d="M4.23283 7.51357C4.22216 6.66425 4.21363 5.81492 4.19655 4.96346C4.18588 4.3382 4.49745 4.03091 5.11203 4.0117C5.27208 4.00743 5.43213 4.00957 5.59005 4.00957C29.8663 4.00957 54.1404 4.00957 78.4166 4.00957C78.6556 4.00957 78.8925 4.02877 79.1315 4.03944C79.1315 4.8909 79.0824 5.7445 79.1422 6.59169C79.1934 7.32151 78.9608 7.53064 78.2181 7.53064C53.5557 7.5093 28.8953 7.51357 4.23283 7.51144V7.51357Z" fill="#837683"/>
<path d="M4.23353 7.51365C28.896 7.51365 53.5564 7.51365 78.2188 7.53285C78.9636 7.53285 79.1941 7.32372 79.1428 6.5939C79.0831 5.74671 79.1301 4.89311 79.1322 4.04165C79.3691 4.02885 79.6059 4.00964 79.8449 4.00111C80.5385 3.97763 80.8756 4.32761 80.8735 5.01048C80.8692 6.41465 80.8586 7.81881 80.85 9.22297C80.3272 9.24431 79.8044 9.26565 79.2816 9.28699C79.0959 9.27632 78.9102 9.25285 78.7246 9.25285C53.8957 9.25285 29.0646 9.25285 4.23567 9.25498C4.08202 8.67454 4.07988 8.09196 4.23567 7.51151L4.23353 7.51365Z" fill="#6A616B"/>
<path d="M75.2479 41.8149C75.265 42.1584 75.2927 42.502 75.2949 42.8477C75.297 49.542 75.2949 56.2342 75.297 62.9285C75.297 63.2465 75.312 63.5645 75.3205 63.8824C75.312 65.0775 75.3205 66.2746 75.2885 67.4697C75.2778 67.8666 75.472 68.1056 75.7238 68.3553C77.2325 69.8555 78.7327 71.3599 80.2372 72.8644C80.7045 73.3317 80.8304 73.8503 80.4826 74.4478C80.171 74.9856 79.6909 75.1179 79.1211 75.0453C78.7477 74.9984 78.5236 74.7167 78.2803 74.4755C77.0383 73.2378 75.7836 72.0086 74.5651 70.7475C74.1724 70.3399 73.9206 70.3591 73.5365 70.756C72.3372 71.998 71.1059 73.2122 69.8746 74.4243C69.4691 74.8234 69.0188 75.1563 68.3872 74.9301C67.4141 74.5801 67.1687 73.5302 67.9262 72.7555C69.3368 71.3108 70.7644 69.8789 72.2134 68.4726C72.6103 68.0864 72.7725 67.6937 72.7512 67.1453C72.7085 66.057 72.7256 64.9665 72.7192 63.8782C72.7128 56.5437 72.7064 49.2091 72.7 41.8725C72.9752 41.7188 73.2612 42.1051 73.5322 41.8533C74.1041 41.8405 74.6739 41.8255 75.2458 41.8127L75.2479 41.8149Z" fill="#A79BA7"/>
<path d="M46.388 57.0093C47.9501 58.5991 49.5057 60.1932 51.0742 61.7745C51.8403 62.547 52.6256 63.2981 53.4024 64.06C53.8249 64.4996 54.256 64.9306 54.6679 65.3809C55.2291 65.9912 55.2526 66.7211 54.7426 67.2268C54.256 67.707 53.4237 67.7262 52.871 67.1991C51.7187 66.1001 50.5962 64.9712 49.4609 63.853C48.2467 62.6836 47.0346 61.5141 45.7841 60.3084V63.8807C45.7755 64.7535 45.7734 65.6263 45.7585 66.497C45.7435 67.3869 45.2826 67.882 44.4887 67.8841C43.7034 67.8841 43.2297 67.3826 43.2084 66.4949C43.187 65.6221 43.1913 64.7493 43.1849 63.8786C43.1849 62.6964 43.1849 61.5141 43.1849 60.3575C41.9472 61.5376 40.7265 62.7006 39.508 63.8636C38.4858 64.8688 37.4615 65.8717 36.4394 66.879C35.6476 67.66 34.873 67.7688 34.2968 67.1756C33.7164 66.5759 33.8359 65.8547 34.6447 65.0331C35.0181 64.6554 35.3788 64.267 35.7437 63.8829C37.9267 61.7147 40.1077 59.5466 42.295 57.3827C42.5191 57.1608 42.6258 56.9965 42.2801 56.7724C41.8874 56.5185 41.7914 56.0831 41.7893 55.6521C41.7829 54.4058 41.8042 53.1596 41.8127 51.9133C42.1051 52.035 42.3868 52.1929 42.6898 52.2718C43.3769 52.4511 44.0406 52.8971 44.796 52.5301C45.0564 52.5301 45.3189 52.5279 45.5792 52.5258C45.5835 53.3986 45.5792 54.2693 45.5942 55.1421C45.607 55.8356 45.6326 56.5249 44.7107 57.0093H46.388Z" fill="#A79CA7"/>
<path d="M79.279 9.28692C79.8018 9.26558 80.3246 9.24424 80.8474 9.2229C80.856 9.59421 80.8752 9.96766 80.8752 10.339C80.8752 27.556 80.8752 44.773 80.8752 61.9878C80.8752 63.7398 80.745 63.87 78.9717 63.8679C79.3131 63.1487 79.2832 62.3826 79.2832 61.6144C79.279 44.1712 79.279 26.7301 79.2768 9.28692H79.279Z" fill="#D1D1D6"/>
<path d="M39.5039 63.8658C40.7224 62.7027 41.9431 61.5397 43.1808 60.3596C43.1808 61.5162 43.1808 62.6985 43.1808 63.8807C41.9559 63.8764 40.7288 63.87 39.5039 63.8658Z" fill="#EBEEF0"/>
<path d="M45.7822 63.8831V60.3108C47.0327 61.5165 48.2448 62.6859 49.4591 63.8553C48.2342 63.866 47.0071 63.8745 45.7822 63.8852V63.8831Z" fill="#EBEEF0"/>
<path d="M45.5775 52.5257C45.3171 52.5257 45.0547 52.5278 44.7943 52.5299C44.6385 52.4339 44.4934 52.3101 44.327 52.244C41.5997 51.1642 40.3983 48.1019 41.6915 45.4899C42.3488 44.1626 43.484 43.3751 44.7943 42.7947C45.0589 42.7947 45.3257 42.7989 45.5903 42.8011C46.1195 43.0081 46.6487 43.2151 47.1801 43.4221C47.7157 43.9513 48.2514 44.4805 48.787 45.0098C49.6 46.7746 49.6171 48.5415 48.7849 50.3063C48.2514 50.8419 47.7179 51.3754 47.1822 51.9111C46.6487 52.1159 46.1131 52.3208 45.5796 52.5257H45.5775Z" fill="#CBCBCB"/>
<path d="M66.5624 45.6907C66.4835 41.7407 66.492 37.7928 66.5582 33.8428C70.2009 35.3152 71.6264 39.9481 69.4177 43.2942C68.7199 44.3527 67.8919 45.3407 66.5646 45.6885L66.5624 45.6907Z" fill="#F8DFA0"/>
<path d="M40.1586 50.2955C38.8868 50.2998 37.6128 50.3147 36.3409 50.3083C35.5641 50.304 35.1011 49.8708 35.0755 49.0962C35.0456 48.1423 35.0435 47.1863 35.0755 46.2324C35.1011 45.4535 35.562 45.0288 36.343 45.0224C37.6149 45.0139 38.8889 45.0267 40.1607 45.0309C39.9495 45.8419 39.5163 46.5759 39.5035 47.4616C39.4885 48.4773 39.8471 49.3736 40.1586 50.2955Z" fill="#A79BA7"/>
<path d="M66.5626 45.6907C67.8899 45.3407 68.7179 44.3527 69.4157 43.2963C71.6244 39.9481 70.1989 35.3174 66.5562 33.8449C66.6543 33.2303 67.064 33.3541 67.4524 33.48C69.3752 34.101 70.7409 35.3472 71.5774 37.1803C71.6542 37.3489 71.7204 37.5196 71.793 37.6904C72.2134 39.0817 72.2048 40.4709 71.793 41.8623C71.0503 43.8746 69.6888 45.2809 67.668 46.0108C67.2668 46.1559 66.7226 46.4973 66.5604 45.6907H66.5626Z" fill="#F3C962"/>
<path d="M45.5877 42.8032C45.3231 42.8032 45.0564 42.7989 44.7918 42.7968C44.5229 42.5343 44.2113 42.6645 43.9062 42.688C43.1699 42.7456 42.5319 43.1574 41.8106 43.2641C41.7999 42.067 41.7636 40.8698 41.7892 39.6748C41.8106 38.6803 42.2331 38.3218 43.2361 38.3047C43.8165 38.2941 44.397 38.2621 44.9796 38.2407C45.6539 39.0218 45.6283 39.9586 45.5941 40.9061C45.5728 41.5377 45.5899 42.1715 45.5899 42.8032H45.5877Z" fill="#A69BA6"/>
<path d="M41.8102 43.2644C42.5315 43.1577 43.1696 42.748 43.9058 42.6882C44.2131 42.6647 44.5246 42.5346 44.7914 42.797C43.4811 43.3775 42.3459 44.1649 41.6886 45.4923C40.3954 48.1043 41.5968 51.1665 44.3241 52.2463C44.4905 52.3125 44.6356 52.4341 44.7914 52.5323C44.0338 52.8993 43.3723 52.4533 42.6852 52.2741C42.3821 52.1951 42.0983 52.0372 41.8081 51.9156C41.2575 51.3757 40.7091 50.8358 40.1585 50.2959C39.847 49.374 39.4884 48.4777 39.5034 47.4619C39.5162 46.5763 39.9494 45.8422 40.1606 45.0313C40.7112 44.4424 41.2597 43.8555 41.8102 43.2665V43.2644Z" fill="#B4B3B4"/>
<path d="M48.7827 50.3061C49.615 48.5413 49.5979 46.7765 48.7849 45.0095C49.6833 45.0117 50.5817 45.0159 51.4822 45.0181C51.9944 45.3552 52.1907 45.8268 52.1523 46.4393C52.1139 47.0475 52.116 47.6599 52.1523 48.2681C52.1992 49.0748 52.1373 49.8323 51.5142 50.4363C50.6137 50.2207 49.6939 50.3424 48.7849 50.3061H48.7827Z" fill="#A69BA6"/>
<path d="M51.5115 50.4362C52.1346 49.8344 52.1965 49.0768 52.1496 48.268C52.1133 47.6598 52.1133 47.0474 52.1496 46.4392C52.188 45.8246 51.9916 45.3551 51.4795 45.018C51.5584 45.0094 51.6374 44.9966 51.7164 44.9924C53.5815 44.9262 53.8439 45.178 53.8439 47.0218C53.8439 47.4443 53.8439 47.8668 53.8439 48.2915C53.8439 50.131 53.4001 50.5386 51.5094 50.434L51.5115 50.4362Z" fill="#847784"/>
<path d="M71.7954 41.8643C72.2073 40.473 72.2158 39.0837 71.7954 37.6924C72.378 37.6967 72.9606 37.6988 73.5431 37.7031C74.3861 38.785 74.3839 40.7162 73.5367 41.8558C73.2657 42.1076 72.9776 41.7213 72.7045 41.875C72.4015 41.8707 72.0984 41.8665 71.7954 41.8643Z" fill="#837683"/>
<path d="M45.5879 42.803C45.5879 42.1713 45.5708 41.5375 45.5921 40.9059C45.6241 39.9584 45.6497 39.0216 44.9775 38.2405C45.2934 38.2341 45.6135 38.1957 45.925 38.2256C46.8277 38.3131 47.1755 38.7015 47.1819 39.6191C47.1883 40.8867 47.1798 42.1564 47.1777 43.424C46.6484 43.217 46.1192 43.01 45.5879 42.803Z" fill="#847784"/>
<path d="M45.5772 52.5257C46.1107 52.3209 46.6463 52.116 47.1798 51.9111C47.1798 53.1083 47.1542 54.3076 47.1948 55.5026C47.2182 56.1919 47.0027 56.6913 46.386 57.0092C45.9122 57.0092 45.4364 57.0092 44.7065 57.0092C45.6284 56.5248 45.6028 55.8377 45.59 55.142C45.5729 54.2713 45.5793 53.3985 45.5751 52.5257H45.5772Z" fill="#847784"/>
<path d="M73.5366 41.8557C74.3838 40.714 74.3859 38.7849 73.543 37.7029C73.8076 37.6944 74.0701 37.6795 74.3347 37.6816C75.3932 37.6901 75.788 38.0486 75.7496 39.1071C75.7176 40.0269 76.0569 41.0341 75.2502 41.8151C74.6783 41.8279 74.1085 41.8429 73.5366 41.8557Z" fill="#6A616B"/>
<path d="M12.8674 33.5503C12.8674 43.5289 12.8631 53.5052 12.8631 63.4838C12.8631 63.6161 12.878 63.7484 12.8866 63.8807C12.878 66.3262 12.8823 68.7718 12.8546 71.2173C12.8503 71.6591 13.1043 71.8917 13.3646 72.152C15.4708 74.2583 17.5771 76.3624 19.6812 78.4686C20.0845 78.8719 20.4516 79.3073 20.2872 79.9347C20.0162 80.976 18.8489 81.2535 18.0338 80.4489C16.1793 78.6201 14.3441 76.7678 12.5025 74.9262C11.895 74.3187 11.2847 74.3223 10.6715 74.9369C8.88536 76.723 7.09708 78.5049 5.3152 80.2953C4.93109 80.6794 4.49362 80.9078 3.95585 80.7605C3.45437 80.6239 3.14067 80.2569 3.0297 79.7554C2.88886 79.1259 3.27298 78.7012 3.67417 78.3C5.6481 76.3261 7.60497 74.3351 9.60665 72.3889C10.1273 71.8831 10.345 71.3795 10.3279 70.654C10.2767 68.3962 10.2981 66.1363 10.2917 63.8764C10.2981 56.0404 10.3023 48.2044 10.313 40.3684C10.3173 37.8183 10.3365 35.2703 10.3493 32.7202C11.1901 32.9955 12.033 33.2708 12.8738 33.5482L12.8674 33.5503Z" fill="#A79BA7"/>
<path d="M15.4476 29.0944C16.5893 26.9242 18.0446 25.0121 20.0549 23.5738C23.6442 21.0066 27.5964 20.2064 31.9134 21.1496C31.8963 21.4441 31.6893 21.3971 31.5634 21.4419C27.8695 22.7885 26.7492 26.8836 29.2395 29.9416C29.3377 30.0632 29.4743 30.1635 29.4636 30.3449C27.9143 30.1956 26.412 29.7773 24.8499 29.6514C22.9635 29.4999 21.1005 29.5084 19.2375 29.7922C17.6584 30.0334 16.1795 30.5882 14.7583 31.301C14.8309 30.5157 15.279 29.8498 15.4497 29.0944H15.4476Z" fill="#89B140"/>
<path d="M26.9239 39.4209C27.4318 39.7431 27.1031 39.8285 26.783 39.9202C25.5346 40.283 24.5338 40.9936 23.8253 42.0819C22.5535 44.0388 22.6431 46.335 24.0387 48.1894C24.1796 48.3772 24.3204 48.5671 24.4698 48.7656C24.2457 48.9577 24.0579 48.8189 23.8787 48.7507C18.3282 46.6103 15.1229 42.6069 14.2693 36.7128C14.1306 35.7568 14.1776 34.8051 14.1776 33.8512C14.3334 33.1064 14.4891 32.3595 14.6428 31.6147C15.1592 32.2784 15.633 32.9826 16.2027 33.5994C18.979 36.6125 22.5492 38.2728 26.3669 39.5041C26.576 39.5724 26.7702 39.6641 26.9239 39.4209Z" fill="#89B140"/>
<path d="M26.9241 39.4208C26.7704 39.6641 26.5763 39.5723 26.3671 39.504C22.5494 38.2727 18.9793 36.6125 16.2029 33.5993C15.6353 32.9826 15.1616 32.2784 14.643 31.6147C14.6238 31.4888 14.6451 31.3778 14.7561 31.301C16.1773 30.5861 17.6562 30.0313 19.2353 29.7923C21.1004 29.5084 22.9634 29.4999 24.8477 29.6514C26.4098 29.7773 27.9121 30.1977 29.4614 30.345C29.4827 30.3898 29.487 30.4367 29.4721 30.4858C29.455 30.5264 29.4465 30.569 29.4507 30.6117C25.697 31.6083 24.0091 36.1217 26.9241 39.4208Z" fill="#AAC16C"/>
<path d="M14.7557 31.3012C14.6448 31.3802 14.6234 31.4911 14.6426 31.6149C14.4869 32.3597 14.3311 33.1066 14.1774 33.8513C13.74 33.751 13.3046 33.6507 12.8672 33.5526C12.0264 33.2773 11.1835 33.002 10.3427 32.7246C9.9244 31.9884 10.4024 31.2607 10.3619 30.5266C10.8079 30.1574 10.7374 29.5834 10.889 29.1075C11.1173 28.3819 11.4907 28.0341 12.2718 28.2475C12.4446 28.2944 12.6367 28.2752 12.8224 28.2859C13.6439 28.7276 14.5893 28.7724 15.4472 29.0947C15.2764 29.848 14.8283 30.5159 14.7579 31.3012H14.7557Z" fill="#837683"/>
<path d="M12.8229 28.2857C12.6394 28.2751 12.4473 28.2964 12.2724 28.2473C11.4913 28.0339 11.1157 28.3818 10.8895 29.1073C10.7402 29.5853 10.8084 30.1572 10.3624 30.5264C10.3432 29.8649 10.3027 29.2055 10.3112 28.544C10.3198 27.7458 10.7658 27.2337 11.455 27.1633C12.1443 27.0928 12.6095 27.4748 12.8208 28.2836L12.8229 28.2857Z" fill="#A79CA7"/>
<path d="M29.4528 30.6115C29.4507 30.5688 29.4571 30.5261 29.4742 30.4856C29.5168 30.5219 29.5617 30.5582 29.6043 30.5966C29.5531 30.6008 29.5019 30.6072 29.4507 30.6115H29.4528Z" fill="#FD646F"/>
</svg>
