<svg width="84" height="84" viewBox="0 0 84 84" fill="none" xmlns="http://www.w3.org/2000/svg">
<path d="M74.2 73.9484C75.4087 73.9484 76.6234 74.0216 77.8239 73.926C79.3011 73.808 80.3673 74.2943 81.0001 75.6535V78.2417C80.6359 78.7768 80.1903 79.198 79.4904 78.962C78.7599 78.7158 78.6398 78.0972 78.6948 77.4135C78.707 77.263 78.6765 77.1063 78.6988 76.9578C78.7884 76.3738 78.532 76.2375 77.9724 76.2415C74.6497 76.2659 71.327 76.2659 68.0042 76.2415C67.4508 76.2375 67.2005 76.3636 67.2758 76.9537C67.3165 77.2772 67.3124 77.617 67.2656 77.9405C67.1761 78.5632 66.8159 78.964 66.1648 79.0006C65.5116 79.0373 65.1006 78.7015 64.9806 78.0626C64.8259 77.2324 64.828 76.3901 65.064 75.5762C65.3387 74.6259 66.2218 73.9707 67.2249 73.9545C68.7469 73.9301 70.2689 73.9402 71.7909 73.9341C72.5946 73.9382 73.3963 73.9443 74.198 73.9484H74.2Z" fill="#89B140"/>
<path d="M56.3366 26.9298C52.2773 26.6225 48.2119 26.8565 44.1505 26.7853C43.8229 26.7792 43.4953 26.8036 43.1657 26.8138C42.4047 26.8138 41.6417 26.8138 40.8786 26.8138C35.9586 26.8036 31.0386 26.7935 26.1206 26.7833C24.4114 26.7792 23.9048 26.2787 23.9048 24.5756C23.9048 19.8326 23.9048 15.0916 23.9048 10.3486C34.4102 10.3446 44.9156 10.3385 55.421 10.3364C55.9276 10.3364 56.4343 10.3507 56.943 10.3588C56.943 15.2503 56.9389 20.1398 56.9552 25.0314C56.9572 25.6581 56.8494 26.2034 56.3041 26.5534C55.9948 26.7507 56.2959 26.8097 56.3387 26.9298H56.3366Z" fill="#E9F5FE"/>
<path d="M35.572 60.0796C33.7204 59.0358 33.9809 57.2412 33.9626 55.5462C33.9626 53.1574 33.9605 50.7666 33.9585 48.3778C34.0541 47.1448 33.932 45.9076 34.0745 44.6685C34.3878 41.9419 36.5691 39.9072 39.3262 39.8563C40.4331 39.8359 41.542 39.8156 42.6489 39.7932C42.7079 39.8665 42.7547 39.9804 42.832 40.0069C45.6502 40.9835 46.8954 42.7212 46.8954 45.6899C46.8954 49.2914 46.8852 52.8929 46.9015 56.4944C46.9076 57.8333 47.0216 59.1925 45.4243 59.8884C45.8414 60.0512 46.1609 59.866 46.5353 60.1244C45.9554 60.1244 45.4792 60.1244 45.0031 60.1244C41.8594 60.1102 38.7157 60.0939 35.572 60.0796Z" fill="#AAC16C"/>
<path d="M56.9409 10.3583C56.4342 10.3502 55.9276 10.3359 55.4189 10.3359C44.9135 10.34 34.4081 10.3441 23.9027 10.3481C21.5953 9.92898 20.5901 8.03463 21.7255 6.18911C22.2444 5.34876 23.0664 5.00286 24.0431 5.00489C27.5123 5.00693 30.9836 5.00489 34.4529 5.00489C41.9509 5.00693 49.4469 5.01303 56.945 5.0171C57.0528 5.07407 57.1566 5.13715 57.2664 5.19005C59.2015 6.13621 59.4925 8.69389 57.6246 9.89032C57.4658 9.99206 57.2441 10.0653 57.2502 10.3217C57.1464 10.3339 57.0406 10.3461 56.9368 10.3583H56.9409Z" fill="#F8DFA0"/>
<path d="M35.5722 60.0795C38.7159 60.0957 41.8596 60.11 45.0032 60.1242C45.4794 60.1263 45.9555 60.1242 46.5354 60.1242C46.161 59.8679 45.8415 60.051 45.4244 59.8882C47.0217 59.1923 46.9078 57.8331 46.9017 56.4942C46.8854 52.8927 46.8956 49.2912 46.8956 45.6897C46.8956 42.721 45.6503 40.9854 42.8322 40.0067C42.7569 39.9802 42.7101 39.8663 42.649 39.793C44.1181 39.7096 45.5892 39.6771 46.9525 40.3506C48.9771 41.3537 49.9517 43.0568 50.0637 45.2706C50.1166 46.3042 50.0901 47.344 50.1003 48.3797C50.1003 50.7685 50.0982 53.1573 50.0962 55.544C50.0881 56.0181 50.0433 56.4963 50.0799 56.9683C50.1817 58.2848 49.7442 59.3083 48.5701 59.9737C48.21 60.3216 47.7013 59.9533 47.3086 60.2178C48.6129 61.339 48.8326 62.3136 48.1551 63.565C47.8682 64.094 47.2781 64.1876 46.9159 64.5864C45.7052 64.5783 44.4925 64.5702 43.2818 64.562C42.4435 64.562 41.6052 64.562 40.7689 64.562C38.8217 64.562 36.8744 64.5661 34.9272 64.562C33.4215 64.5579 32.4285 63.6667 32.4224 62.3258C32.4163 60.9564 33.3767 60.0774 34.8926 60.0673C35.1205 60.0673 35.3484 60.0734 35.5742 60.0754L35.5722 60.0795Z" fill="#89B140"/>
<path d="M33.9607 48.3777C33.9607 50.7665 33.9627 53.1573 33.9647 55.5461C30.3327 55.5522 26.7007 55.5583 23.0666 55.5644C22.2853 55.5624 21.5019 55.5583 20.7206 55.5563C20.163 55.5542 19.6055 55.5563 19.046 55.5481C17.937 55.5278 17.3531 54.956 17.3429 53.8593C17.3307 52.6161 17.3327 51.3749 17.3429 50.1316C17.351 48.921 17.8902 48.3879 19.1274 48.3858C24.0718 48.3777 29.0183 48.3797 33.9627 48.3777H33.9607Z" fill="#DADADA"/>
<path d="M3.52887 59.98C3.51667 57.2657 3.50039 54.5513 3.49632 51.837C3.49021 48.6648 3.48614 45.4926 3.50039 42.3225C3.50649 41.1525 4.36312 40.1005 5.42526 39.8889C6.72139 39.6305 7.90765 40.2613 8.40006 41.4496C8.53232 41.767 8.54249 42.0905 8.54249 42.4202C8.54249 47.4195 8.53639 52.4169 8.55063 57.4162C8.55267 58.4662 8.08467 59.1987 7.21584 59.7236C7.07747 59.8071 6.84958 59.8233 6.90859 60.0797C5.7793 60.1021 4.66019 59.8803 3.52887 59.98Z" fill="#AAC16C"/>
<path d="M77.2152 60.0228C77.1094 59.7868 76.851 59.7665 76.6719 59.6362C75.9598 59.1174 75.4999 58.4683 75.502 57.5384C75.5101 52.4658 75.4979 47.3952 75.5101 42.3226C75.5121 40.9125 76.5702 39.8727 77.9579 39.8564C79.4168 39.8381 80.538 40.8372 80.5441 42.2636C80.5624 48.0972 80.5502 53.9288 80.5481 59.7624C80.5481 59.8377 80.5278 59.913 80.5176 59.9882C79.5104 59.9699 78.5032 59.9414 77.5062 60.1327C77.4106 60.0961 77.3149 60.0595 77.2173 60.0228H77.2152Z" fill="#AAC16C"/>
<path d="M50.0963 55.5462C50.0963 53.1574 50.0983 50.7686 50.1003 48.3818C53.885 48.3818 57.6676 48.3757 61.4502 48.3941C61.8734 48.3961 62.2946 48.1845 62.7158 48.3818C63.019 48.86 63.6619 49.1795 63.6111 49.8143C63.4564 51.7351 64.25 53.7821 62.8704 55.5421C62.2396 55.5503 61.6089 55.5584 60.9781 55.5645C57.3501 55.5584 53.7222 55.5523 50.0942 55.5462H50.0963Z" fill="#DADADA"/>
<path d="M20.7188 55.5562C21.5001 55.5583 22.2835 55.5623 23.0648 55.5644C23.0587 62.7409 23.0526 69.9154 23.0465 77.092C23.0465 77.3708 23.0567 77.6516 23.0323 77.9283C22.9773 78.5753 22.6192 78.9518 21.9681 79.0026C21.3536 79.0535 20.8469 78.6343 20.7472 77.9934C20.7086 77.7452 20.7249 77.4867 20.7249 77.2344C20.7228 70.007 20.7208 62.7796 20.7188 55.5542V55.5562Z" fill="#B8B8B8"/>
<path d="M60.98 55.5646C61.6108 55.5565 62.2415 55.5483 62.8723 55.5422C63.029 55.5483 63.1856 55.5524 63.3423 55.5585C63.3362 62.7859 63.3301 70.0113 63.322 77.2387C63.322 77.4911 63.3383 77.7495 63.2996 77.9977C63.1979 78.6387 62.6932 79.0558 62.0787 79.0049C61.4297 78.952 61.0715 78.5756 61.0166 77.9285C60.9922 77.6518 61.0024 77.371 61.0024 77.0922C60.9963 69.9157 60.9881 62.7412 60.982 55.5646H60.98Z" fill="#B8B8B8"/>
<path d="M56.941 10.3582C57.0448 10.346 57.1506 10.3337 57.2544 10.3215C58.2168 10.3317 59.1813 10.3419 60.1437 10.35C60.1437 15.1337 60.1437 19.9174 60.1397 24.7011C60.1397 26.2556 59.4702 26.9291 57.9299 26.9312C57.3989 26.9312 56.8678 26.9312 56.3347 26.9312C56.292 26.8111 55.9908 26.7521 56.3001 26.5547C56.8454 26.2048 56.9532 25.6595 56.9512 25.0328C56.9329 20.1412 56.939 15.2517 56.939 10.3602L56.941 10.3582Z" fill="#D7EBFD"/>
<path d="M77.2154 60.0225C77.311 60.0592 77.4066 60.0958 77.5043 60.1324C77.5023 60.4621 77.4738 60.7937 77.5023 61.1213C77.6325 62.6087 77.313 63.8723 75.8439 64.5905C75.2946 64.5824 74.7452 64.5743 74.1938 64.5661C73.3961 64.5702 72.5965 64.5763 71.7989 64.5804C70.6838 64.5763 69.5667 64.5783 68.4517 64.5641C67.1515 64.5478 66.1809 63.6729 66.0975 62.4541C66.0181 61.2922 66.8524 60.2911 68.0936 60.0734C68.3418 60.0307 68.5962 60.0083 68.8485 60.0083C71.6381 60.0083 74.4278 60.0164 77.2174 60.0225H77.2154Z" fill="#89B140"/>
<path d="M3.52911 59.98C4.66043 59.8803 5.77954 60.1021 6.90883 60.0797C9.07583 60.0573 11.2428 60.0349 13.4098 60.0126C13.4363 60.3178 13.7252 60.3951 13.9063 60.5355C15.3734 61.677 14.8728 63.73 13.5177 64.3344C13.4017 64.3873 13.2939 64.4463 13.2674 64.5887C12.9276 64.7434 12.5919 64.4849 12.25 64.5806C11.4524 64.5765 10.6528 64.5704 9.85514 64.5663C8.51628 64.5663 7.17945 64.5745 5.84059 64.5643C4.43254 64.5521 3.5108 63.6425 3.49656 62.2508C3.48842 61.4939 3.5169 60.7369 3.52911 59.98Z" fill="#89B140"/>
<path d="M43.2881 73.9488C44.7348 73.9488 46.1795 73.9366 47.6262 73.9488C49.0098 73.963 50.015 74.9458 50.0699 76.3254C50.0903 76.832 50.0964 77.3407 50.0638 77.8474C50.0191 78.5493 49.5429 79.0092 48.8979 79.0031C48.2 78.997 47.8419 78.5941 47.7198 77.9409C47.7015 77.8412 47.7015 77.7395 47.6954 77.6378C47.6493 76.714 47.1535 76.2521 46.208 76.2521C43.164 76.2521 40.12 76.2643 37.076 76.2399C36.5226 76.2358 36.2845 76.3661 36.3415 76.9561C36.3802 77.3529 36.3903 77.7639 36.2723 78.1648C36.1238 78.6612 35.7982 78.938 35.2997 78.997C34.7666 79.0601 34.3576 78.8362 34.1114 78.356C33.7085 77.5666 33.9853 75.4647 34.5611 74.7952C35.0535 74.2214 35.6497 73.9264 36.4229 73.9386C37.8676 73.963 39.3143 73.9467 40.761 73.9467C41.6034 73.9467 42.4478 73.9467 43.2902 73.9467L43.2881 73.9488Z" fill="#89B140"/>
<path d="M12.2561 73.9343C13.7028 73.9384 15.1495 73.9364 16.5942 73.9486C18.0022 73.9608 18.8731 74.7055 19.0888 76.0993C19.1885 76.7525 19.2007 77.4137 19.0664 78.0649C18.9341 78.7017 18.5292 79.0375 17.8781 78.9988C17.227 78.9602 16.8851 78.5573 16.7752 77.9367C16.763 77.8634 16.7691 77.7841 16.7651 77.7088C16.7217 76.7389 16.2001 76.2539 15.2003 76.2539C12.1564 76.2539 9.11035 76.2682 6.06637 76.2417C5.49664 76.2356 5.27689 76.3943 5.34607 76.9681C5.38473 77.2937 5.37049 77.6294 5.33996 77.957C5.28299 78.5654 4.93098 78.9317 4.32463 78.9988C3.66537 79.0741 3.19534 78.7241 3.10174 78.1137C2.97966 77.3181 2.941 76.49 3.13633 75.6944C3.39271 74.6526 4.27579 73.9689 5.35624 73.9547C6.85382 73.9364 8.35139 73.9506 9.84693 73.9506C10.6507 73.9465 11.4523 73.9404 12.254 73.9364L12.2561 73.9343Z" fill="#89B140"/>
<path d="M43.288 73.9482C42.4456 73.9482 41.6012 73.9482 40.7588 73.9482C40.9073 72.5626 40.8158 71.1728 40.8158 69.7872C40.8158 68.0454 40.8972 66.3037 40.7669 64.564C41.6052 64.564 42.4415 64.564 43.2798 64.564C43.1496 67.2397 43.2554 69.9153 43.2269 72.591C43.2229 73.0428 43.2676 73.4965 43.288 73.9482Z" fill="#AAC16C"/>
<path d="M63.3405 55.5583C63.1838 55.5522 63.0271 55.5481 62.8705 55.542C64.25 53.7819 63.4565 51.7329 63.6111 49.8121C63.662 49.1773 63.019 48.8599 62.7158 48.3797C63.5501 48.3776 64.3863 48.3471 65.2206 48.3797C66.0772 48.4122 66.6063 48.8639 66.6999 49.7145C66.8626 51.1998 66.8626 52.6954 66.7019 54.1787C66.6063 55.0699 66.0019 55.5318 65.0863 55.5501C64.5044 55.5623 63.9224 55.5542 63.3405 55.5542V55.5583Z" fill="#B8B8B8"/>
<path d="M12.2562 73.934C11.4545 73.938 10.6508 73.9441 9.84912 73.9482C9.86743 71.8545 9.89389 69.7607 9.90202 67.6649C9.90609 66.6313 9.87354 65.5976 9.85726 64.564C10.6549 64.568 11.4525 64.5741 12.2522 64.5782C12.183 67.6975 12.1728 70.8147 12.2583 73.934H12.2562Z" fill="#AAC16C"/>
<path d="M71.7966 64.5802C72.5943 64.5761 73.3939 64.57 74.1915 64.5659C74.1142 67.6933 74.102 70.8228 74.1976 73.9502C73.3959 73.9461 72.5922 73.94 71.7905 73.9359C71.876 70.8167 71.8638 67.6994 71.7966 64.5802Z" fill="#AAC16C"/>
<path d="M60.1438 10.3503C59.1813 10.3402 58.2169 10.33 57.2544 10.3218C57.2483 10.0655 57.4701 9.99222 57.6288 9.89048C59.4967 8.69405 59.2037 6.13637 57.2707 5.19021C57.1608 5.13731 57.0571 5.07627 56.9492 5.01726C58.0114 5.01116 59.0735 4.99284 60.1336 5.00302C61.4887 5.01726 62.5773 5.939 62.732 7.1802C62.9192 8.66353 62.1338 9.85996 60.7338 10.2201C60.5385 10.271 60.3411 10.3076 60.1438 10.3503Z" fill="#F3C962"/>
<path d="M13.2651 64.5887C13.2916 64.4483 13.3994 64.3873 13.5154 64.3344C14.8726 63.73 15.3711 61.677 13.904 60.5355C13.7209 60.393 13.432 60.3157 13.4076 60.0125C14.1645 60.0044 14.9214 59.9678 15.6783 59.9963C16.9134 60.041 17.8983 61.0116 17.9613 62.1958C18.0244 63.3719 17.2146 64.3669 15.9775 64.5684C15.0781 64.7149 14.1706 64.6762 13.2651 64.5887Z" fill="#799C38"/>
<path d="M46.9137 64.5884C47.2758 64.1896 47.8659 64.0959 48.1528 63.5669C48.8304 62.3176 48.6106 61.3409 47.3064 60.2198C47.6991 59.9552 48.2098 60.3235 48.5679 59.9756C49.0685 60.0081 49.5731 59.941 50.0675 60.1221C51.1826 60.529 51.7706 61.4793 51.616 62.6777C51.4857 63.6809 50.6352 64.4846 49.5588 64.5782C48.6778 64.6555 47.7947 64.7023 46.9116 64.5884H46.9137Z" fill="#799C38"/>
<path d="M75.8419 64.5882C77.313 63.8699 77.6304 62.6064 77.5002 61.119C77.4717 60.7914 77.5002 60.4597 77.5022 60.1301C78.4993 59.9388 79.5065 59.9673 80.5137 59.9856C80.5259 60.8402 80.5727 61.6968 80.5401 62.5494C80.5035 63.5423 79.6875 64.4051 78.6987 64.5475C77.7484 64.6859 76.7941 64.6818 75.8398 64.5862L75.8419 64.5882Z" fill="#799C38"/>
<path d="M40.881 26.8137C41.644 26.8137 42.405 26.8137 43.168 26.8137C43.1843 27.8779 43.2291 28.9421 43.2067 30.0042C43.1904 30.7387 42.6553 31.2128 41.9858 31.1905C41.351 31.1701 40.8565 30.7042 40.8423 30.0042C40.822 28.9421 40.8647 27.8759 40.881 26.8137Z" fill="#B8B8B8"/>
</svg>
