<svg width="33" height="34" viewBox="0 0 33 34" fill="none" xmlns="http://www.w3.org/2000/svg">
<path d="M0.540366 15.983H4.65917V12.8353C3.18578 12.4 2.1477 11.0606 2.1477 9.45322C2.1477 7.51102 3.72156 5.93717 5.69724 5.93717C7.67293 5.93717 9.24678 7.51102 9.24678 9.45322C9.24678 11.0606 8.17523 12.4 6.73532 12.8353V15.983H10.8541V17.9252H0.540366V15.983ZM2.21468 20.9055H9.17981V27.9376H4.25734V31.0853H9.17981V33.0275H2.21468V25.9954H7.13715V22.8477H2.21468V20.9055ZM4.12339 9.45322C4.12339 10.3239 4.86009 11.0606 5.66376 11.0606C6.50091 11.0606 7.23761 10.3239 7.23761 9.45322C7.23761 8.58258 6.50091 7.84588 5.66376 7.84588C4.86009 7.84588 4.12339 8.58258 4.12339 9.45322ZM32.0305 12.9693H29.9878V7.87937H27.108V12.9693H25.0654V0.847261H27.108V5.93717H29.9878V0.847261H32.0305V12.9693ZM20.6117 18.0592H13.6466V11.0271H18.569V7.87937H13.6466V5.93717H20.6117V12.9693H15.6892V16.117H20.6117V18.0592Z" fill="white"/>
</svg>
