<svg width="393" height="852" viewBox="0 0 393 852" fill="none" xmlns="http://www.w3.org/2000/svg">
<g clip-path="url(#clip0_79_1544)">
<rect width="393" height="852" fill="black"/>
<path d="M571.633 848.648C599.337 850.369 622.354 833.696 628.08 809.852C633.391 787.826 621.939 767.98 619.667 764.153C455.15 483.928 369.651 394.301 317.5 405.5C256.5 412 260.293 485.371 200.207 489.081C133.89 493.194 114.094 457.211 57.2005 467.153C-2.88549 477.678 -39.4772 528.085 -52.0999 545.45C-77.3948 580.292 -71.0723 593.003 -104.633 704.635C-136.979 812.212 -161.511 862.528 -140.541 884.813C-131.837 894.08 -119.244 894.36 -113.604 894.283C-37.225 893.363 571.659 848.639 571.659 848.639L571.633 848.648Z" fill="#E6A83B"/>
<path d="M226.113 800.708C212.538 866.251 115.805 912.63 44.4503 889.812C-13.6552 871.229 -53.8091 815.156 -70.0093 779.665C-81.2089 755.118 -74.4724 737.985 -71.5638 720.828C-62.38 666.705 26.947 623.332 101.296 639.504C153.679 650.897 184.919 688.877 196.101 704.538C207.168 720.042 234.805 758.786 226.125 800.712L226.113 800.708Z" fill="#E05827"/>
<path d="M111.763 683.89C113.832 682.803 114.528 680.053 113.318 677.748C112.107 675.443 109.448 674.456 107.379 675.543C105.309 676.63 104.613 679.379 105.824 681.684C107.034 683.989 109.693 684.976 111.763 683.89Z" fill="black"/>
<path d="M125.741 677.439C127.81 676.353 128.506 673.603 127.296 671.298C126.085 668.993 123.426 668.006 121.357 669.093C119.287 670.179 118.591 672.929 119.802 675.234C121.012 677.539 123.671 678.526 125.741 677.439Z" fill="black"/>
<path d="M319.62 554.412C267.165 562.073 240.658 566.149 227.119 578.952C209.86 595.257 218.292 603.875 189.197 645.102C174.895 665.374 167.975 670.202 164.284 684.975C159.653 703.51 162.963 726.244 173.887 741.058C195.245 770.029 242.96 764.968 283.17 760.701C327.003 756.05 439.787 744.095 458.203 678.861C465.871 651.695 454.825 623.613 450.166 611.767C444.868 598.307 432.459 566.778 402.587 552.525C386.487 544.851 363.971 547.929 319.607 554.399L319.62 554.412Z" fill="#EA508E"/>
<path d="M234.392 630.084C236.784 630.408 239.016 628.509 239.376 625.845C239.736 623.18 238.088 620.758 235.696 620.434C233.304 620.111 231.072 622.009 230.712 624.674C230.352 627.339 232 629.761 234.392 630.084Z" fill="black"/>
<path d="M248.116 637.35C250.508 637.673 252.739 635.775 253.099 633.11C253.459 630.446 251.812 628.023 249.42 627.7C247.027 627.377 244.796 629.275 244.436 631.94C244.076 634.604 245.723 637.027 248.116 637.35Z" fill="black"/>
<path d="M223.743 644.266C225.237 646.472 229.224 651.697 236.48 654.462C247.785 658.771 257.868 653.576 259.452 652.726" stroke="black" stroke-width="5" stroke-linecap="round" stroke-linejoin="round"/>
<path d="M260.646 643.407C260.646 643.407 257.96 653.527 266.005 658.784" stroke="black" stroke-width="5" stroke-linecap="round" stroke-linejoin="round"/>
<path d="M110.927 538.945C108.312 539.299 105.874 537.224 105.48 534.312C105.086 531.4 106.887 528.753 109.501 528.399C112.116 528.046 114.554 530.121 114.948 533.033C115.341 535.945 113.541 538.592 110.927 538.945Z" fill="black"/>
<path d="M95.9285 546.886C93.314 547.239 90.8755 545.165 90.482 542.253C90.0884 539.34 91.8889 536.693 94.5034 536.34C97.1178 535.987 99.5563 538.061 99.9499 540.973C100.343 543.885 98.543 546.532 95.9285 546.886Z" fill="black"/>
<path d="M122.565 554.445C120.933 556.855 116.576 562.565 108.646 565.587C96.291 570.296 85.2712 564.619 83.54 563.689" stroke="black" stroke-width="5" stroke-linecap="round" stroke-linejoin="round"/>
<path d="M108.505 702.028C111.387 704.022 119.796 702.79 123.248 697.567C125.78 699.955 135.107 701.118 138.307 694.655" stroke="black" stroke-width="5" stroke-linecap="round" stroke-linejoin="round"/>
<path d="M190.177 855.145C160.269 819.632 210.354 739.07 237.65 714.105C249.486 703.282 262.351 698.054 263.702 697.52C276.123 692.591 289.133 687.42 299.599 692.511C319.303 702.094 311.499 739.122 334.485 749.775C337.35 751.105 340.349 752.491 344.293 752.144C357.574 750.97 362.001 731.84 374.442 731.702C377.225 731.668 379.223 732.603 381.765 733.825C397.152 741.234 453 794.367 437.258 832.519C424.529 863.341 372.25 866.958 304.024 871.67C273.092 873.811 246.982 872.754 228.077 871.219C205.132 869.345 194.959 860.822 190.186 855.158L190.177 855.145Z" fill="#4465E2"/>
<path d="M251.435 738.535C252.346 736.57 251.655 734.314 249.891 733.496C248.127 732.678 245.959 733.607 245.047 735.572C244.136 737.537 244.827 739.793 246.591 740.611C248.355 741.429 250.524 740.499 251.435 738.535Z" fill="black"/>
<path d="M263.663 742.332C264.574 740.367 263.883 738.111 262.119 737.293C260.355 736.475 258.187 737.405 257.275 739.369C256.364 741.334 257.055 743.59 258.819 744.408C260.583 745.226 262.752 744.297 263.663 742.332Z" fill="black"/>
<path fill-rule="evenodd" clip-rule="evenodd" d="M244.649 754.642C245.232 755.461 246.269 756.281 247.664 756.784C249.06 757.288 250.381 757.318 251.353 757.06C252.335 756.799 252.763 756.321 252.904 755.93C253.045 755.539 253.02 754.897 252.431 754.07C251.848 753.251 250.811 752.431 249.416 751.928C248.02 751.425 246.699 751.394 245.727 751.652C244.745 751.913 244.317 752.391 244.176 752.782C244.035 753.173 244.06 753.815 244.649 754.642ZM241.301 757.026C240.18 755.453 239.582 753.405 240.31 751.388C241.037 749.37 242.805 748.176 244.672 747.68C246.548 747.182 248.728 747.311 250.81 748.062C252.893 748.813 254.652 750.105 255.779 751.686C256.9 753.259 257.498 755.307 256.77 757.324C256.043 759.342 254.275 760.536 252.408 761.032C250.532 761.53 248.352 761.402 246.27 760.65C244.187 759.899 242.428 758.608 241.301 757.026Z" fill="black"/>
<path d="M219.901 81.8353V98.4712H218.75V81.8353H219.901ZM205.585 94.1708C207.858 92.8222 209.348 89.7571 209.357 86.645V84.872H205.981V83.8723H213.714V84.872H210.508V86.645C210.498 89.5874 211.932 92.4826 214.186 93.7747L213.45 94.68C211.771 93.6615 210.526 91.7659 209.942 89.5402C209.348 91.9451 208.046 93.9916 206.339 95.0573L205.585 94.1708ZM212.413 88.9084V87.9087H215.412V82.2691H216.543V97.5658H215.412V88.9084H212.413ZM230.459 84.1741C230.449 86.5695 233.778 88.4746 236.438 88.8895L235.985 89.8326C233.533 89.3893 230.808 87.9653 229.808 85.8717C228.808 87.9653 226.083 89.3893 223.668 89.8326L223.197 88.8895C225.828 88.4746 229.148 86.5695 229.157 84.1741V83.91H223.687V82.9292H235.91V83.91H230.459V84.1741ZM222.235 92.4166V91.3981H237.4V92.4166H230.364V98.4523H229.214V92.4166H222.235ZM248.726 85.4001C248.736 87.5975 250.688 89.4931 253.084 90.2098L252.48 91.1529C250.547 90.5399 248.915 89.2102 248.17 87.4655C247.482 89.3893 245.869 90.8983 243.898 91.6056L243.294 90.6814C245.68 89.842 247.557 87.7767 247.557 85.4001V84.9286H243.672V83.9478H247.557V81.741H248.764V83.9478H252.612V84.9286H248.726V85.4001ZM245.935 95.4156C245.916 93.5012 248.01 92.4072 251.443 92.4166C254.885 92.4072 256.969 93.5012 256.969 95.4156C256.969 97.3206 254.885 98.4146 251.443 98.4146C248.01 98.4146 245.916 97.3206 245.935 95.4156ZM247.104 95.4156C247.086 96.6699 248.783 97.4527 251.443 97.4527C254.111 97.4527 255.8 96.6699 255.8 95.4156C255.8 94.1519 254.111 93.3786 251.443 93.3597C248.783 93.3786 247.086 94.1519 247.104 95.4156ZM252.084 87.7012V86.6827H255.724V81.8353H256.912V91.9262H255.724V87.7012H252.084ZM273.412 81.8353V94.1896H272.224V88.3237H267.206V87.324H272.224V85.1172H267.206V84.1364H272.224V81.8353H273.412ZM260.699 91.5867V83.099H261.906V90.5682H261.944C264.302 90.5682 266.593 90.4456 269.281 89.9458L269.432 90.9643C266.631 91.4735 264.358 91.5867 261.944 91.5867H260.699ZM262.812 98.0751V93.1522H264V97.0754H273.883V98.0751H262.812ZM295.905 95.2081V96.2267H280.664V95.2081H287.624V91.0397H288.794V95.2081H295.905ZM281.343 90.1344C283.965 89.6628 287.577 87.2674 287.587 84.325V83.0047H288.813V84.325C288.813 87.2391 292.462 89.6628 295.094 90.1344L294.547 91.134C292.161 90.6059 289.265 88.8518 288.209 86.3432C287.143 88.8518 284.267 90.6059 281.89 91.134L281.343 90.1344ZM310.876 81.8353V90.6059H309.688V87.739H306.161V86.7581H309.688V84.7022H306.161V83.7214H309.688V81.8353H310.876ZM297.202 89.644C299.578 88.7858 301.483 86.5507 301.502 84.1175V82.2502H302.634V84.1175C302.624 86.4092 304.539 88.484 306.896 89.2856L306.236 90.2287C304.378 89.5308 302.794 88.0785 302.077 86.2583C301.389 88.2482 299.767 89.842 297.843 90.6059L297.202 89.644ZM300.182 92.4355V91.4547H310.876V95.2081H301.389V97.2641H311.555V98.226H300.238V94.2839H309.707V92.4355H300.182ZM331.313 82.7029V83.91C331.304 85.1832 331.304 86.7204 330.879 88.7763H333.294V89.776H318.129V88.7763H329.682C329.87 87.8804 329.983 87.0977 330.049 86.3998L319.864 86.8525L319.694 85.8717L330.106 85.5227C330.134 84.938 330.125 84.4099 330.125 83.91V83.7026H320.091V82.7029H331.313ZM319.958 92.5109V91.5679H331.445V95.2459H321.184V97.2641H332.03V98.226H319.996V94.3028H330.257V92.5109H319.958ZM348.341 81.8353V90.9454H347.152V86.3998H343.814V85.3813H347.152V81.8353H348.341ZM335.326 83.5517V82.552H342.682V86.8902H336.533V89.4554H336.59C339.353 89.4648 341.494 89.3799 344.135 88.965L344.248 89.9646C341.56 90.389 339.4 90.4739 336.59 90.4739H335.364V85.9471H341.532V83.5517H335.326ZM337.552 98.226V91.7753H338.74V93.9821H347.171V91.7753H348.341V98.226H337.552ZM338.74 97.2452H347.171V94.9629H338.74V97.2452Z" fill="white"/>
<path d="M350.035 168.737C350.035 169.842 349.14 170.737 348.035 170.737H344.427C343.322 170.737 342.427 169.842 342.427 168.737V153.778C342.427 152.673 341.531 151.778 340.427 151.778H333.7C332.595 151.778 331.7 152.673 331.7 153.778V168.737C331.7 169.842 330.804 170.737 329.7 170.737H326.091C324.986 170.737 324.091 169.842 324.091 168.737V127.584C324.091 126.479 324.986 125.584 326.091 125.584H329.7C330.804 125.584 331.7 126.479 331.7 127.584V142.543C331.7 143.648 332.595 144.543 333.7 144.543H340.427C341.531 144.543 342.427 143.648 342.427 142.543V127.584C342.427 126.479 343.322 125.584 344.427 125.584H348.035C349.14 125.584 350.035 126.479 350.035 127.584V168.737ZM314.502 187.696C314.502 188.801 313.606 189.696 312.502 189.696H290.557C289.453 189.696 288.557 188.801 288.557 187.696V165.502C288.557 164.398 289.453 163.502 290.557 163.502H304.893C305.997 163.502 306.893 162.607 306.893 161.502V153.778C306.893 152.673 305.997 151.778 304.893 151.778H290.557C289.453 151.778 288.557 150.882 288.557 149.778V146.543C288.557 145.439 289.453 144.543 290.557 144.543H312.502C313.606 144.543 314.502 145.439 314.502 146.543V168.737C314.502 169.842 313.606 170.737 312.502 170.737H298.166C297.061 170.737 296.166 171.632 296.166 172.737V180.462C296.166 181.566 297.061 182.462 298.166 182.462H312.502C313.606 182.462 314.502 183.357 314.502 184.462V187.696Z" fill="white"/>
<path d="M239.738 183.963C239.738 182.858 240.633 181.963 241.738 181.963H253.08C254.184 181.963 255.08 181.068 255.08 179.963V171.733C255.08 170.846 254.489 170.08 253.673 169.735C248.942 167.733 245.725 163.102 245.725 157.64C245.725 150.406 251.587 144.543 258.947 144.543C266.306 144.543 272.168 150.406 272.168 157.64C272.168 163.096 268.854 167.723 264.207 169.728C263.398 170.078 262.813 170.841 262.813 171.723V179.963C262.813 181.068 263.709 181.963 264.813 181.963H276.155C277.26 181.963 278.155 182.858 278.155 183.963V187.198C278.155 188.302 277.26 189.198 276.155 189.198H241.738C240.633 189.198 239.738 188.302 239.738 187.198V183.963ZM245.974 202.299C245.974 201.194 246.87 200.299 247.974 200.299H269.919C271.023 200.299 271.919 201.194 271.919 202.299V224.493C271.919 225.597 271.023 226.493 269.919 226.493H255.583C254.479 226.493 253.583 227.388 253.583 228.493V236.218C253.583 237.322 254.479 238.218 255.583 238.218H269.919C271.023 238.218 271.919 239.113 271.919 240.218V243.452C271.919 244.557 271.023 245.452 269.919 245.452H247.974C246.87 245.452 245.974 244.557 245.974 243.452V221.258C245.974 220.154 246.87 219.258 247.974 219.258H262.31C263.415 219.258 264.31 218.363 264.31 217.258V209.533C264.31 208.429 263.415 207.533 262.31 207.533H247.974C246.87 207.533 245.974 206.638 245.974 205.533V202.299ZM253.084 157.64C253.084 160.883 255.828 163.627 258.822 163.627C261.94 163.627 264.684 160.883 264.684 157.64C264.684 154.397 261.94 151.653 258.822 151.653C255.828 151.653 253.084 154.397 253.084 157.64Z" fill="white"/>
<path d="M60.5 -12.5C29.6667 10.5 12.3439 74.3 41.1439 123.5C77.1439 185 167.144 98.5 121.144 83.5C98.6757 76.1733 46.6441 164 66.6441 229C74.4596 254.4 148.644 421 410.644 345.5" stroke="#F5F5F5" stroke-opacity="0.5" stroke-linecap="round" stroke-linejoin="round"/>
<path d="M-43 382C88 421.333 362.1 443.6 410.5 218" stroke="#F5F5F5" stroke-opacity="0.5" stroke-linecap="round" stroke-linejoin="round"/>
</g>
<defs>
<clipPath id="clip0_79_1544">
<rect width="393" height="852" fill="white"/>
</clipPath>
</defs>
</svg>
